if (_typeface_js && _typeface_js.loadFace) _typeface_js.loadFace({"glyphs":{"¦":{"x_min":117,"x_max":220.765625,"ha":338,"o":"m 220 1055 l 215 534 l 121 534 l 117 1055 l 220 1055 m 220 140 l 215 -376 l 121 -376 l 117 140 l 220 140 "},"Ő":{"x_min":64.671875,"x_max":1043.03125,"ha":1103,"o":"m 201 511 q 210 405 201 460 q 239 296 220 349 q 288 196 258 243 q 358 112 317 148 q 449 56 398 77 q 562 35 499 35 q 666 52 619 35 q 752 99 714 69 q 818 171 790 129 q 866 259 847 212 q 894 359 885 306 q 904 460 904 413 q 893 571 904 510 q 861 685 882 632 q 810 785 840 739 q 739 866 779 832 q 650 920 699 900 q 543 940 601 940 q 393 902 458 940 q 286 802 329 864 q 222 665 243 741 q 201 511 201 589 m 64 486 q 77 605 64 544 q 116 722 90 665 q 183 828 143 778 q 277 914 223 877 q 398 973 330 952 q 548 995 466 995 q 702 973 633 995 q 827 914 772 951 q 922 827 882 877 q 989 721 962 778 q 1029 604 1016 664 q 1043 486 1043 544 q 1029 368 1043 428 q 990 252 1016 308 q 924 145 964 195 q 830 58 884 95 q 708 0 776 21 q 559 -22 641 -22 q 400 0 471 -22 q 274 56 329 20 q 179 141 219 92 q 114 247 139 190 q 76 364 89 303 q 64 486 64 426 m 472 1247 q 512 1282 488 1275 q 558 1270 536 1289 q 570 1253 566 1262 q 574 1232 575 1243 q 569 1209 574 1221 q 551 1187 563 1198 l 423 1072 l 386 1098 l 472 1247 m 708 1249 q 728 1263 717 1258 q 751 1266 739 1267 q 772 1259 762 1265 q 789 1239 782 1252 q 796 1216 795 1228 q 794 1194 797 1204 q 783 1174 790 1183 q 765 1161 775 1165 l 574 1072 l 554 1108 l 708 1249 "},"Ž":{"x_min":60.046875,"x_max":781,"ha":847,"o":"m 60 64 q 148 188 99 119 q 259 347 198 258 q 394 548 321 437 q 553 796 466 659 q 594 858 572 827 q 641 921 616 890 l 287 915 q 216 899 246 913 q 165 857 185 885 q 134 786 144 829 q 124 685 124 744 l 77 685 l 85 973 l 774 973 l 774 923 l 275 167 q 247 127 260 144 q 223 97 235 110 q 202 73 212 83 q 180 52 191 62 l 518 57 q 603 71 563 58 q 672 113 643 85 q 717 184 700 141 q 734 285 734 226 l 781 285 l 772 0 l 60 0 l 60 64 m 413 1036 l 411 1036 l 155 1232 l 185 1279 l 416 1156 l 419 1156 l 655 1282 l 683 1237 l 413 1036 "},"Á":{"x_min":-8.046875,"x_max":886.953125,"ha":869,"o":"m 177 150 q 168 121 172 134 q 160 97 164 108 q 152 76 156 86 q 143 55 147 66 l 251 60 l 251 0 l -8 0 l -8 45 q 42 58 23 45 q 76 93 62 70 q 100 148 89 116 q 126 219 112 180 l 412 999 l 445 999 l 756 207 q 768 173 762 193 q 780 132 775 153 q 789 90 786 111 q 792 55 792 70 l 886 60 l 886 0 l 568 0 l 568 45 q 625 59 607 46 q 648 92 644 73 q 648 134 653 112 q 636 176 644 157 l 587 307 l 225 298 q 199 220 211 256 q 177 150 187 185 m 346 638 q 290 480 314 549 q 247 359 266 412 l 568 359 l 469 625 l 407 796 l 404 796 l 346 638 m 427 1055 l 397 1095 l 572 1262 q 609 1283 592 1279 q 637 1285 625 1288 q 656 1277 649 1283 q 665 1269 663 1271 q 672 1255 669 1264 q 673 1233 676 1246 q 662 1207 671 1221 q 629 1178 652 1193 l 427 1055 "},"е":{"x_min":58.671875,"x_max":698.703125,"ha":753,"o":"m 409 662 q 275 614 328 662 q 205 460 222 566 l 559 460 q 551 532 559 496 q 525 597 543 568 q 479 644 507 626 q 409 662 450 662 m 690 410 l 201 402 q 213 256 201 321 q 254 145 226 191 q 326 74 282 99 q 430 49 369 49 q 497 57 463 49 q 562 82 531 66 q 620 118 594 97 q 664 165 647 140 l 698 137 q 632 63 670 93 q 554 14 594 33 q 473 -13 514 -5 q 397 -22 432 -22 q 263 3 325 -22 q 156 77 201 29 q 84 193 110 125 q 58 346 58 261 q 83 486 58 419 q 154 604 108 552 q 265 686 201 655 q 408 717 329 717 q 517 698 466 717 q 607 641 568 679 q 668 545 645 603 q 690 410 690 487 "},"Î":{"x_min":-12,"x_max":488,"ha":465,"o":"m 243 1293 l 246 1293 l 488 1097 l 457 1049 l 241 1172 l 238 1172 l 15 1051 l -12 1095 l 243 1293 m 172 817 q 173 871 172 845 q 176 918 174 896 l 76 911 l 76 973 l 389 973 l 389 927 q 330 912 349 926 q 302 877 310 899 q 293 824 294 854 q 293 756 293 793 l 293 165 q 292 99 293 127 q 288 55 291 72 l 389 60 l 389 0 l 76 0 l 76 45 q 135 59 115 46 q 163 95 155 72 q 171 148 171 117 q 172 216 172 179 l 172 817 "},"e":{"x_min":58,"x_max":698.03125,"ha":753,"o":"m 409 662 q 274 614 327 662 q 205 460 222 566 l 559 460 q 550 532 559 496 q 524 597 542 568 q 478 644 506 626 q 409 662 449 662 m 689 410 l 201 402 q 213 256 200 321 q 253 145 226 191 q 325 74 281 99 q 430 49 369 49 q 496 57 462 49 q 562 82 530 66 q 620 118 593 97 q 664 165 646 140 l 698 137 q 631 63 669 93 q 553 14 594 33 q 472 -13 513 -5 q 397 -22 432 -22 q 263 3 325 -22 q 155 77 201 29 q 84 193 110 125 q 58 346 58 261 q 83 486 58 419 q 154 604 108 552 q 264 686 200 655 q 407 717 329 717 q 516 698 465 717 q 606 641 567 679 q 667 545 645 603 q 689 410 689 487 "},"»":{"x_min":76.28125,"x_max":692,"ha":735,"o":"m 692 385 l 692 380 l 311 -10 l 268 34 l 542 385 l 542 388 l 271 717 l 315 762 l 692 385 m 396 381 l 396 377 l 120 107 l 76 148 l 244 373 l 244 376 l 79 603 l 123 645 l 396 381 "},"∆":{"x_min":38.65625,"x_max":931.875,"ha":970,"o":"m 38 0 l 418 995 l 529 995 l 931 0 l 38 0 m 777 80 l 456 904 l 153 80 l 777 80 "},"ļ":{"x_min":35.40625,"x_max":331.09375,"ha":378,"o":"m 129 868 q 130 910 129 889 q 133 958 130 930 l 35 953 l 35 1011 q 111 1014 80 1011 q 160 1022 141 1017 q 190 1034 179 1028 q 209 1048 200 1041 l 249 1048 l 250 147 q 249 98 250 119 q 243 53 247 76 l 331 57 l 331 0 l 47 0 l 47 41 q 96 54 79 41 q 120 88 112 66 q 128 142 127 111 q 129 211 129 173 l 129 868 m 204 -77 q 221 -149 221 -112 q 191 -256 221 -202 q 111 -360 161 -310 l 75 -332 q 108 -260 97 -291 q 120 -204 118 -229 q 119 -153 122 -178 q 109 -99 115 -128 l 204 -77 "},"Ѓ":{"x_min":76.375,"x_max":727.734375,"ha":761,"o":"m 681 729 q 666 829 681 791 q 624 889 651 867 q 563 917 598 910 q 489 924 529 924 l 388 921 q 329 906 349 919 q 301 870 309 893 q 293 816 293 847 q 293 750 293 786 l 293 165 q 291 100 293 127 q 288 55 290 73 l 429 61 l 429 0 l 76 0 l 76 46 q 135 60 115 47 q 163 95 155 73 q 171 148 171 118 q 172 216 172 179 l 172 816 q 173 870 172 845 q 177 917 174 895 l 76 910 l 76 973 l 720 973 l 727 729 l 681 729 m 339 1055 l 308 1095 l 483 1262 q 520 1283 503 1279 q 549 1285 537 1288 q 568 1277 561 1283 q 577 1269 575 1271 q 584 1255 580 1264 q 585 1233 587 1246 q 573 1207 583 1221 q 540 1178 564 1193 l 339 1055 "},"ў":{"x_min":5.859375,"x_max":727.8125,"ha":733,"o":"m 531 986 q 571 966 556 985 q 586 921 586 946 q 570 872 586 894 q 528 834 554 850 q 466 810 501 818 q 391 802 431 802 q 316 810 351 802 q 254 834 281 818 q 212 872 228 850 q 197 921 197 894 q 211 966 197 946 q 251 986 226 985 q 280 980 268 986 q 298 965 291 974 q 307 947 304 956 q 310 929 310 937 q 306 904 310 918 q 296 879 303 890 q 310 866 300 871 q 334 858 320 861 q 362 854 347 855 q 391 853 377 853 q 420 854 405 853 q 448 858 435 855 q 472 866 462 861 q 486 879 482 871 q 476 904 479 890 q 473 929 473 918 q 475 947 473 937 q 484 965 478 956 q 502 980 491 974 q 531 986 513 986 m 727 653 q 683 627 702 643 q 650 588 664 611 q 624 536 636 565 q 598 472 611 507 l 425 -12 q 367 -167 393 -99 q 311 -282 340 -235 q 248 -352 282 -328 q 168 -376 214 -376 q 127 -371 146 -376 q 94 -355 108 -366 q 72 -329 80 -345 q 64 -292 64 -313 q 68 -267 64 -279 q 79 -245 72 -254 q 98 -230 87 -235 q 123 -224 109 -224 q 150 -230 139 -223 q 168 -246 162 -236 q 178 -266 175 -255 q 181 -284 181 -276 q 180 -293 181 -288 q 178 -303 180 -299 q 221 -299 197 -311 q 265 -252 245 -286 q 307 -161 282 -221 q 362 -15 332 -100 l 145 449 q 114 518 127 488 q 93 572 102 549 q 80 612 85 595 q 73 641 75 629 l 5 637 l 5 695 l 293 695 l 293 654 l 287 654 q 242 641 257 652 q 224 610 227 630 q 229 560 220 590 q 255 491 237 531 l 418 142 q 478 317 449 231 q 537 491 508 404 q 554 538 545 514 q 572 585 563 563 q 589 623 581 607 q 605 645 598 639 l 510 638 l 510 695 l 727 695 l 727 653 "},"ò":{"x_min":57,"x_max":755.75,"ha":813,"o":"m 405 664 q 311 639 350 664 q 247 574 272 615 q 210 480 222 533 q 198 370 198 427 q 211 245 198 306 q 252 137 225 184 q 320 61 279 90 q 416 33 361 33 q 509 57 471 33 q 570 123 546 82 q 603 216 593 163 q 614 323 614 268 q 602 446 614 385 q 565 556 590 507 q 501 634 540 604 q 405 664 461 664 m 405 717 q 542 690 478 717 q 653 616 606 663 q 728 504 700 569 q 755 364 755 439 q 728 213 755 283 q 655 90 702 142 q 543 8 607 38 q 405 -22 479 -22 q 268 4 332 -22 q 158 76 205 30 q 84 188 111 123 q 57 330 57 253 q 83 483 57 412 q 157 606 110 554 q 267 687 204 658 q 405 717 331 717 m 276 953 q 253 987 259 971 q 249 998 251 991 q 247 1012 247 1005 q 249 1029 247 1021 q 258 1045 251 1036 q 275 1058 265 1054 q 297 1063 286 1063 q 323 1055 308 1063 q 354 1025 339 1047 l 471 837 l 432 806 l 276 953 "},"ţ":{"x_min":29.515625,"x_max":532.3125,"ha":538,"o":"m 304 -102 q 349 -84 323 -90 q 399 -78 375 -78 q 466 -103 441 -78 q 492 -170 492 -128 q 478 -220 492 -197 q 442 -259 464 -242 q 391 -289 420 -277 q 332 -311 362 -302 q 272 -325 302 -319 q 219 -334 243 -331 l 211 -288 q 276 -272 246 -281 q 329 -249 307 -262 q 365 -219 352 -235 q 378 -182 378 -202 q 366 -151 378 -161 q 339 -140 355 -142 q 304 -145 323 -139 q 271 -161 286 -151 l 224 -138 l 258 -13 q 210 10 233 -5 q 170 54 187 25 q 144 127 153 83 q 136 234 134 171 l 136 635 l 29 635 l 29 695 q 95 715 66 695 q 148 763 125 734 q 187 825 171 791 q 212 889 203 859 l 260 889 q 259 785 260 834 q 259 695 259 737 l 492 695 l 492 640 l 259 638 q 258 483 258 547 q 258 377 258 420 q 257 309 257 334 q 257 272 257 285 q 257 255 257 259 q 257 251 257 251 q 262 167 257 203 q 279 106 267 131 q 311 69 291 81 q 361 56 331 56 q 432 78 397 56 q 495 139 467 99 l 532 109 q 474 40 503 66 q 420 1 446 15 q 371 -17 394 -12 q 331 -22 349 -21 l 304 -102 "},"^":{"x_min":83,"x_max":1060,"ha":1143,"o":"m 634 995 l 1060 606 l 937 606 l 567 945 l 196 613 l 83 613 l 511 995 l 634 995 "},"«":{"x_min":44,"x_max":659.671875,"ha":736,"o":"m 44 365 l 44 370 l 424 760 l 467 716 l 193 365 l 193 362 l 464 33 l 420 -11 l 44 365 m 339 369 l 339 373 l 615 643 l 659 602 l 491 377 l 491 374 l 656 147 l 612 106 l 339 369 "},"∙":{"x_min":125,"x_max":287,"ha":407,"o":"m 207 542 q 238 534 223 542 q 263 515 253 527 q 280 486 274 503 q 287 450 287 470 q 280 416 287 432 q 262 387 273 400 q 236 368 251 375 q 205 362 221 362 q 174 368 189 362 q 149 387 160 375 q 131 416 137 400 q 125 450 125 432 q 131 486 125 470 q 149 515 138 503 q 175 534 160 527 q 207 542 190 542 "},"к":{"x_min":47.890625,"x_max":735.609375,"ha":746,"o":"m 567 191 q 581 172 571 186 q 604 142 591 159 q 633 107 617 125 q 667 74 650 89 q 702 50 684 60 q 735 41 719 41 l 735 0 l 609 0 q 572 11 590 0 q 535 40 553 22 q 499 82 517 58 q 462 130 481 105 q 370 259 408 205 q 304 340 332 314 l 249 337 l 249 146 q 248 97 249 119 q 244 52 247 76 l 331 56 l 331 0 l 47 0 l 47 41 q 96 53 79 41 q 120 88 113 66 q 129 142 128 110 q 132 210 131 173 l 132 547 q 132 596 132 575 q 137 642 133 618 l 49 637 l 49 695 l 332 695 l 332 654 q 284 641 300 654 q 260 606 267 628 q 251 552 252 583 q 250 483 250 521 l 250 392 l 303 392 l 473 569 q 515 612 496 593 q 555 643 535 630 l 460 639 l 460 695 l 713 695 l 713 654 q 645 633 677 649 q 585 596 613 617 q 533 550 557 574 q 490 507 509 526 l 382 393 q 429 361 410 380 q 469 318 449 342 l 567 191 "},"í":{"x_min":51.078125,"x_max":363,"ha":392,"o":"m 144 527 q 145 569 144 548 q 149 617 146 589 l 51 612 l 51 670 q 126 673 96 670 q 175 681 156 676 q 204 693 194 687 q 223 708 215 700 l 263 708 l 263 147 q 262 98 263 119 q 257 53 262 76 l 345 57 l 345 0 l 61 0 l 61 41 q 110 54 93 41 q 134 88 127 66 q 142 142 141 111 q 144 210 144 173 l 144 527 m 177 806 l 139 837 l 255 1025 q 286 1055 270 1047 q 312 1063 301 1063 q 334 1058 323 1063 q 351 1045 344 1054 q 360 1029 358 1036 q 363 1012 363 1021 q 360 998 363 1005 q 356 987 358 991 q 333 953 350 971 l 177 806 "},"ˆ":{"x_min":62,"x_max":493,"ha":555,"o":"m 283 1080 l 285 1080 l 493 854 l 455 809 l 279 960 l 276 960 l 96 819 l 62 859 l 283 1080 "},"ū":{"x_min":35.796875,"x_max":788.28125,"ha":829,"o":"m 576 512 q 577 570 576 546 q 582 618 578 594 l 483 614 l 483 671 l 525 671 q 576 674 555 671 q 612 682 597 677 q 637 694 627 687 q 655 708 647 700 l 695 708 l 694 183 q 693 155 694 172 q 692 121 693 139 q 690 85 691 103 q 688 53 689 67 l 788 58 l 788 0 l 589 0 q 583 43 586 23 q 580 83 581 63 q 531 42 558 62 q 476 9 505 23 q 415 -13 446 -5 q 353 -22 384 -22 q 254 -6 296 -22 q 182 43 211 8 q 140 137 154 79 q 126 281 126 194 l 126 527 q 126 571 126 549 q 131 618 127 594 l 35 614 l 35 671 l 79 671 q 129 674 108 671 q 165 682 150 677 q 190 694 180 687 q 208 708 199 700 l 248 708 l 248 284 q 256 180 248 224 q 282 106 264 135 q 328 62 300 76 q 398 49 357 49 q 450 57 424 49 q 498 81 475 66 q 541 115 521 96 q 576 156 561 134 l 576 213 l 576 512 m 210 973 l 578 973 l 578 895 l 210 889 l 210 973 "},"ņ":{"x_min":52.109375,"x_max":802.109375,"ha":843,"o":"m 145 527 q 145 571 145 548 q 150 617 146 593 l 52 612 l 52 670 q 126 673 97 670 q 171 681 154 676 q 198 693 189 687 q 216 708 208 700 l 256 708 q 259 672 257 692 q 262 624 261 652 q 311 660 284 643 q 367 690 338 677 q 427 709 396 702 q 488 717 458 717 q 664 641 608 717 q 720 406 720 565 l 720 147 q 719 98 720 119 q 714 53 718 76 l 802 57 l 802 0 l 518 0 l 518 41 q 567 54 550 41 q 591 88 583 66 q 599 142 598 111 q 600 210 600 173 l 600 404 q 561 585 599 524 q 440 646 523 646 q 390 638 415 646 q 342 619 365 631 q 298 591 319 607 q 263 555 278 574 q 264 529 264 543 q 264 501 264 515 l 263 147 q 262 98 263 119 q 257 53 261 76 l 345 57 l 345 0 l 61 0 l 61 41 q 110 54 93 41 q 133 88 126 66 q 141 142 140 111 q 143 210 142 173 l 145 527 m 437 -77 q 453 -149 453 -112 q 423 -256 453 -202 q 344 -360 394 -310 l 307 -332 q 340 -260 330 -291 q 353 -204 351 -229 q 351 -153 355 -178 q 341 -99 347 -128 l 437 -77 "},"µ":{"x_min":130.640625,"x_max":816.984375,"ha":853,"o":"m 682 695 l 680 196 q 685 135 680 160 q 697 95 689 111 q 717 73 705 80 q 743 67 728 67 q 769 72 755 67 q 801 90 782 77 l 816 69 q 793 43 808 57 q 761 18 779 29 q 722 0 743 7 q 676 -8 700 -8 q 632 0 650 -8 q 601 18 614 6 q 581 46 589 30 q 570 78 574 62 q 525 39 550 58 q 473 7 500 21 q 415 -14 445 -6 q 355 -22 385 -22 q 264 7 302 -22 q 198 90 226 37 q 213 -38 205 14 q 228 -127 221 -91 q 243 -187 236 -164 q 254 -226 250 -210 q 262 -256 259 -242 q 265 -285 265 -269 q 261 -312 265 -299 q 249 -336 257 -326 q 230 -354 241 -347 q 201 -361 218 -361 q 146 -328 163 -361 q 130 -240 130 -296 l 132 695 l 248 695 l 248 327 q 254 217 248 268 q 277 129 260 166 q 322 70 294 91 q 397 49 351 49 q 447 56 422 49 q 492 78 471 64 q 532 109 514 91 q 564 148 550 127 l 564 695 l 682 695 "},"č":{"x_min":57.671875,"x_max":692.265625,"ha":739,"o":"m 568 590 q 541 629 559 614 q 501 652 522 644 q 458 662 480 660 q 423 665 437 665 q 334 645 375 665 q 263 589 293 626 q 216 496 233 551 q 199 369 199 440 q 216 241 199 300 q 265 140 234 183 q 340 74 296 98 q 438 51 384 51 q 502 60 470 51 q 562 85 534 69 q 615 123 591 101 q 656 170 639 144 l 692 142 q 628 67 664 98 q 554 17 593 37 q 475 -12 515 -3 q 400 -22 435 -22 q 267 2 330 -22 q 158 71 205 26 q 84 184 111 117 q 57 335 57 250 q 69 430 57 383 q 103 519 81 477 q 158 598 126 561 q 230 660 189 634 q 318 702 270 687 q 419 717 366 717 q 524 702 477 717 q 606 664 572 688 q 658 610 640 640 q 676 545 676 579 q 660 494 676 515 q 612 472 643 472 q 581 477 593 471 q 562 493 569 484 q 551 514 554 503 q 547 534 547 525 q 552 562 547 547 q 568 590 556 577 m 399 796 l 396 796 l 189 1022 l 226 1067 l 403 915 l 406 915 l 585 1069 l 620 1029 l 399 796 "},"’":{"x_min":35.015625,"x_max":210,"ha":241,"o":"m 69 695 q 94 734 81 709 q 116 788 106 758 q 132 851 126 818 q 133 915 137 883 q 95 908 113 907 q 64 918 77 909 q 42 942 50 927 q 35 975 35 957 q 57 1035 35 1014 q 111 1056 79 1056 q 153 1046 135 1056 q 184 1019 172 1036 q 203 979 197 1002 q 210 930 210 956 q 202 868 210 903 q 181 795 195 832 q 148 725 167 759 q 106 668 129 691 l 69 695 "},"-":{"x_min":93,"x_max":586,"ha":679,"o":"m 93 494 l 586 494 l 586 402 l 93 396 l 93 494 "},"ѕ":{"x_min":72.671875,"x_max":587.9375,"ha":643,"o":"m 322 33 q 375 39 349 33 q 424 59 402 45 q 460 93 446 72 q 474 142 474 114 q 457 198 474 175 q 411 240 440 222 q 347 272 383 258 q 273 301 311 286 q 199 334 235 316 q 135 376 163 352 q 89 434 107 401 q 72 515 72 468 q 83 579 72 544 q 121 645 94 614 q 194 696 148 675 q 310 717 240 717 q 350 714 329 717 q 394 704 372 711 q 439 685 417 697 q 483 657 462 674 l 480 710 l 538 710 l 538 467 l 495 467 q 481 538 492 502 q 448 601 470 573 q 394 647 427 629 q 317 665 362 665 q 259 656 284 665 q 216 633 234 648 q 190 599 199 618 q 181 559 181 580 q 199 501 181 525 q 245 458 216 477 q 310 423 273 439 q 384 392 346 408 q 459 358 422 376 q 524 316 496 340 q 570 259 553 291 q 587 182 587 226 q 566 91 587 129 q 511 27 545 52 q 434 -9 477 2 q 346 -22 391 -22 q 222 -3 276 -22 q 134 38 169 14 l 139 -10 l 80 -10 l 72 229 l 115 229 q 135 149 118 185 q 180 87 152 113 q 245 47 209 61 q 322 33 281 33 "},"Q":{"x_min":64,"x_max":1091.875,"ha":1106,"o":"m 64 486 q 76 605 64 544 q 116 722 89 665 q 182 828 142 778 q 276 914 222 877 q 397 973 329 952 q 547 995 465 995 q 702 973 632 995 q 826 914 771 951 q 921 827 881 877 q 989 721 962 778 q 1029 604 1015 664 q 1042 486 1042 544 q 1029 368 1042 428 q 989 252 1015 308 q 923 145 963 195 q 829 58 883 95 q 707 0 775 21 q 671 -9 690 -5 q 678 -10 675 -10 q 724 -14 702 -11 q 768 -27 746 -17 q 815 -53 791 -36 q 870 -98 840 -70 q 951 -173 918 -142 q 1009 -222 984 -204 q 1052 -249 1033 -241 q 1091 -257 1071 -257 l 1091 -302 l 1047 -302 q 980 -300 1009 -302 q 924 -292 951 -299 q 872 -269 898 -285 q 813 -224 845 -253 q 731 -145 766 -182 q 667 -81 697 -108 q 610 -37 637 -53 q 549 -22 582 -22 q 399 0 466 -20 q 273 56 328 20 q 179 141 218 92 q 113 247 139 190 q 76 364 88 303 q 64 486 64 426 m 200 511 q 209 405 200 460 q 238 296 219 349 q 287 196 258 243 q 357 112 317 148 q 448 56 397 77 q 561 35 498 35 q 665 52 618 35 q 751 99 713 69 q 817 171 789 129 q 865 259 846 212 q 894 359 884 306 q 904 460 904 413 q 893 571 904 510 q 861 685 882 632 q 809 785 840 739 q 739 866 779 832 q 649 920 699 900 q 543 940 600 940 q 393 902 457 940 q 285 802 328 864 q 221 665 243 741 q 200 511 200 589 "},"Ш":{"x_min":76.296875,"x_max":1318.625,"ha":1395,"o":"m 1318 927 q 1259 912 1279 925 q 1231 877 1239 899 q 1223 824 1223 855 q 1223 756 1223 793 l 1223 156 q 1221 102 1223 127 q 1218 56 1220 77 l 1318 62 l 1318 0 l 76 0 l 76 46 q 135 60 115 47 q 163 95 155 73 q 171 149 171 118 q 172 217 172 179 l 172 808 q 176 918 172 882 l 76 912 l 76 973 l 389 973 l 389 927 q 329 913 349 926 q 301 877 309 900 q 293 824 293 855 q 293 757 293 793 l 293 58 l 637 58 l 637 808 q 638 873 637 846 q 642 918 639 900 l 555 912 l 555 973 l 853 973 l 853 927 q 794 913 814 926 q 766 877 774 900 q 758 824 758 855 q 758 757 758 793 l 758 156 q 754 61 758 104 l 1102 61 l 1102 807 q 1103 873 1102 846 q 1107 918 1104 900 l 1020 912 l 1020 973 l 1318 973 l 1318 927 "},"M":{"x_min":61.375,"x_max":1228.0625,"ha":1275,"o":"m 87 973 l 300 973 q 392 762 348 863 q 477 563 435 661 q 561 367 519 465 q 647 169 603 270 l 650 169 q 667 211 658 188 q 686 258 676 234 q 704 306 695 283 q 721 348 713 329 q 847 654 781 500 q 978 973 914 808 l 1183 973 l 1183 927 q 1138 920 1157 927 q 1107 894 1119 912 q 1090 847 1095 876 q 1087 775 1084 818 l 1124 142 q 1126 96 1125 118 q 1127 55 1127 74 l 1228 60 l 1228 0 l 916 0 l 916 45 q 968 57 949 46 q 997 89 987 68 q 1009 140 1006 110 q 1009 210 1011 171 l 973 803 q 964 782 968 793 q 954 758 959 770 l 642 -14 l 600 -14 q 509 189 555 87 q 417 394 462 291 q 328 602 372 497 q 244 815 285 707 l 243 754 q 240 678 241 721 q 238 586 239 635 q 234 484 236 537 q 232 377 233 431 q 229 271 230 323 q 227 173 228 220 q 226 111 226 141 q 222 55 225 80 l 326 60 l 326 0 l 61 0 l 61 45 q 112 56 93 46 q 140 84 130 67 q 152 124 150 101 q 157 173 155 147 l 187 917 l 87 913 l 87 973 "},"ј":{"x_min":-122,"x_max":258.890625,"ha":357,"o":"m -122 -298 q -105 -252 -122 -272 q -62 -233 -88 -233 q -33 -238 -45 -233 q -15 -253 -22 -244 q -5 -272 -8 -262 q -1 -291 -1 -282 q -1 -297 -1 -294 q -2 -303 -1 -300 q 32 -312 16 -312 q 56 -308 41 -312 q 89 -288 71 -304 q 120 -222 112 -266 q 129 -119 129 -177 l 132 527 q 132 569 132 549 q 136 617 132 589 l 37 612 l 37 670 q 113 673 83 670 q 162 681 143 676 q 192 693 181 686 q 211 708 203 700 l 251 708 l 251 -4 q 231 -171 251 -101 q 175 -287 211 -241 q 92 -354 140 -332 q -12 -376 44 -376 q -61 -369 -40 -376 q -95 -352 -82 -363 q -115 -327 -109 -341 q -122 -298 -122 -313 m 258 927 q 252 895 258 910 q 235 869 246 880 q 212 852 225 858 q 183 846 198 846 q 155 852 168 846 q 131 869 141 858 q 114 895 120 880 q 109 927 109 910 q 115 959 109 944 q 131 986 121 975 q 155 1004 142 998 q 184 1011 169 1011 q 213 1004 200 1011 q 237 986 227 998 q 253 959 247 975 q 258 927 258 944 "},"œ":{"x_min":58,"x_max":1172.8125,"ha":1225,"o":"m 1157 408 l 704 400 q 716 255 704 320 q 753 144 727 190 q 820 74 779 99 q 920 49 861 49 q 984 57 953 49 q 1044 82 1016 66 q 1097 118 1073 97 q 1138 165 1121 140 l 1172 137 q 1109 63 1144 93 q 1036 14 1074 33 q 960 -13 999 -5 q 887 -22 922 -22 q 808 -12 846 -22 q 736 13 769 -3 q 676 58 703 31 q 630 119 649 85 l 628 119 q 526 15 588 53 q 385 -22 465 -22 q 252 4 312 -22 q 148 76 192 30 q 81 188 105 123 q 58 330 58 253 q 81 483 58 412 q 147 606 104 554 q 251 687 190 658 q 385 717 311 717 q 532 679 470 717 q 639 569 594 641 l 640 569 q 685 627 659 601 q 744 674 711 654 q 814 705 776 693 q 894 717 852 717 q 1000 697 951 717 q 1083 640 1048 678 q 1138 543 1118 601 q 1157 408 1157 485 m 386 664 q 299 639 334 664 q 241 574 263 615 q 209 480 219 533 q 199 370 199 427 q 210 245 199 306 q 244 137 220 184 q 304 61 267 90 q 395 33 342 33 q 487 61 451 33 q 542 134 523 89 q 569 234 562 178 q 576 344 576 289 q 563 460 576 394 q 527 569 550 525 q 470 638 504 612 q 386 664 435 664 m 887 662 q 767 611 811 662 q 708 458 724 561 l 1027 458 q 1019 533 1026 497 q 995 598 1012 570 q 952 644 979 626 q 887 662 925 662 "},"ě":{"x_min":58.671875,"x_max":698.703125,"ha":753,"o":"m 409 662 q 275 614 328 662 q 205 460 222 566 l 559 460 q 551 532 559 496 q 525 597 543 568 q 479 644 507 626 q 409 662 450 662 m 690 410 l 201 402 q 213 256 201 321 q 254 145 226 191 q 326 74 282 99 q 430 49 369 49 q 497 57 463 49 q 562 82 531 66 q 620 118 594 97 q 664 165 647 140 l 698 137 q 632 63 670 93 q 554 14 594 33 q 473 -13 514 -5 q 397 -22 432 -22 q 263 3 325 -22 q 156 77 201 29 q 84 193 110 125 q 58 346 58 261 q 83 486 58 419 q 154 604 108 552 q 265 686 201 655 q 408 717 329 717 q 517 698 466 717 q 607 641 568 679 q 668 545 645 603 q 690 410 690 487 m 382 796 l 380 796 l 173 1022 l 210 1067 l 387 915 l 390 915 l 569 1069 l 604 1029 l 382 796 "},"{":{"x_min":10,"x_max":447.140625,"ha":464,"o":"m 130 365 q 188 344 160 359 q 238 307 216 330 q 273 250 260 283 q 286 174 286 217 q 285 136 286 158 q 281 89 283 114 q 271 -31 272 -14 q 269 -60 270 -48 q 268 -80 268 -71 q 268 -97 268 -88 q 275 -201 268 -156 q 302 -276 283 -246 q 354 -321 321 -306 q 439 -337 388 -337 l 447 -337 l 447 -376 l 408 -376 q 289 -356 337 -376 q 213 -300 241 -337 q 172 -207 184 -263 q 161 -78 161 -151 q 163 -12 161 -47 q 168 59 165 23 q 172 129 170 95 q 175 190 175 163 q 168 252 175 225 q 147 296 162 278 q 106 322 131 313 q 41 331 80 331 l 10 331 l 10 402 l 41 402 q 106 409 80 402 q 147 433 131 417 q 168 475 162 450 q 175 536 175 500 q 168 649 175 591 q 161 769 161 707 q 172 896 161 842 q 213 985 184 950 q 289 1037 241 1020 q 408 1055 337 1055 l 447 1055 l 447 1008 l 431 1008 q 351 995 382 1008 q 301 955 319 982 q 275 887 282 928 q 268 789 268 846 q 268 763 268 777 q 270 734 269 749 l 279 640 q 285 585 283 607 q 286 552 287 564 q 273 476 286 508 q 238 422 260 444 q 188 386 216 399 q 130 367 160 373 l 130 365 l 130 365 "},"¼":{"x_min":63.765625,"x_max":1011.34375,"ha":1060,"o":"m 866 950 l 209 -22 l 156 13 l 805 995 l 866 950 m 106 457 q 141 465 127 457 q 162 487 154 473 q 172 519 169 500 q 175 559 175 538 l 175 894 l 171 894 l 85 843 l 63 882 l 218 995 l 253 995 l 254 517 q 253 488 254 501 q 251 463 253 474 l 322 465 l 322 418 l 106 418 l 106 457 l 106 457 m 990 0 l 786 0 l 786 40 q 820 48 807 40 q 841 67 834 55 q 851 95 849 78 q 854 132 854 112 l 854 146 l 619 146 l 619 187 l 896 571 l 932 571 l 932 196 l 1011 196 l 1011 146 l 933 146 l 933 45 l 990 47 l 990 0 m 684 200 l 854 198 l 854 436 l 852 436 l 684 200 "},"#":{"x_min":46,"x_max":1107,"ha":1153,"o":"m 214 -22 l 277 248 l 46 248 l 68 331 l 296 331 l 372 652 l 138 652 l 160 735 l 391 735 l 453 995 l 544 995 l 485 735 l 780 735 l 842 995 l 933 995 l 874 735 l 1107 735 l 1107 733 l 1085 652 l 855 652 l 782 331 l 1015 331 l 993 248 l 764 248 l 703 -22 l 603 -22 l 666 248 l 374 248 l 313 -22 l 214 -22 m 393 331 l 685 331 l 761 652 l 466 652 l 393 331 "},"Ê":{"x_min":76.375,"x_max":801,"ha":864,"o":"m 293 160 q 292 95 293 121 q 288 52 291 69 l 554 56 q 636 67 599 56 q 698 102 672 77 q 739 168 725 127 q 753 271 753 209 l 801 271 l 792 0 l 76 0 l 76 46 q 128 57 109 47 q 157 83 148 66 q 169 124 167 100 q 172 176 172 147 l 172 216 l 172 817 q 173 871 172 846 q 176 918 174 896 l 76 911 l 76 973 l 744 973 l 751 730 l 705 730 q 691 827 705 789 q 653 886 677 865 q 597 916 629 908 q 526 924 564 924 l 398 922 q 338 909 359 919 q 306 879 317 899 q 295 829 296 859 q 293 755 293 798 l 293 532 l 553 532 l 543 652 l 605 652 l 605 360 l 559 360 q 552 424 559 400 q 530 461 545 448 q 491 478 514 474 q 434 482 468 482 q 415 482 425 482 q 293 478 405 482 l 293 160 m 459 1293 l 462 1293 l 718 1097 l 687 1049 l 456 1172 l 454 1172 l 217 1051 l 190 1095 l 459 1293 "},"Џ":{"x_min":90.296875,"x_max":993.625,"ha":1070,"o":"m 993 927 q 934 912 954 925 q 906 877 914 899 q 898 824 898 855 q 898 756 898 793 l 898 156 q 896 102 898 127 q 893 56 895 77 l 993 62 l 993 0 l 596 0 l 596 -246 l 538 -246 q 533 -150 538 -195 q 516 -71 529 -105 q 483 -18 504 -37 q 427 0 462 0 l 90 0 l 90 47 q 149 61 129 48 q 177 96 169 74 q 185 149 185 118 q 186 217 186 180 l 186 808 q 190 918 186 882 l 90 912 l 90 973 l 403 973 l 403 927 q 343 913 363 926 q 315 877 323 900 q 307 824 307 855 q 307 757 307 793 l 307 55 l 684 59 q 731 69 713 61 q 759 92 749 78 q 772 126 769 106 q 777 171 776 146 l 777 808 q 778 873 777 846 q 782 918 779 900 l 681 912 l 681 973 l 993 973 l 993 927 "},")":{"x_min":25,"x_max":375,"ha":424,"o":"m 234 347 q 183 711 234 543 q 25 1023 132 880 l 59 1055 q 130 980 94 1023 q 202 884 167 937 q 268 769 237 831 q 323 639 300 707 q 361 498 347 571 q 375 347 375 424 q 361 195 375 270 q 323 50 347 120 q 268 -82 300 -19 q 202 -200 237 -146 q 130 -300 167 -255 q 59 -376 94 -344 l 25 -344 q 183 -25 132 -200 q 234 347 234 150 "},"э":{"x_min":63,"x_max":682,"ha":739,"o":"m 144 652 q 239 700 193 683 q 342 717 285 717 q 473 692 411 717 q 581 622 534 668 q 654 510 627 577 q 682 359 682 444 q 670 264 682 311 q 635 174 658 217 q 581 96 613 132 q 509 33 549 59 q 421 -8 469 6 q 319 -23 373 -23 q 214 -8 261 -23 q 133 29 167 5 q 81 84 99 53 q 63 149 63 115 q 79 200 63 178 q 127 222 96 221 q 158 216 145 222 q 177 200 170 210 q 188 179 185 191 q 192 159 192 168 q 187 131 192 146 q 170 103 183 116 q 198 64 179 79 q 238 41 217 50 q 281 31 259 33 q 316 29 302 29 q 404 48 363 29 q 475 105 445 67 q 522 197 505 142 q 540 326 540 253 l 223 326 l 223 382 l 538 382 q 479 582 529 511 q 330 653 428 653 q 248 637 284 653 q 187 596 212 621 q 149 536 162 570 q 132 467 135 503 l 89 467 l 89 710 l 147 710 l 144 652 "},"":{"x_min":63.265625,"x_max":341,"ha":403,"o":"m 108 1178 q 75 1207 85 1193 q 64 1233 66 1221 q 65 1255 62 1246 q 72 1269 68 1264 q 81 1277 74 1271 q 100 1285 88 1283 q 128 1283 112 1288 q 165 1262 145 1279 l 341 1095 l 310 1055 l 108 1178 "},"ș":{"x_min":72.671875,"x_max":587.9375,"ha":643,"o":"m 322 33 q 375 39 349 33 q 424 59 402 45 q 460 93 446 72 q 474 142 474 114 q 457 198 474 175 q 411 240 440 222 q 347 272 383 258 q 273 301 311 286 q 199 334 235 316 q 135 376 163 352 q 89 434 107 401 q 72 515 72 468 q 83 579 72 544 q 121 645 94 614 q 194 696 148 675 q 310 717 240 717 q 350 714 329 717 q 394 704 372 711 q 439 685 417 697 q 483 657 462 674 l 480 710 l 538 710 l 538 467 l 495 467 q 481 538 492 502 q 448 601 470 573 q 394 647 427 629 q 317 665 362 665 q 259 656 284 665 q 216 633 234 648 q 190 599 199 618 q 181 559 181 580 q 199 501 181 525 q 245 458 216 477 q 310 423 273 439 q 384 392 346 408 q 459 358 422 376 q 524 316 496 340 q 570 259 553 291 q 587 182 587 226 q 566 91 587 129 q 511 27 545 52 q 434 -9 477 2 q 346 -22 391 -22 q 222 -3 276 -22 q 134 38 169 14 l 139 -10 l 80 -10 l 72 229 l 115 229 q 135 149 118 185 q 180 87 152 113 q 245 47 209 61 q 322 33 281 33 m 415 -77 q 431 -149 431 -112 q 401 -256 431 -202 q 322 -360 371 -310 l 285 -332 q 318 -260 307 -291 q 330 -204 328 -229 q 329 -153 333 -178 q 319 -99 325 -128 l 415 -77 "},"Å":{"x_min":-7.046875,"x_max":887.953125,"ha":872,"o":"m 178 150 q 169 121 173 134 q 161 97 165 108 q 153 76 157 86 q 144 55 148 66 l 252 60 l 252 0 l -7 0 l -7 45 q 43 58 24 45 q 77 93 63 70 q 101 148 90 116 q 127 219 113 180 l 413 999 l 446 999 l 757 207 q 769 173 763 193 q 781 132 776 153 q 790 90 787 111 q 793 55 793 70 l 887 60 l 887 0 l 569 0 l 569 45 q 626 59 608 46 q 649 92 645 73 q 649 134 654 112 q 637 176 645 157 l 588 307 l 226 298 q 200 220 212 256 q 178 150 188 185 m 347 638 q 291 480 315 549 q 248 359 267 412 l 569 359 l 470 625 l 408 796 l 405 796 l 347 638 m 422 1253 q 370 1224 390 1250 q 350 1153 350 1198 q 372 1072 350 1103 q 432 1042 394 1042 q 460 1048 446 1042 q 483 1067 473 1054 q 500 1096 494 1079 q 506 1136 506 1113 q 484 1223 506 1193 q 427 1253 462 1253 l 422 1253 m 427 1300 q 483 1291 455 1300 q 533 1265 510 1283 q 571 1220 556 1247 q 587 1155 585 1192 q 573 1087 587 1117 q 538 1036 560 1058 q 488 1004 516 1015 q 430 993 460 993 q 371 1001 400 993 q 320 1029 342 1010 q 283 1076 297 1047 q 270 1144 270 1104 q 283 1208 270 1179 q 320 1257 297 1236 q 370 1288 342 1277 q 427 1300 398 1300 "},"ш":{"x_min":60.90625,"x_max":1091.75,"ha":1153,"o":"m 1091 654 q 1043 641 1059 654 q 1018 606 1026 628 q 1010 552 1011 584 q 1009 484 1009 521 l 1009 147 q 1006 98 1007 119 q 1002 53 1006 76 l 1089 57 l 1089 0 l 60 0 l 60 41 q 109 53 92 41 q 133 88 126 66 q 142 142 141 111 q 145 211 143 173 l 145 547 q 145 596 145 575 q 150 642 146 618 l 62 637 l 62 695 l 346 695 l 346 654 q 297 641 314 654 q 272 606 280 628 q 264 552 265 584 q 262 484 262 521 l 262 147 q 261 98 262 119 q 257 53 260 76 l 439 55 q 488 66 471 56 q 512 96 504 76 q 521 144 520 116 q 524 211 522 173 l 524 547 q 524 596 524 575 q 529 642 525 618 l 441 638 l 441 695 l 725 695 l 725 654 q 676 641 693 654 q 651 606 659 628 q 643 552 644 584 q 641 484 641 521 l 641 147 q 640 98 641 119 q 636 53 639 76 l 806 55 q 854 66 837 56 q 878 96 871 76 q 887 144 886 116 q 890 211 888 173 l 890 547 q 890 596 890 575 q 895 642 891 618 l 807 638 l 807 695 l 1091 695 l 1091 654 "},"Я":{"x_min":30.34375,"x_max":858.625,"ha":935,"o":"m 858 927 q 800 913 820 925 q 772 878 780 900 q 763 825 763 856 q 763 756 763 794 l 763 156 q 761 102 763 127 q 758 56 760 77 l 858 62 l 858 0 l 546 0 l 546 46 q 605 60 585 47 q 633 96 625 73 q 641 149 641 118 q 642 217 642 180 l 642 407 l 518 406 q 464 362 487 388 q 425 313 441 337 l 322 154 q 291 107 307 131 q 259 62 275 83 q 226 24 242 41 q 193 0 209 8 l 30 0 l 30 46 q 80 54 59 46 q 120 79 102 62 q 155 120 138 96 q 195 178 173 145 l 303 338 q 327 372 315 357 q 352 398 339 387 q 379 416 365 409 q 410 428 393 423 q 317 463 360 439 q 242 518 274 486 q 193 591 211 550 q 176 679 176 631 q 486 973 176 973 l 858 973 l 858 927 m 642 808 q 643 873 642 846 q 647 917 644 899 q 627 919 643 918 q 593 920 612 920 q 557 920 574 920 q 533 920 540 920 q 443 906 484 920 q 371 863 401 892 q 324 789 341 834 q 307 682 307 744 q 325 594 307 635 q 373 522 343 553 q 445 474 404 492 q 533 457 486 457 q 604 458 574 457 q 642 461 634 459 l 642 808 "},"¸":{"x_min":61.859375,"x_max":343,"ha":406,"o":"m 250 -78 q 317 -102 292 -78 q 343 -170 343 -127 q 329 -220 343 -197 q 293 -260 315 -242 q 242 -289 271 -277 q 183 -311 213 -302 q 123 -325 152 -320 q 70 -335 93 -331 l 61 -288 q 127 -272 97 -281 q 180 -249 158 -262 q 216 -219 203 -235 q 229 -182 229 -202 q 216 -150 229 -159 q 184 -140 203 -140 q 152 -146 169 -140 q 121 -161 135 -151 l 74 -138 l 115 11 l 193 11 l 155 -102 q 200 -84 174 -90 q 250 -78 226 -78 "},"a":{"x_min":48,"x_max":682.609375,"ha":717,"o":"m 471 341 q 404 335 439 339 q 337 321 370 330 q 275 298 304 312 q 224 264 246 283 q 191 218 203 244 q 180 159 178 192 q 190 114 180 133 q 213 82 199 95 q 247 63 228 69 q 288 57 266 57 q 340 62 315 57 q 386 78 364 67 q 429 103 408 89 q 471 138 449 118 l 471 341 m 90 550 q 110 615 90 584 q 167 668 130 645 q 254 704 203 691 q 364 717 304 717 q 536 655 481 717 q 591 459 591 593 l 589 147 q 588 103 589 125 q 584 53 587 81 l 682 58 l 682 0 l 483 0 q 477 41 479 23 q 474 78 475 59 q 372 5 427 32 q 255 -22 317 -22 q 164 -9 203 -22 q 99 25 125 3 q 60 78 73 47 q 48 142 48 108 q 66 221 48 185 q 116 283 85 256 q 190 331 148 311 q 279 364 232 351 q 375 382 326 377 q 471 388 424 388 l 471 474 q 467 544 471 510 q 449 605 463 578 q 406 649 435 633 q 338 666 376 666 q 295 662 315 666 q 255 649 275 658 q 219 626 235 640 q 193 592 203 612 q 207 567 203 581 q 211 540 211 553 q 208 522 211 532 q 197 502 204 511 q 179 487 190 493 q 149 482 168 482 q 105 501 121 482 q 90 550 90 521 "},"Ę":{"x_min":76.375,"x_max":801.140625,"ha":864,"o":"m 758 0 q 695 -31 724 -13 q 643 -73 666 -50 q 608 -123 621 -96 q 596 -183 596 -151 q 603 -222 596 -204 q 621 -252 610 -240 q 648 -271 633 -264 q 681 -278 664 -278 q 729 -267 706 -278 q 771 -240 751 -256 l 795 -265 q 763 -297 781 -281 q 724 -325 745 -312 q 678 -345 702 -338 q 629 -353 654 -353 q 569 -342 596 -353 q 523 -313 542 -331 q 493 -268 503 -294 q 483 -211 483 -242 q 497 -148 483 -178 q 536 -91 511 -118 q 593 -41 560 -64 q 664 0 626 -18 l 76 0 l 76 47 q 135 61 115 48 q 163 96 155 74 q 171 149 171 118 q 172 217 172 180 l 172 816 q 173 870 172 845 q 177 917 174 896 l 76 910 l 76 973 l 745 973 l 751 729 l 706 729 q 691 829 706 791 q 651 889 677 867 q 591 917 626 910 q 517 924 557 924 l 398 921 q 338 910 359 919 q 306 879 316 900 q 294 828 296 859 q 293 755 293 797 l 293 532 l 555 532 l 544 652 l 606 652 l 606 359 l 561 359 q 551 430 561 405 q 522 468 542 456 q 470 481 502 479 q 394 482 438 483 l 293 477 l 293 160 q 291 95 293 122 q 288 51 290 69 l 554 56 q 636 67 599 56 q 699 102 673 77 q 739 168 725 127 q 754 271 754 209 l 801 271 l 793 0 l 758 0 "},"=":{"x_min":102,"x_max":721,"ha":822,"o":"m 102 345 l 721 343 l 721 262 l 102 259 l 102 345 m 102 606 l 721 604 l 721 523 l 102 520 l 102 606 "},"Ћ":{"x_min":30.28125,"x_max":1094.375,"ha":1139,"o":"m 1094 0 l 782 0 l 782 45 q 843 63 823 47 q 870 114 863 79 q 877 206 878 149 q 878 346 877 262 q 865 413 877 381 q 826 469 852 445 q 759 508 799 494 q 660 522 718 522 q 576 512 616 521 q 504 488 536 503 l 504 165 q 500 55 504 90 l 615 60 l 615 0 l 288 0 l 288 45 q 347 60 327 47 q 374 97 366 74 q 383 150 382 119 q 385 216 384 180 l 385 920 l 241 920 q 166 905 197 920 q 117 860 136 890 q 90 786 98 831 q 81 679 81 740 l 30 679 l 38 973 l 848 973 l 856 679 l 804 679 q 794 786 802 740 q 766 862 786 832 q 711 907 745 892 q 623 922 676 922 l 505 922 l 505 554 q 600 582 547 571 q 712 593 653 593 q 841 574 787 593 q 930 520 895 556 q 982 433 965 485 q 999 315 999 382 q 998 198 999 243 q 997 125 998 153 q 996 82 997 97 q 994 55 995 66 l 1094 61 l 1094 0 "},"˚":{"x_min":85,"x_max":357,"ha":442,"o":"m 219 1014 q 177 992 196 1014 q 158 930 158 971 q 162 892 158 910 q 175 862 167 875 q 196 841 184 849 q 224 834 208 834 q 266 856 249 834 q 283 916 283 878 q 267 987 283 961 q 219 1014 250 1014 m 219 1057 q 268 1049 244 1057 q 311 1026 292 1042 q 344 985 331 1010 q 357 931 357 959 q 345 871 357 896 q 315 829 334 847 q 272 800 296 810 q 222 791 248 791 q 172 798 196 791 q 128 822 147 806 q 96 863 108 839 q 85 923 85 888 q 96 977 85 953 q 127 1019 108 1002 q 170 1047 146 1037 q 219 1057 194 1057 "},"ú":{"x_min":35.796875,"x_max":788.28125,"ha":829,"o":"m 576 512 q 577 570 576 546 q 582 618 578 594 l 483 614 l 483 671 l 525 671 q 576 674 555 671 q 612 682 597 677 q 637 694 627 687 q 655 708 647 700 l 695 708 l 694 183 q 693 155 694 172 q 692 121 693 139 q 690 85 691 103 q 688 53 689 67 l 788 58 l 788 0 l 589 0 q 583 43 586 23 q 580 83 581 63 q 531 42 558 62 q 476 9 505 23 q 415 -13 446 -5 q 353 -22 384 -22 q 254 -6 296 -22 q 182 43 211 8 q 140 137 154 79 q 126 281 126 194 l 126 527 q 126 571 126 549 q 131 618 127 594 l 35 614 l 35 671 l 79 671 q 129 674 108 671 q 165 682 150 677 q 190 694 180 687 q 208 708 199 700 l 248 708 l 248 284 q 256 180 248 224 q 282 106 264 135 q 328 62 300 76 q 398 49 357 49 q 450 57 424 49 q 498 81 475 66 q 541 115 521 96 q 576 156 561 134 l 576 213 l 576 512 m 394 806 l 356 837 l 472 1025 q 503 1055 487 1047 q 529 1063 518 1063 q 551 1058 540 1063 q 568 1045 561 1054 q 577 1029 575 1036 q 580 1012 580 1021 q 577 998 580 1005 q 573 987 575 991 q 550 953 567 971 l 394 806 "},"д":{"x_min":30,"x_max":783,"ha":820,"o":"m 730 -246 q 724 -144 730 -190 q 706 -66 719 -99 q 671 -17 693 -34 q 614 0 649 0 l 199 0 q 142 -17 165 0 q 107 -66 120 -34 q 88 -144 93 -98 q 83 -246 83 -189 l 30 -246 l 30 52 l 86 52 q 117 55 103 52 q 142 68 131 58 q 165 95 154 77 q 185 140 175 112 q 213 232 201 181 q 233 344 225 282 q 247 479 242 405 q 255 641 252 553 l 132 634 l 132 695 l 746 695 l 746 654 q 697 641 714 654 q 673 606 680 628 q 665 552 666 584 q 664 484 664 521 l 664 147 q 661 98 662 119 q 657 53 660 76 l 783 58 l 783 -246 l 730 -246 m 460 52 q 509 64 492 52 q 534 99 526 77 q 543 153 542 121 q 545 221 545 184 l 545 547 q 545 596 545 575 q 550 642 546 618 l 405 642 q 369 635 383 642 q 346 616 354 629 q 332 587 337 604 q 324 548 327 570 q 311 415 318 479 q 294 297 303 351 q 275 202 285 244 q 257 134 266 160 q 212 52 238 81 l 460 52 "},"¯":{"x_min":62,"x_max":430,"ha":493,"o":"m 62 973 l 430 973 l 430 895 l 62 889 l 62 973 "},"Z":{"x_min":60.046875,"x_max":781,"ha":847,"o":"m 60 64 q 148 188 99 119 q 259 347 198 258 q 394 548 321 437 q 553 796 466 659 q 594 858 572 827 q 641 921 616 890 l 287 915 q 216 899 246 913 q 165 857 185 885 q 134 786 144 829 q 124 685 124 744 l 77 685 l 85 973 l 774 973 l 774 923 l 275 167 q 247 127 260 144 q 223 97 235 110 q 202 73 212 83 q 180 52 191 62 l 518 57 q 603 71 563 58 q 672 113 643 85 q 717 184 700 141 q 734 285 734 226 l 781 285 l 772 0 l 60 0 l 60 64 "},"u":{"x_min":35.796875,"x_max":788.28125,"ha":829,"o":"m 576 512 q 577 570 576 546 q 582 618 578 594 l 483 614 l 483 671 l 525 671 q 576 674 555 671 q 612 682 597 677 q 637 694 627 687 q 655 708 647 700 l 695 708 l 694 183 q 693 155 694 172 q 692 121 693 139 q 690 85 691 103 q 688 53 689 67 l 788 58 l 788 0 l 589 0 q 583 43 586 23 q 580 83 581 63 q 531 42 558 62 q 476 9 505 23 q 415 -13 446 -5 q 353 -22 384 -22 q 254 -6 296 -22 q 182 43 211 8 q 140 137 154 79 q 126 281 126 194 l 126 527 q 126 571 126 549 q 131 618 127 594 l 35 614 l 35 671 l 79 671 q 129 674 108 671 q 165 682 150 677 q 190 694 180 687 q 208 708 199 700 l 248 708 l 248 284 q 256 180 248 224 q 282 106 264 135 q 328 62 300 76 q 398 49 357 49 q 450 57 424 49 q 498 81 475 66 q 541 115 521 96 q 576 156 561 134 l 576 213 l 576 512 "},"k":{"x_min":35.734375,"x_max":736,"ha":746,"o":"m 460 695 l 713 695 l 713 653 q 646 633 678 649 q 585 595 613 617 q 533 550 557 573 q 491 507 510 526 l 383 393 q 430 361 410 380 q 469 318 449 342 l 567 192 q 581 173 571 186 q 604 142 591 159 q 634 108 617 126 q 667 75 650 90 q 702 50 685 60 q 736 41 719 41 l 736 0 l 609 0 q 572 11 590 0 q 536 40 554 22 q 500 82 518 58 q 463 130 482 105 q 370 259 408 205 q 305 339 332 313 l 248 337 l 248 146 q 247 97 248 119 q 242 53 246 76 l 331 57 l 331 0 l 47 0 l 47 41 q 96 54 79 41 q 120 88 113 66 q 128 142 127 111 q 130 868 130 173 q 130 910 130 889 q 134 958 130 930 l 35 953 l 35 1011 q 111 1014 81 1011 q 159 1022 140 1017 q 189 1034 178 1028 q 208 1049 199 1041 l 248 1049 l 248 392 l 303 392 l 473 569 q 516 612 496 593 q 555 643 535 630 l 460 638 l 460 695 "},"Ù":{"x_min":42.734375,"x_max":1002.1875,"ha":1044,"o":"m 903 434 q 883 260 902 343 q 820 115 863 178 q 705 15 776 52 q 529 -22 634 -22 q 343 7 418 -22 q 222 97 267 36 q 156 251 176 157 q 137 474 137 345 l 137 756 q 137 797 137 774 q 138 841 137 819 q 140 884 139 864 q 142 918 141 904 l 42 913 l 42 973 l 354 973 l 354 927 q 300 915 319 927 q 271 886 280 903 q 260 850 262 869 q 259 817 259 831 l 259 467 q 263 364 259 415 q 278 268 267 314 q 309 184 289 223 q 361 117 329 145 q 438 72 393 88 q 546 57 484 57 q 675 84 621 57 q 764 160 729 111 q 816 277 799 209 q 834 427 832 345 l 839 817 q 843 918 839 875 l 743 911 l 743 973 l 1002 973 l 1002 927 q 942 912 962 926 q 914 877 922 899 q 906 824 906 854 q 905 756 905 793 l 903 434 m 389 1178 q 356 1207 366 1193 q 345 1233 347 1221 q 346 1255 343 1246 q 353 1269 349 1264 q 362 1277 355 1271 q 381 1285 369 1283 q 409 1283 393 1288 q 446 1262 426 1279 l 622 1095 l 591 1055 l 389 1178 "},"З":{"x_min":40.75,"x_max":796,"ha":850,"o":"m 516 515 q 638 492 585 511 q 726 442 691 473 q 778 369 761 410 q 796 278 796 327 q 765 148 796 203 q 683 56 734 93 q 567 1 632 19 q 433 -16 502 -16 q 323 -4 377 -16 q 218 31 268 7 q 123 92 168 55 q 40 180 78 129 l 76 210 q 143 140 105 170 q 223 90 181 111 q 312 60 266 70 q 403 50 358 50 q 501 63 455 50 q 584 106 548 77 q 640 178 619 135 q 662 280 662 222 q 597 426 662 381 q 404 476 533 472 l 294 474 l 294 536 l 408 536 q 508 555 468 537 q 572 603 548 574 q 607 670 597 633 q 618 748 618 708 q 604 836 618 800 q 567 895 590 872 q 512 928 544 917 q 445 939 480 939 q 343 920 387 939 q 267 867 299 902 q 211 780 234 831 q 173 663 188 729 l 122 663 l 122 985 l 198 985 l 191 910 q 250 948 221 932 q 310 974 279 963 q 375 990 341 985 q 449 995 409 995 q 571 978 516 995 q 665 930 626 961 q 725 856 704 899 q 746 757 746 812 q 730 677 745 715 q 687 606 716 638 q 616 551 659 574 q 516 517 573 527 l 516 515 m 421 491 l 425 493 l 419 502 l 421 491 "},"Ů":{"x_min":43.40625,"x_max":1002.859375,"ha":1044,"o":"m 903 434 q 883 260 903 343 q 820 115 864 178 q 705 15 777 52 q 530 -22 634 -22 q 343 7 419 -22 q 222 97 268 36 q 157 251 177 157 q 137 474 137 345 l 137 756 q 138 797 137 774 q 139 841 138 819 q 141 884 140 864 q 143 918 141 904 l 43 913 l 43 973 l 355 973 l 355 927 q 300 915 320 927 q 272 886 281 903 q 261 850 263 869 q 259 817 259 831 l 259 467 q 263 364 259 415 q 279 268 267 314 q 310 184 290 223 q 362 117 330 145 q 439 72 393 88 q 547 57 484 57 q 676 84 622 57 q 765 160 730 111 q 816 277 800 209 q 834 427 833 345 l 840 817 q 844 918 840 875 l 744 911 l 744 973 l 1002 973 l 1002 927 q 943 912 963 926 q 915 877 923 899 q 906 824 907 854 q 906 756 906 793 l 903 434 m 538 1292 q 496 1270 515 1292 q 477 1208 477 1249 q 481 1171 477 1188 q 494 1140 485 1153 q 515 1119 502 1127 q 542 1112 527 1112 q 585 1134 568 1112 q 602 1194 602 1156 q 585 1265 602 1239 q 538 1292 569 1292 m 538 1335 q 587 1327 563 1335 q 630 1304 611 1320 q 662 1263 649 1288 q 675 1209 675 1238 q 664 1149 675 1174 q 634 1107 653 1125 q 591 1078 615 1088 q 541 1069 567 1069 q 490 1076 515 1069 q 446 1100 466 1084 q 415 1142 427 1117 q 403 1201 403 1166 q 415 1255 403 1231 q 446 1297 427 1280 q 489 1325 465 1315 q 538 1335 513 1335 "},"¢":{"x_min":50,"x_max":684.59375,"ha":737,"o":"m 561 592 q 533 631 551 616 q 493 654 515 646 q 451 664 472 662 q 415 667 430 667 q 326 647 367 667 q 256 590 285 628 q 209 496 226 552 q 191 369 191 441 q 209 241 191 300 q 257 139 226 182 q 332 73 288 97 q 430 49 376 49 q 494 58 462 49 q 555 84 526 67 q 607 122 583 100 q 648 169 631 144 l 684 141 q 629 74 660 103 q 564 25 598 45 q 495 -6 530 5 q 427 -22 460 -17 l 426 -185 l 345 -185 l 345 -22 q 229 13 282 -14 q 135 86 175 41 q 72 195 95 132 q 50 335 50 258 q 71 462 50 399 q 131 578 92 525 q 225 667 170 630 q 347 717 280 704 l 347 864 l 437 864 l 435 717 q 531 698 488 713 q 605 660 574 683 q 652 608 635 637 q 669 547 669 578 q 664 519 669 532 q 652 495 660 505 q 632 479 643 485 q 604 474 620 474 q 574 480 586 474 q 554 495 561 486 q 543 515 546 505 q 540 536 540 526 q 544 564 540 549 q 561 592 548 579 "},"Ş":{"x_min":79.859375,"x_max":727,"ha":788,"o":"m 622 677 q 602 775 618 728 q 556 858 586 822 q 480 916 525 894 q 374 939 435 939 q 298 925 331 939 q 242 890 264 912 q 208 838 220 867 q 197 776 197 808 q 219 693 197 728 q 279 631 242 658 q 364 582 317 604 q 462 537 412 559 q 559 488 511 514 q 644 427 606 462 q 704 348 681 393 q 727 241 727 302 q 709 143 727 188 q 656 64 691 98 q 572 8 622 30 q 456 -20 521 -13 l 428 -103 q 474 -85 448 -91 q 523 -78 500 -78 q 591 -103 566 -78 q 617 -170 617 -128 q 603 -220 617 -198 q 567 -260 589 -243 q 516 -290 545 -277 q 457 -311 487 -302 q 397 -326 427 -320 q 344 -335 368 -331 l 336 -288 q 401 -272 371 -282 q 454 -249 432 -262 q 490 -219 477 -236 q 503 -182 503 -203 q 491 -152 503 -161 q 464 -141 480 -142 q 429 -145 447 -140 q 395 -161 410 -151 l 348 -138 l 379 -22 q 320 -15 350 -20 q 260 -1 290 -10 q 204 19 231 7 q 153 48 176 32 l 160 -11 l 88 -11 l 79 284 l 133 284 q 160 176 137 223 q 219 99 182 130 q 303 51 255 67 q 407 36 352 36 q 484 47 448 36 q 548 80 520 58 q 592 135 576 102 q 608 209 608 167 q 585 297 608 260 q 526 361 563 333 q 441 412 488 390 q 345 458 394 435 q 249 506 296 480 q 164 565 202 531 q 105 643 127 598 q 83 750 83 688 q 88 801 83 773 q 106 855 93 828 q 139 907 119 882 q 191 952 160 933 q 265 983 223 971 q 365 995 308 995 q 423 991 392 995 q 485 980 453 988 q 548 958 516 972 q 608 923 579 944 l 603 983 l 673 983 l 673 677 l 622 677 "},"é":{"x_min":58,"x_max":698.03125,"ha":753,"o":"m 409 662 q 274 614 327 662 q 205 460 222 566 l 559 460 q 550 532 559 496 q 524 597 542 568 q 478 644 506 626 q 409 662 449 662 m 689 410 l 201 402 q 213 256 200 321 q 253 145 226 191 q 325 74 281 99 q 430 49 369 49 q 496 57 462 49 q 562 82 530 66 q 620 118 593 97 q 664 165 646 140 l 698 137 q 631 63 669 93 q 553 14 594 33 q 472 -13 513 -5 q 397 -22 432 -22 q 263 3 325 -22 q 155 77 201 29 q 84 193 110 125 q 58 346 58 261 q 83 486 58 419 q 154 604 108 552 q 264 686 200 655 q 407 717 329 717 q 516 698 465 717 q 606 641 567 679 q 667 545 645 603 q 689 410 689 487 m 365 806 l 327 837 l 443 1025 q 474 1055 458 1047 q 500 1063 489 1063 q 522 1058 511 1063 q 539 1045 532 1054 q 548 1029 546 1036 q 551 1012 551 1021 q 548 998 551 1005 q 544 987 546 991 q 521 953 538 971 l 365 806 "},"B":{"x_min":76.375,"x_max":809.28125,"ha":864,"o":"m 172 807 q 173 872 172 845 q 176 917 174 899 l 76 910 l 76 972 q 229 974 153 973 q 390 975 306 975 q 534 960 471 975 q 642 917 598 946 q 708 845 686 888 q 730 737 730 802 q 715 669 730 703 q 673 606 701 635 q 601 554 644 577 q 501 522 558 532 l 501 519 q 635 501 578 519 q 732 449 693 482 q 789 371 770 416 q 809 272 809 325 q 784 157 809 208 q 716 72 759 107 q 612 18 672 37 q 481 0 552 0 l 76 0 l 76 46 q 135 60 115 46 q 163 96 155 73 q 171 152 171 120 q 172 223 172 184 l 172 807 m 397 925 q 342 918 363 925 q 311 895 322 911 q 296 853 300 879 q 293 790 293 828 l 293 532 l 394 534 q 494 554 454 536 q 559 602 534 572 q 593 666 583 631 q 604 744 604 702 q 583 835 604 797 q 533 892 563 873 q 467 917 503 910 q 397 925 431 925 m 288 55 q 327 53 304 54 q 371 53 349 53 q 411 53 393 53 q 435 53 428 53 q 533 66 489 53 q 608 106 577 80 q 657 172 640 132 q 675 263 675 211 q 655 369 675 327 q 602 436 635 411 q 526 471 569 461 q 435 482 483 482 q 360 481 394 482 q 293 478 326 480 l 293 164 q 292 99 293 126 q 288 55 291 73 "},"…":{"x_min":89,"x_max":1001.09375,"ha":1092,"o":"m 251 66 q 244 32 251 48 q 226 3 237 15 q 200 -15 215 -8 q 169 -22 185 -22 q 138 -15 153 -22 q 113 3 124 -8 q 95 32 101 15 q 89 66 89 48 q 95 102 89 85 q 113 131 102 119 q 139 150 124 143 q 171 157 154 157 q 202 150 188 157 q 228 131 217 143 q 244 102 238 119 q 251 66 251 85 m 626 66 q 619 32 626 48 q 601 3 612 15 q 575 -15 590 -8 q 544 -22 560 -22 q 513 -15 528 -22 q 488 3 499 -8 q 470 32 476 15 q 464 66 464 48 q 470 102 464 85 q 488 131 477 119 q 514 150 499 143 q 546 157 529 157 q 577 150 563 157 q 603 131 592 143 q 619 102 613 119 q 626 66 626 85 m 1001 66 q 994 32 1001 48 q 976 3 987 15 q 950 -15 965 -8 q 919 -22 935 -22 q 888 -15 903 -22 q 863 3 874 -8 q 845 32 851 15 q 839 66 839 48 q 845 102 839 85 q 863 131 852 119 q 889 150 874 143 q 921 157 904 157 q 952 150 938 157 q 978 131 967 143 q 994 102 988 119 q 1001 66 1001 85 "},"В":{"x_min":77.046875,"x_max":809.953125,"ha":864,"o":"m 172 807 q 173 872 172 845 q 177 917 174 899 l 77 910 l 77 972 q 230 974 153 973 q 391 975 306 975 q 535 960 471 975 q 642 917 599 946 q 709 845 686 888 q 731 737 731 802 q 716 669 730 703 q 673 606 702 635 q 602 554 645 577 q 502 522 559 532 l 502 519 q 636 501 578 519 q 732 449 694 482 q 790 371 771 416 q 809 272 809 325 q 785 157 809 208 q 716 72 760 107 q 613 18 673 37 q 482 0 553 0 l 77 0 l 77 46 q 136 60 116 46 q 163 96 155 73 q 172 152 172 120 q 172 223 172 184 l 172 807 m 397 925 q 343 918 363 925 q 312 895 323 911 q 297 853 300 879 q 294 790 294 828 l 294 532 l 395 534 q 495 554 454 536 q 559 602 535 572 q 594 666 584 631 q 604 744 604 702 q 584 835 604 797 q 534 892 563 873 q 468 917 504 910 q 397 925 432 925 m 289 55 q 327 53 305 54 q 372 53 350 53 q 412 53 394 53 q 436 53 429 53 q 534 66 489 53 q 609 106 578 80 q 658 172 641 132 q 675 263 675 211 q 656 369 675 327 q 603 436 636 411 q 527 471 570 461 q 436 482 483 482 q 361 481 395 482 q 294 478 327 480 l 294 164 q 293 99 294 126 q 289 55 292 73 "},"І":{"x_min":77.046875,"x_max":389.703125,"ha":465,"o":"m 172 817 q 173 871 172 845 q 177 918 174 896 l 77 911 l 77 973 l 389 973 l 389 927 q 330 912 350 926 q 302 877 311 899 q 294 824 294 854 q 294 756 294 793 l 294 165 q 293 99 294 127 q 289 55 292 72 l 389 60 l 389 0 l 77 0 l 77 45 q 136 59 116 46 q 163 95 155 72 q 172 148 172 117 q 172 216 172 179 l 172 817 "},"ē":{"x_min":58,"x_max":698.03125,"ha":753,"o":"m 409 662 q 274 614 327 662 q 205 460 222 566 l 559 460 q 550 532 559 496 q 524 597 542 568 q 478 644 506 626 q 409 662 449 662 m 689 410 l 201 402 q 213 256 200 321 q 253 145 226 191 q 325 74 281 99 q 430 49 369 49 q 496 57 462 49 q 562 82 530 66 q 620 118 593 97 q 664 165 646 140 l 698 137 q 631 63 669 93 q 553 14 594 33 q 472 -13 513 -5 q 397 -22 432 -22 q 263 3 325 -22 q 155 77 201 29 q 84 193 110 125 q 58 346 58 261 q 83 486 58 419 q 154 604 108 552 q 264 686 200 655 q 407 717 329 717 q 516 698 465 717 q 606 641 567 679 q 667 545 645 603 q 689 410 689 487 m 204 973 l 572 973 l 572 895 l 204 889 l 204 973 "},"H":{"x_min":76.375,"x_max":1007.34375,"ha":1083,"o":"m 791 470 l 293 464 l 293 165 q 292 99 293 127 q 288 55 291 72 l 389 60 l 389 0 l 76 0 l 76 45 q 135 59 115 46 q 163 95 155 72 q 171 148 171 117 q 172 216 172 179 l 172 817 q 173 871 172 845 q 176 918 174 896 l 76 911 l 76 973 l 389 973 l 389 927 q 330 912 349 926 q 302 877 310 899 q 293 824 294 854 q 293 756 293 793 l 293 525 l 791 525 l 791 817 q 795 918 791 875 l 694 911 l 694 973 l 1007 973 l 1007 927 q 948 912 968 926 q 920 877 928 899 q 912 824 912 854 q 911 756 911 793 l 911 165 q 907 55 911 90 l 1007 60 l 1007 0 l 694 0 l 694 45 q 754 59 734 46 q 782 95 774 72 q 790 148 790 117 q 791 216 791 179 l 791 470 "},"î":{"x_min":0,"x_max":389,"ha":390,"o":"m 199 1080 l 202 1080 l 389 854 l 351 809 l 195 953 l 193 953 l 34 819 l 0 859 l 199 1080 m 144 527 q 145 569 144 548 q 149 617 146 589 l 51 612 l 51 670 q 126 673 96 670 q 175 681 156 676 q 204 693 194 687 q 223 708 215 700 l 263 708 l 263 147 q 262 98 263 119 q 257 53 262 76 l 345 57 l 345 0 l 61 0 l 61 41 q 110 54 93 41 q 134 88 127 66 q 142 142 141 111 q 144 210 144 173 l 144 527 "},"−":{"x_min":102,"x_max":721,"ha":822,"o":"m 102 444 l 721 442 l 721 357 l 102 354 l 102 444 "},"≠":{"x_min":78,"x_max":697,"ha":777,"o":"m 78 596 l 465 594 l 580 766 l 644 722 l 557 594 l 697 594 l 697 513 l 503 511 l 383 334 l 697 333 l 697 252 l 327 249 l 197 55 l 136 100 l 236 249 l 78 249 l 78 335 l 292 334 l 410 511 l 78 510 l 78 596 "},"¥":{"x_min":38.8125,"x_max":941.53125,"ha":979,"o":"m 263 440 l 400 440 l 200 757 q 147 850 164 813 q 124 915 130 888 l 38 911 l 38 973 l 396 973 l 396 927 q 313 910 338 927 q 288 866 288 894 q 297 824 288 847 q 323 775 306 802 q 372 697 349 734 q 417 624 394 660 q 466 550 441 587 q 521 472 491 513 l 523 472 q 570 563 548 520 q 614 646 592 606 q 657 728 636 687 q 701 810 679 768 q 713 834 706 820 q 729 862 720 847 q 747 891 738 877 q 767 916 757 905 l 658 911 l 658 973 l 941 973 l 941 927 q 879 913 906 925 q 828 880 852 902 q 783 825 805 857 q 737 748 761 792 l 573 437 l 742 437 l 742 378 l 561 377 l 560 288 l 742 287 l 742 227 l 560 226 q 561 165 560 165 q 556 55 561 90 l 672 60 l 672 0 l 346 0 l 346 45 q 397 56 378 46 q 426 83 416 66 q 437 123 435 99 q 440 174 440 146 l 440 225 l 263 225 l 263 289 l 441 289 l 441 376 l 263 376 l 263 440 "},"U":{"x_min":42.734375,"x_max":1002.1875,"ha":1044,"o":"m 903 434 q 883 260 902 343 q 820 115 863 178 q 705 15 776 52 q 529 -22 634 -22 q 343 7 418 -22 q 222 97 267 36 q 156 251 176 157 q 137 474 137 345 l 137 756 q 137 797 137 774 q 138 841 137 819 q 140 884 139 864 q 142 918 141 904 l 42 913 l 42 973 l 354 973 l 354 927 q 300 915 319 927 q 271 886 280 903 q 260 850 262 869 q 259 817 259 831 l 259 467 q 263 364 259 415 q 278 268 267 314 q 309 184 289 223 q 361 117 329 145 q 438 72 393 88 q 546 57 484 57 q 675 84 621 57 q 764 160 729 111 q 816 277 799 209 q 834 427 832 345 l 839 817 q 843 918 839 875 l 743 911 l 743 973 l 1002 973 l 1002 927 q 942 912 962 926 q 914 877 922 899 q 906 824 906 854 q 905 756 905 793 l 903 434 "},"Ñ":{"x_min":79.453125,"x_max":999.046875,"ha":1060,"o":"m 903 -22 l 836 -22 l 233 788 l 231 788 l 236 192 q 235 122 236 156 q 233 55 235 88 l 333 60 l 333 0 l 79 0 l 79 45 q 129 56 111 45 q 157 84 147 67 q 168 119 166 100 q 171 154 171 138 l 172 918 l 79 911 l 79 973 l 244 973 l 836 181 l 837 181 l 839 817 q 843 918 839 875 l 743 911 l 743 973 l 999 973 l 999 927 q 940 912 959 926 q 913 877 921 899 q 905 824 905 854 q 906 756 906 793 l 903 -22 m 419 1177 q 366 1155 389 1177 q 317 1094 343 1133 l 270 1121 q 300 1177 282 1151 q 338 1221 318 1203 q 382 1252 359 1240 q 427 1264 404 1263 q 476 1256 454 1264 q 516 1238 498 1249 q 550 1215 534 1228 q 582 1191 566 1202 q 613 1173 597 1180 q 648 1166 629 1166 q 683 1173 667 1166 q 713 1193 699 1181 q 739 1222 727 1205 q 761 1256 751 1238 l 806 1234 q 772 1162 791 1192 q 731 1114 753 1132 q 686 1087 709 1095 q 640 1079 663 1079 q 591 1086 613 1079 q 550 1104 569 1093 q 514 1128 531 1115 q 482 1152 498 1141 q 451 1170 466 1162 q 419 1177 436 1177 "},"F":{"x_min":76.375,"x_max":728,"ha":761,"o":"m 293 164 q 292 99 293 126 q 288 55 291 72 l 430 60 l 430 0 l 76 0 l 76 45 q 135 59 115 46 q 163 95 155 72 q 171 148 171 117 q 172 216 172 179 l 172 817 q 173 871 172 845 q 176 918 174 896 l 76 911 l 76 973 l 720 973 l 728 730 l 681 730 q 666 829 681 791 q 625 888 651 867 q 564 917 599 910 q 490 923 529 924 l 389 921 q 330 906 350 919 q 302 870 310 893 q 293 816 294 847 q 293 750 293 786 l 293 510 l 534 510 l 524 630 l 586 630 l 586 338 l 540 338 q 533 402 540 378 q 511 439 526 426 q 472 456 495 452 q 415 460 449 460 q 396 460 406 460 q 293 456 386 460 l 293 164 "},"ā":{"x_min":48,"x_max":682.609375,"ha":717,"o":"m 471 341 q 404 335 439 339 q 337 321 370 330 q 275 298 304 312 q 224 264 246 283 q 191 218 203 244 q 180 159 178 192 q 190 114 180 133 q 213 82 199 95 q 247 63 228 69 q 288 57 266 57 q 340 62 315 57 q 386 78 364 67 q 429 103 408 89 q 471 138 449 118 l 471 341 m 90 550 q 110 615 90 584 q 167 668 130 645 q 254 704 203 691 q 364 717 304 717 q 536 655 481 717 q 591 459 591 593 l 589 147 q 588 103 589 125 q 584 53 587 81 l 682 58 l 682 0 l 483 0 q 477 41 479 23 q 474 78 475 59 q 372 5 427 32 q 255 -22 317 -22 q 164 -9 203 -22 q 99 25 125 3 q 60 78 73 47 q 48 142 48 108 q 66 221 48 185 q 116 283 85 256 q 190 331 148 311 q 279 364 232 351 q 375 382 326 377 q 471 388 424 388 l 471 474 q 467 544 471 510 q 449 605 463 578 q 406 649 435 633 q 338 666 376 666 q 295 662 315 666 q 255 649 275 658 q 219 626 235 640 q 193 592 203 612 q 207 567 203 581 q 211 540 211 553 q 208 522 211 532 q 197 502 204 511 q 179 487 190 493 q 149 482 168 482 q 105 501 121 482 q 90 550 90 521 m 163 973 l 531 973 l 531 895 l 163 889 l 163 973 "},"ă":{"x_min":48.671875,"x_max":683.28125,"ha":717,"o":"m 471 341 q 405 335 439 339 q 338 321 371 330 q 276 298 305 312 q 225 264 247 283 q 191 218 203 244 q 180 159 179 192 q 190 114 181 133 q 214 82 199 95 q 248 63 229 69 q 288 57 267 57 q 340 62 316 57 q 387 78 365 67 q 429 103 409 89 q 471 138 450 118 l 471 341 m 90 550 q 111 615 90 584 q 167 668 131 645 q 255 704 204 691 q 365 717 305 717 q 537 655 481 717 q 591 459 592 593 l 590 147 q 589 103 590 125 q 584 53 588 81 l 683 58 l 683 0 l 484 0 q 478 41 480 23 q 475 78 476 59 q 373 5 428 32 q 256 -22 317 -22 q 164 -9 203 -22 q 100 25 125 3 q 61 78 74 47 q 48 142 48 108 q 67 221 48 185 q 117 283 85 256 q 191 331 149 311 q 280 364 233 351 q 376 382 327 377 q 472 388 425 388 l 472 474 q 468 544 472 510 q 450 605 464 578 q 406 649 436 633 q 338 666 377 666 q 296 662 316 666 q 256 649 275 658 q 220 626 236 640 q 194 592 204 612 q 208 567 204 581 q 212 540 212 553 q 208 522 212 532 q 198 502 205 511 q 179 487 191 493 q 149 482 168 482 q 106 501 122 482 q 90 550 90 521 m 346 839 q 291 848 319 839 q 238 878 264 858 q 192 928 213 898 q 158 1000 171 959 l 199 1021 q 225 984 209 1002 q 261 953 241 966 q 304 932 281 940 q 350 924 327 924 q 397 932 374 924 q 439 954 420 940 q 474 986 459 968 q 500 1023 490 1004 l 537 1007 q 472 892 511 934 q 346 839 420 839 "},"*":{"x_min":54.359375,"x_max":663.984375,"ha":722,"o":"m 379 706 q 459 750 415 729 q 546 793 503 772 q 579 805 561 801 q 613 809 596 810 q 642 801 629 809 q 660 775 655 793 q 663 756 663 765 q 660 739 663 748 q 644 721 656 731 q 615 705 632 711 q 581 695 598 699 q 535 686 559 691 q 486 677 510 681 q 437 671 461 674 q 392 667 413 668 q 461 605 426 640 q 529 536 496 571 q 551 508 541 522 q 563 480 560 493 q 567 459 567 468 q 563 439 567 449 q 546 419 559 429 q 517 410 531 409 q 490 419 503 411 q 466 441 478 427 q 446 470 455 455 q 423 512 436 490 q 400 557 411 535 q 378 601 388 579 q 360 643 368 624 q 342 601 352 624 q 320 557 332 579 q 297 512 309 535 q 274 470 285 490 q 255 441 266 455 q 232 419 244 427 q 204 410 219 411 q 174 419 190 409 q 158 439 162 430 q 154 459 154 448 q 158 480 154 468 q 171 508 161 493 q 191 536 180 524 q 258 606 223 571 q 327 667 293 641 q 281 671 305 668 q 233 677 257 674 q 183 686 208 681 q 137 695 159 691 q 103 704 120 698 q 74 720 86 710 q 58 740 62 730 q 54 757 54 750 q 57 775 54 766 q 76 802 63 794 q 105 810 89 809 q 138 805 121 810 q 171 793 156 801 q 259 751 214 773 q 339 706 304 729 q 320 796 327 746 q 308 893 313 847 q 306 928 305 910 q 313 961 307 946 q 330 985 318 976 q 360 995 341 995 q 391 985 379 995 q 407 961 402 976 q 412 928 412 946 q 411 893 413 910 q 398 796 405 847 q 379 706 391 746 "},"†":{"x_min":36,"x_max":675,"ha":711,"o":"m 336 -376 q 325 -182 330 -279 q 315 10 320 -85 q 301 201 309 107 q 281 388 294 296 q 311 483 297 426 q 341 617 325 539 q 239 596 290 606 q 137 580 188 586 q 107 578 122 578 q 80 580 93 578 q 58 588 67 582 q 42 603 48 593 q 36 628 36 613 q 41 653 36 643 q 57 668 47 663 q 80 676 67 674 q 106 679 92 679 q 137 676 122 679 q 239 660 188 670 q 342 639 291 650 q 329 709 336 670 q 315 789 322 748 q 302 873 308 831 q 294 938 296 915 q 292 965 292 962 q 295 996 292 981 q 306 1025 298 1012 q 326 1046 314 1038 q 357 1055 338 1055 q 386 1047 374 1055 q 405 1026 397 1039 q 415 998 412 1013 q 419 966 419 982 q 416 939 419 963 q 408 873 414 915 q 395 789 402 831 q 381 709 388 748 q 368 639 374 670 q 471 660 419 650 q 573 676 522 670 q 604 679 588 679 q 630 676 618 679 q 653 668 643 674 q 669 653 663 663 q 675 628 675 643 q 668 603 675 613 q 652 588 662 593 q 630 580 643 582 q 603 578 617 578 q 573 580 587 578 q 471 596 522 586 q 368 616 420 606 q 399 482 385 538 q 429 388 413 426 q 409 201 416 296 q 395 10 401 107 q 385 -182 390 -85 q 374 -376 380 -279 l 336 -376 "},"Ќ":{"x_min":77.046875,"x_max":942.671875,"ha":949,"o":"m 172 817 q 173 871 172 845 q 177 918 174 896 l 77 911 l 77 973 l 389 973 l 389 927 q 330 912 350 926 q 302 877 311 899 q 294 824 294 854 q 294 756 294 793 l 294 528 l 397 528 l 571 802 q 591 831 580 816 q 615 862 602 847 q 642 893 627 878 q 670 919 656 907 l 585 916 l 585 973 l 884 973 l 884 927 q 804 915 840 924 q 735 887 768 907 q 670 832 703 867 q 603 740 638 797 l 467 522 q 503 496 487 510 q 532 467 518 482 q 557 436 545 452 q 583 404 570 420 l 738 197 q 806 113 777 144 q 857 68 834 83 q 900 49 880 52 q 942 45 920 45 l 942 0 l 773 0 q 747 11 762 0 q 713 41 731 22 q 673 85 694 60 q 632 136 653 110 l 466 361 q 413 427 439 396 q 361 474 387 458 l 294 473 l 294 165 q 293 99 294 127 q 289 55 292 72 l 389 60 l 389 0 l 77 0 l 77 45 q 136 59 116 46 q 163 95 155 72 q 172 148 172 117 q 172 216 172 179 l 172 817 m 436 1055 l 405 1095 l 580 1262 q 617 1283 600 1279 q 646 1285 634 1288 q 665 1277 657 1283 q 674 1269 672 1271 q 681 1255 677 1264 q 682 1233 684 1246 q 670 1207 680 1221 q 637 1178 661 1193 l 436 1055 "},"∕":{"x_min":-25.09375,"x_max":684.328125,"ha":661,"o":"m 684 950 l 28 -22 l -25 14 l 621 995 l 684 950 "},"°":{"x_min":65,"x_max":497,"ha":562,"o":"m 152 778 q 161 723 152 750 q 187 677 170 697 q 228 644 204 656 q 281 633 252 633 q 333 644 309 633 q 374 677 357 656 q 400 723 391 697 q 410 778 410 750 q 400 833 410 807 q 374 880 391 860 q 333 913 357 901 q 279 926 309 926 q 227 913 251 926 q 187 880 204 901 q 161 833 170 860 q 152 778 152 807 m 65 778 q 82 863 65 824 q 129 931 99 902 q 198 978 159 961 q 282 995 238 995 q 371 978 331 995 q 439 931 410 961 q 482 863 467 902 q 497 778 497 824 q 479 694 497 733 q 431 625 461 654 q 362 578 402 595 q 278 562 322 562 q 190 578 229 562 q 122 625 151 595 q 79 694 94 654 q 65 778 65 733 "},"å":{"x_min":48,"x_max":682.609375,"ha":717,"o":"m 471 341 q 404 335 439 339 q 337 321 370 330 q 275 298 304 312 q 224 264 246 283 q 191 218 203 244 q 180 159 178 192 q 190 114 180 133 q 213 82 199 95 q 247 63 228 69 q 288 57 266 57 q 340 62 315 57 q 386 78 364 67 q 429 103 408 89 q 471 138 449 118 l 471 341 m 90 550 q 110 615 90 584 q 167 668 130 645 q 254 704 203 691 q 364 717 304 717 q 536 655 481 717 q 591 459 591 593 l 589 147 q 588 103 589 125 q 584 53 587 81 l 682 58 l 682 0 l 483 0 q 477 41 479 23 q 474 78 475 59 q 372 5 427 32 q 255 -22 317 -22 q 164 -9 203 -22 q 99 25 125 3 q 60 78 73 47 q 48 142 48 108 q 66 221 48 185 q 116 283 85 256 q 190 331 148 311 q 279 364 232 351 q 375 382 326 377 q 471 388 424 388 l 471 474 q 467 544 471 510 q 449 605 463 578 q 406 649 435 633 q 338 666 376 666 q 295 662 315 666 q 255 649 275 658 q 219 626 235 640 q 193 592 203 612 q 207 567 203 581 q 211 540 211 553 q 208 522 211 532 q 197 502 204 511 q 179 487 190 493 q 149 482 168 482 q 105 501 121 482 q 90 550 90 521 m 349 1014 q 307 992 326 1014 q 288 930 288 971 q 292 892 288 910 q 305 862 297 875 q 326 841 314 849 q 354 834 338 834 q 396 856 379 834 q 413 916 413 878 q 397 987 413 961 q 349 1014 380 1014 m 349 1057 q 398 1049 374 1057 q 441 1026 422 1042 q 474 985 461 1010 q 487 931 487 959 q 475 871 487 896 q 445 829 464 847 q 402 800 426 810 q 352 791 378 791 q 302 798 326 791 q 258 822 277 806 q 226 863 238 839 q 215 923 215 888 q 226 977 215 953 q 257 1019 238 1002 q 300 1047 276 1037 q 349 1057 324 1057 "},"0":{"x_min":78,"x_max":786.109375,"ha":863,"o":"m 221 511 q 224 408 221 463 q 238 301 228 354 q 263 199 247 248 q 303 113 279 150 q 361 55 328 77 q 440 33 395 33 q 510 50 479 33 q 563 98 540 68 q 601 169 586 128 q 625 258 616 211 q 638 357 634 305 q 643 459 643 408 q 638 573 643 515 q 625 684 634 631 q 600 785 615 738 q 561 867 584 832 q 507 922 538 902 q 434 942 475 942 q 363 924 394 942 q 307 876 331 906 q 267 804 284 845 q 241 714 251 762 q 225 614 230 667 q 221 511 221 562 m 78 482 q 86 601 78 540 q 113 719 95 662 q 161 826 132 776 q 229 913 189 876 q 321 973 269 951 q 438 995 373 995 q 557 973 505 995 q 647 915 609 952 q 712 828 686 878 q 755 723 739 779 q 778 607 771 667 q 786 489 786 546 q 777 371 786 431 q 751 254 769 310 q 706 147 733 197 q 638 59 678 96 q 548 0 599 21 q 432 -22 496 -22 q 307 0 361 -22 q 214 57 253 20 q 148 143 174 93 q 106 248 122 192 q 84 364 90 304 q 78 482 78 424 "},"ō":{"x_min":57,"x_max":755.75,"ha":813,"o":"m 405 664 q 311 639 350 664 q 247 574 272 615 q 210 480 222 533 q 198 370 198 427 q 211 245 198 306 q 252 137 225 184 q 320 61 279 90 q 416 33 361 33 q 509 57 471 33 q 570 123 546 82 q 603 216 593 163 q 614 323 614 268 q 602 446 614 385 q 565 556 590 507 q 501 634 540 604 q 405 664 461 664 m 405 717 q 542 690 478 717 q 653 616 606 663 q 728 504 700 569 q 755 364 755 439 q 728 213 755 283 q 655 90 702 142 q 543 8 607 38 q 405 -22 479 -22 q 268 4 332 -22 q 158 76 205 30 q 84 188 111 123 q 57 330 57 253 q 83 483 57 412 q 157 606 110 554 q 267 687 204 658 q 405 717 331 717 m 222 973 l 590 973 l 590 895 l 222 889 l 222 973 "},"":{"x_min":0,"x_max":0,"ha":366},"”":{"x_min":35.015625,"x_max":454,"ha":485,"o":"m 69 695 q 94 734 81 709 q 116 788 106 758 q 132 851 126 818 q 133 915 137 883 q 95 908 113 907 q 64 918 77 909 q 42 942 50 927 q 35 975 35 957 q 57 1035 35 1014 q 111 1056 79 1056 q 153 1046 135 1056 q 184 1019 172 1036 q 203 979 197 1002 q 210 930 210 956 q 202 868 210 903 q 181 795 195 832 q 148 725 167 759 q 106 668 129 691 l 69 695 m 313 695 q 338 734 325 709 q 360 788 350 758 q 376 851 370 818 q 377 915 381 883 q 339 908 357 907 q 308 918 321 909 q 286 942 294 927 q 279 975 279 957 q 301 1035 279 1014 q 355 1056 323 1056 q 397 1046 379 1056 q 428 1019 416 1036 q 447 979 441 1002 q 454 930 454 956 q 446 868 454 903 q 425 795 439 832 q 392 725 411 759 q 350 668 373 691 l 313 695 "},"Ķ":{"x_min":77.046875,"x_max":942.671875,"ha":949,"o":"m 172 817 q 173 871 172 845 q 177 918 174 896 l 77 911 l 77 973 l 389 973 l 389 927 q 330 912 350 926 q 302 877 311 899 q 294 824 294 854 q 294 756 294 793 l 294 528 l 397 528 l 571 802 q 591 831 580 816 q 615 862 602 847 q 642 893 627 878 q 670 919 656 907 l 585 916 l 585 973 l 884 973 l 884 927 q 804 915 840 924 q 735 887 768 907 q 670 832 703 867 q 603 740 638 797 l 467 522 q 503 496 487 510 q 532 467 518 482 q 557 436 545 452 q 583 404 570 420 l 738 197 q 806 113 777 144 q 857 68 834 83 q 900 49 880 52 q 942 45 920 45 l 942 0 l 773 0 q 747 11 762 0 q 713 41 731 22 q 673 85 694 60 q 632 136 653 110 l 466 361 q 413 427 439 396 q 361 474 387 458 l 294 473 l 294 165 q 293 99 294 127 q 289 55 292 72 l 389 60 l 389 0 l 77 0 l 77 45 q 136 59 116 46 q 163 95 155 72 q 172 148 172 117 q 172 216 172 179 l 172 817 m 541 -77 q 557 -149 557 -112 q 527 -256 557 -202 q 448 -360 497 -310 l 411 -332 q 444 -260 434 -291 q 457 -204 455 -229 q 455 -153 459 -178 q 445 -99 451 -128 l 541 -77 "},"ö":{"x_min":57,"x_max":755.75,"ha":813,"o":"m 405 664 q 311 639 350 664 q 247 574 272 615 q 210 480 222 533 q 198 370 198 427 q 211 245 198 306 q 252 137 225 184 q 320 61 279 90 q 416 33 361 33 q 509 57 471 33 q 570 123 546 82 q 603 216 593 163 q 614 323 614 268 q 602 446 614 385 q 565 556 590 507 q 501 634 540 604 q 405 664 461 664 m 405 717 q 542 690 478 717 q 653 616 606 663 q 728 504 700 569 q 755 364 755 439 q 728 213 755 283 q 655 90 702 142 q 543 8 607 38 q 405 -22 479 -22 q 268 4 332 -22 q 158 76 205 30 q 84 188 111 123 q 57 330 57 253 q 83 483 57 412 q 157 606 110 554 q 267 687 204 658 q 405 717 331 717 m 354 927 q 348 896 354 911 q 333 870 342 881 q 311 852 323 858 q 285 846 298 846 q 258 852 270 846 q 236 870 245 858 q 221 896 226 881 q 216 927 216 911 q 221 960 216 944 q 237 987 227 976 q 259 1005 246 998 q 285 1012 272 1012 q 313 1005 300 1012 q 335 987 325 998 q 349 960 344 976 q 354 927 354 944 m 586 927 q 580 896 586 911 q 565 870 574 881 q 543 852 555 858 q 517 846 530 846 q 490 852 502 846 q 468 870 477 858 q 453 896 458 881 q 448 927 448 911 q 453 960 448 944 q 469 987 459 976 q 491 1005 478 998 q 517 1012 504 1012 q 545 1005 532 1012 q 567 987 557 998 q 581 960 576 976 q 586 927 586 944 "},"Ļ":{"x_min":77.046875,"x_max":774.671875,"ha":803,"o":"m 294 160 q 293 96 294 122 q 289 52 292 69 l 549 56 q 626 69 592 56 q 682 111 659 83 q 716 182 704 138 q 727 288 727 226 l 774 288 l 766 0 l 77 0 l 77 46 q 136 60 116 47 q 163 96 155 73 q 172 149 172 118 q 172 216 172 180 l 172 817 q 173 871 172 846 q 177 918 174 896 l 77 911 l 77 973 l 389 973 l 389 927 q 330 912 350 926 q 302 877 311 899 q 294 824 294 854 q 294 756 294 793 l 294 160 m 459 -77 q 475 -149 475 -112 q 445 -256 475 -202 q 366 -360 415 -310 l 329 -332 q 362 -260 351 -291 q 375 -204 373 -229 q 373 -153 377 -178 q 363 -99 369 -128 l 459 -77 "},"Õ":{"x_min":64,"x_max":1042.359375,"ha":1103,"o":"m 200 511 q 209 405 200 460 q 238 296 219 349 q 287 196 258 243 q 357 112 317 148 q 448 56 397 77 q 561 35 498 35 q 665 52 618 35 q 751 99 713 69 q 817 171 789 129 q 865 259 846 212 q 894 359 884 306 q 904 460 904 413 q 893 571 904 510 q 861 685 882 632 q 809 785 840 739 q 739 866 779 832 q 649 920 699 900 q 543 940 600 940 q 393 902 457 940 q 285 802 328 864 q 221 665 243 741 q 200 511 200 589 m 64 486 q 76 605 64 544 q 116 722 89 665 q 182 828 142 778 q 276 914 222 877 q 397 973 329 952 q 547 995 465 995 q 702 973 632 995 q 826 914 771 951 q 921 827 881 877 q 989 721 962 778 q 1029 604 1015 664 q 1042 486 1042 544 q 1029 368 1042 428 q 989 252 1015 308 q 923 145 963 195 q 829 58 883 95 q 708 0 775 21 q 558 -22 640 -22 q 399 0 470 -22 q 273 56 328 20 q 179 141 218 92 q 113 247 139 190 q 76 364 88 303 q 64 486 64 426 m 442 1177 q 389 1155 412 1177 q 340 1094 366 1133 l 293 1121 q 323 1177 305 1151 q 361 1221 341 1203 q 405 1252 382 1240 q 450 1264 427 1263 q 499 1256 477 1264 q 539 1238 521 1249 q 573 1215 557 1228 q 605 1191 589 1202 q 636 1173 620 1180 q 671 1166 652 1166 q 706 1173 690 1166 q 736 1193 722 1181 q 762 1222 750 1205 q 784 1256 774 1238 l 829 1234 q 795 1162 814 1192 q 754 1114 776 1132 q 709 1087 732 1095 q 663 1079 686 1079 q 614 1086 636 1079 q 573 1104 592 1093 q 537 1128 554 1115 q 505 1152 521 1141 q 474 1170 489 1162 q 442 1177 459 1177 "},"№":{"x_min":79.09375,"x_max":1529.390625,"ha":1609,"o":"m 1276 995 q 1364 978 1323 995 q 1434 931 1405 961 q 1480 860 1464 902 q 1498 768 1497 818 q 1481 671 1498 715 q 1435 595 1464 627 q 1363 545 1405 563 q 1273 528 1321 528 q 1184 544 1225 528 q 1113 590 1143 561 q 1066 661 1083 620 q 1049 750 1049 701 q 1066 847 1049 802 q 1114 924 1083 891 q 1186 976 1144 957 q 1276 995 1227 995 m 998 927 q 939 912 959 925 q 912 876 920 899 q 904 823 905 854 q 903 756 903 793 l 903 -21 l 835 -21 l 233 788 l 236 788 l 236 193 q 235 123 236 157 q 233 56 235 89 l 333 61 l 333 0 l 79 0 l 79 46 q 129 57 110 46 q 156 84 147 68 q 168 120 165 101 q 172 155 171 139 l 172 918 l 79 911 l 79 973 l 244 973 l 836 182 l 839 182 l 839 817 q 843 918 839 875 l 743 911 l 743 973 l 998 973 l 998 927 m 1270 949 q 1219 934 1241 947 q 1181 897 1196 920 q 1158 843 1166 874 q 1150 776 1150 812 q 1158 699 1150 736 q 1182 635 1166 662 q 1223 591 1198 607 q 1283 577 1248 575 q 1334 591 1312 577 q 1371 628 1356 605 q 1393 681 1386 651 q 1401 747 1401 712 q 1393 822 1401 785 q 1370 888 1386 859 q 1330 933 1355 916 q 1270 949 1305 949 m 1036 326 l 1036 423 l 1529 423 l 1529 331 l 1036 326 "},"ć":{"x_min":57,"x_max":691.59375,"ha":739,"o":"m 568 590 q 540 629 558 614 q 500 652 522 644 q 458 662 479 660 q 422 665 436 665 q 333 645 374 665 q 263 589 292 626 q 216 496 233 551 q 198 369 198 440 q 216 241 198 300 q 264 140 233 183 q 339 74 295 98 q 437 51 383 51 q 501 60 469 51 q 562 85 533 69 q 614 123 590 101 q 655 170 638 144 l 691 142 q 628 67 663 98 q 553 17 592 37 q 474 -12 514 -3 q 400 -22 435 -22 q 267 2 329 -22 q 158 71 204 26 q 84 184 111 117 q 57 335 57 250 q 68 430 57 383 q 103 519 80 477 q 157 598 125 561 q 229 660 189 634 q 317 702 269 687 q 419 717 365 717 q 524 702 476 717 q 605 664 571 688 q 657 610 639 640 q 676 545 676 579 q 659 494 676 515 q 611 472 642 472 q 581 477 593 471 q 561 493 568 484 q 550 514 553 503 q 547 534 547 525 q 551 562 547 547 q 568 590 555 577 m 358 806 l 319 837 l 436 1025 q 466 1055 451 1047 q 493 1063 482 1063 q 514 1058 504 1063 q 532 1045 525 1054 q 541 1029 538 1036 q 543 1012 543 1021 q 541 998 543 1005 q 537 987 539 991 q 513 953 531 971 l 358 806 "},"þ":{"x_min":11.796875,"x_max":741.109375,"ha":802,"o":"m 104 868 q 105 912 104 889 q 110 958 106 934 l 11 953 l 11 1011 q 86 1014 57 1011 q 134 1022 116 1017 q 164 1034 153 1028 q 182 1049 174 1041 l 222 1049 l 222 642 q 319 697 264 677 q 431 717 373 717 q 550 692 494 717 q 649 622 606 668 q 716 512 691 577 q 741 367 741 447 q 712 206 741 278 q 636 83 684 134 q 523 5 588 32 q 386 -22 459 -22 q 297 -11 338 -22 q 221 21 255 0 l 221 -206 q 220 -255 221 -234 q 215 -301 220 -277 l 303 -296 l 303 -354 l 19 -354 l 19 -312 q 68 -299 51 -312 q 92 -265 85 -287 q 100 -211 99 -242 q 102 -142 101 -180 l 104 868 m 384 649 q 293 629 335 649 q 222 577 252 610 l 221 85 q 384 33 291 33 q 473 56 433 33 q 540 120 512 79 q 583 219 568 161 q 598 345 598 276 q 585 455 598 401 q 547 553 573 510 q 481 622 522 596 q 384 649 441 649 "},"]":{"x_min":17.28125,"x_max":389.359375,"ha":499,"o":"m 388 -354 l 20 -354 l 20 -271 l 284 -266 l 290 961 l 17 966 l 17 1049 l 389 1049 l 388 -354 "},"А":{"x_min":-8.046875,"x_max":886.953125,"ha":869,"o":"m 177 150 q 168 121 172 134 q 160 97 164 108 q 152 76 156 86 q 143 55 147 66 l 251 60 l 251 0 l -8 0 l -8 45 q 42 58 23 45 q 76 93 62 70 q 100 148 89 116 q 126 219 112 180 l 412 999 l 445 999 l 756 207 q 768 173 762 193 q 780 132 775 153 q 789 90 786 111 q 792 55 792 70 l 886 60 l 886 0 l 568 0 l 568 45 q 625 59 607 46 q 648 92 644 73 q 648 134 653 112 q 636 176 644 157 l 587 307 l 225 298 q 199 220 211 256 q 177 150 187 185 m 346 638 q 290 480 314 549 q 247 359 266 412 l 568 359 l 469 625 l 407 796 l 404 796 l 346 638 "},"Ы":{"x_min":76.375,"x_max":1171.625,"ha":1248,"o":"m 388 927 q 329 912 349 925 q 301 876 309 899 q 293 823 293 854 q 293 756 293 793 l 293 566 l 404 569 q 585 553 511 572 q 703 497 658 534 q 768 409 748 460 q 789 296 789 357 q 764 167 789 223 q 698 74 740 111 q 600 19 656 38 q 481 0 544 0 l 76 0 l 76 46 q 134 59 114 46 q 162 94 154 72 q 171 147 171 116 q 172 216 172 178 l 172 817 q 173 871 172 846 q 177 918 174 896 l 76 911 l 76 973 l 388 973 l 388 927 m 1171 927 q 1112 912 1132 926 q 1084 877 1092 899 q 1076 824 1076 854 q 1076 756 1076 793 l 1076 165 q 1074 100 1076 127 q 1071 56 1073 73 l 1171 61 l 1171 0 l 859 0 l 859 46 q 918 60 898 47 q 946 95 938 73 q 954 148 954 117 q 955 216 955 179 l 955 817 q 956 871 955 846 q 960 918 957 896 l 859 911 l 859 973 l 1171 973 l 1171 927 m 293 164 q 291 100 293 126 q 288 56 290 73 q 326 53 304 54 q 371 53 349 53 q 411 53 393 53 q 435 53 428 53 q 521 66 481 53 q 591 109 561 80 q 638 183 621 138 q 655 290 655 228 q 635 400 655 356 q 585 469 616 444 q 515 505 554 494 q 435 516 475 516 q 360 515 394 516 q 293 512 326 514 l 293 164 "},"":{"x_min":63,"x_max":357,"ha":419,"o":"m 63 -308 q 128 -291 98 -301 q 182 -265 159 -280 q 219 -233 205 -251 q 232 -195 232 -215 q 218 -161 232 -171 q 187 -151 205 -151 q 156 -156 172 -151 q 126 -170 140 -161 l 76 -147 l 117 11 l 197 11 l 159 -106 q 182 -95 169 -100 q 206 -89 194 -91 q 230 -85 219 -86 q 250 -84 242 -84 q 297 -91 277 -84 q 330 -112 317 -99 q 350 -144 343 -126 q 357 -183 357 -162 q 342 -234 357 -211 q 303 -276 327 -257 q 249 -309 279 -295 q 187 -333 219 -323 q 125 -350 155 -344 q 71 -361 94 -357 l 63 -308 "},"8":{"x_min":82,"x_max":711.328125,"ha":781,"o":"m 667 770 q 652 693 667 729 q 611 626 637 657 q 552 571 586 596 q 479 527 518 546 q 567 467 525 500 q 641 396 609 434 q 692 317 673 359 q 711 230 711 274 q 684 116 711 164 q 611 38 657 69 q 506 -7 566 7 q 383 -22 447 -22 q 281 -10 334 -22 q 184 27 228 1 q 110 98 139 54 q 82 208 82 142 q 99 296 82 255 q 146 372 117 337 q 214 438 176 407 q 292 493 252 468 q 203 556 240 525 q 144 619 166 588 q 111 681 121 650 q 101 742 101 712 q 127 856 101 808 q 195 934 153 903 q 290 980 238 965 q 396 995 343 995 q 497 980 449 995 q 584 936 546 965 q 644 866 622 908 q 667 770 667 824 m 345 468 q 280 410 307 440 q 235 349 252 379 q 208 288 217 318 q 198 233 200 259 q 208 152 195 189 q 245 89 221 115 q 305 48 269 62 q 385 33 341 33 q 525 77 476 31 q 575 204 575 122 q 563 276 575 240 q 524 345 551 312 q 453 410 497 379 q 345 468 409 441 m 230 772 q 245 702 230 734 q 287 641 261 669 q 351 592 314 613 q 429 555 387 570 q 525 650 492 598 q 559 754 557 701 q 516 891 560 843 q 398 940 472 938 q 326 926 357 940 q 273 888 295 912 q 241 835 252 865 q 230 772 230 805 "},"R":{"x_min":76.375,"x_max":872.46875,"ha":872,"o":"m 387 433 q 340 432 364 432 q 293 435 317 432 l 293 164 q 292 99 293 126 q 288 55 291 72 l 389 60 l 389 0 l 76 0 l 76 45 q 135 59 115 46 q 163 95 155 72 q 171 148 171 117 q 172 215 172 179 l 172 816 q 173 870 172 845 q 176 917 174 895 l 76 910 l 76 972 q 234 974 155 974 q 394 974 313 975 q 566 954 494 971 q 683 905 637 937 q 750 828 729 873 q 771 724 771 782 q 761 641 771 684 q 721 561 750 599 q 641 493 692 523 q 511 447 591 463 q 560 397 538 427 q 607 325 582 366 l 702 177 q 736 125 720 149 q 772 83 753 101 q 815 55 791 65 q 872 45 839 45 l 872 0 l 697 0 q 660 35 677 17 q 630 71 644 52 q 601 110 615 90 q 573 153 588 130 l 480 302 q 460 334 470 317 q 439 369 450 351 q 414 403 427 386 q 387 433 401 420 m 293 488 q 335 485 315 486 q 379 485 355 484 q 483 500 436 488 q 564 539 530 513 q 618 607 599 566 q 637 709 637 649 q 577 867 637 814 q 388 921 517 921 q 330 909 349 921 q 302 875 310 897 q 293 823 294 853 q 293 755 293 792 l 293 488 "},"ť":{"x_min":28.515625,"x_max":532.046875,"ha":538,"o":"m 513 1074 q 528 1032 524 1049 q 529 990 531 1015 q 516 935 526 963 q 491 882 506 908 q 456 831 476 855 q 415 785 436 807 l 378 812 q 413 893 401 855 q 428 965 425 931 q 428 1030 432 999 q 417 1092 425 1061 l 513 1074 m 259 889 q 258 785 259 834 q 258 695 258 737 l 492 695 l 492 641 l 258 638 q 257 484 257 547 q 257 377 257 420 q 256 309 256 334 q 256 272 256 284 q 256 255 256 259 q 256 251 256 251 q 261 167 256 203 q 278 105 266 130 q 310 68 290 81 q 361 56 330 56 q 432 77 397 56 q 494 139 467 99 l 532 108 q 471 36 501 62 q 414 -2 441 10 q 363 -19 386 -16 q 322 -23 340 -23 q 279 -19 301 -23 q 236 -6 257 -16 q 196 21 214 3 q 163 68 177 39 q 141 137 149 96 q 135 234 133 178 l 135 636 l 28 636 l 28 695 q 94 715 65 695 q 147 763 124 734 q 186 825 170 791 q 211 889 202 859 l 259 889 "},"Ľ":{"x_min":76.375,"x_max":772.9375,"ha":803,"o":"m 675 967 q 690 925 687 942 q 691 883 693 907 q 678 828 688 855 q 653 774 668 800 q 618 724 638 748 q 577 677 598 699 l 540 705 q 575 786 563 748 q 591 857 587 823 q 591 922 594 891 q 579 985 587 953 l 675 967 m 388 926 q 329 911 349 924 q 301 875 309 898 q 293 823 293 853 q 293 755 293 792 l 293 160 q 291 95 293 122 q 288 51 290 69 l 547 56 q 624 69 591 56 q 680 110 658 83 q 714 182 703 138 q 726 287 726 226 l 772 287 l 764 0 l 76 0 l 76 47 q 135 61 115 48 q 163 96 155 74 q 171 149 171 118 q 172 217 172 180 l 172 816 q 173 870 172 845 q 177 917 174 896 l 76 910 l 76 973 l 388 973 l 388 926 "},"Ż":{"x_min":60.046875,"x_max":781,"ha":847,"o":"m 60 64 q 148 188 99 119 q 259 347 198 258 q 394 548 321 437 q 553 796 466 659 q 594 858 572 827 q 641 921 616 890 l 287 915 q 216 899 246 913 q 165 857 185 885 q 134 786 144 829 q 124 685 124 744 l 77 685 l 85 973 l 774 973 l 774 923 l 275 167 q 247 127 260 144 q 223 97 235 110 q 202 73 212 83 q 180 52 191 62 l 518 57 q 603 71 563 58 q 672 113 643 85 q 717 184 700 141 q 734 285 734 226 l 781 285 l 772 0 l 60 0 l 60 64 m 497 1205 q 491 1173 497 1189 q 474 1147 485 1158 q 451 1130 464 1136 q 422 1123 437 1123 q 394 1130 407 1123 q 370 1147 380 1136 q 353 1173 359 1158 q 348 1205 348 1189 q 354 1238 348 1223 q 370 1265 360 1254 q 394 1283 381 1276 q 423 1289 408 1289 q 452 1283 439 1289 q 476 1265 466 1276 q 492 1238 486 1254 q 497 1205 497 1223 "},"o":{"x_min":57,"x_max":755.75,"ha":813,"o":"m 405 664 q 311 639 350 664 q 247 574 272 615 q 210 480 222 533 q 198 370 198 427 q 211 245 198 306 q 252 137 225 184 q 320 61 279 90 q 416 33 361 33 q 509 57 471 33 q 570 123 546 82 q 603 216 593 163 q 614 323 614 268 q 602 446 614 385 q 565 556 590 507 q 501 634 540 604 q 405 664 461 664 m 405 717 q 542 690 478 717 q 653 616 606 663 q 728 504 700 569 q 755 364 755 439 q 728 213 755 283 q 655 90 702 142 q 543 8 607 38 q 405 -22 479 -22 q 268 4 332 -22 q 158 76 205 30 q 84 188 111 123 q 57 330 57 253 q 83 483 57 412 q 157 606 110 554 q 267 687 204 658 q 405 717 331 717 "},"5":{"x_min":72,"x_max":695,"ha":756,"o":"m 185 127 q 208 83 190 101 q 251 53 226 64 q 305 36 276 41 q 358 33 333 31 q 445 55 409 35 q 505 108 481 75 q 539 182 528 140 q 550 267 550 223 q 548 323 550 293 q 538 384 545 354 q 516 443 530 415 q 477 493 501 471 q 419 528 454 515 q 335 541 384 541 q 293 537 317 541 q 243 528 269 534 q 193 512 218 522 q 151 492 169 503 l 113 528 l 109 973 l 470 973 q 536 978 509 973 q 578 994 562 983 q 601 1022 594 1005 q 608 1063 608 1039 l 647 1063 l 638 879 l 173 870 l 174 564 q 260 590 207 577 q 375 603 313 603 q 521 575 460 603 q 620 503 582 548 q 677 403 659 459 q 695 291 695 348 q 666 155 695 214 q 591 57 638 97 q 482 -2 544 18 q 352 -22 420 -22 q 234 -4 286 -22 q 145 41 181 13 q 91 103 110 69 q 72 167 72 136 q 88 220 72 198 q 135 244 104 242 q 167 238 154 244 q 187 223 179 232 q 197 202 194 213 q 200 181 200 190 q 196 153 200 167 q 185 127 192 139 "},"Ѕ":{"x_min":80.671875,"x_max":727.046875,"ha":787,"o":"m 160 -11 l 88 -11 l 80 285 l 134 285 q 160 176 138 223 q 219 99 183 130 q 304 51 255 67 q 407 36 352 36 q 484 47 448 36 q 548 80 520 58 q 591 135 575 102 q 607 209 607 167 q 585 297 607 260 q 525 362 562 333 q 441 412 488 390 q 345 458 394 435 q 249 506 296 481 q 165 565 202 531 q 106 643 128 599 q 83 750 83 688 q 89 801 83 773 q 107 855 94 828 q 140 907 119 882 q 192 952 161 933 q 266 983 223 971 q 365 995 308 995 q 422 991 392 995 q 485 980 453 988 q 547 958 516 971 q 607 923 579 944 l 602 983 l 672 983 l 672 678 l 622 678 q 603 775 619 728 q 556 859 587 822 q 481 917 526 895 q 375 940 436 940 q 298 926 332 940 q 243 891 265 913 q 209 839 220 868 q 197 777 197 809 q 220 694 197 729 q 280 632 243 659 q 365 582 317 605 q 462 537 412 560 q 559 488 511 514 q 644 428 606 462 q 704 348 681 394 q 727 241 727 303 q 705 135 727 184 q 642 52 683 87 q 539 -2 600 17 q 401 -22 479 -22 q 337 -17 370 -22 q 272 -4 304 -13 q 209 17 240 4 q 153 48 179 31 l 160 -11 "},"õ":{"x_min":57,"x_max":755.75,"ha":813,"o":"m 405 664 q 311 639 350 664 q 247 574 272 615 q 210 480 222 533 q 198 370 198 427 q 211 245 198 306 q 252 137 225 184 q 320 61 279 90 q 416 33 361 33 q 509 57 471 33 q 570 123 546 82 q 603 216 593 163 q 614 323 614 268 q 602 446 614 385 q 565 556 590 507 q 501 634 540 604 q 405 664 461 664 m 405 717 q 542 690 478 717 q 653 616 606 663 q 728 504 700 569 q 755 364 755 439 q 728 213 755 283 q 655 90 702 142 q 543 8 607 38 q 405 -22 479 -22 q 268 4 332 -22 q 158 76 205 30 q 84 188 111 123 q 57 330 57 253 q 83 483 57 412 q 157 606 110 554 q 267 687 204 658 q 405 717 331 717 m 315 925 q 261 911 289 925 q 213 866 233 897 l 172 890 q 196 936 180 915 q 232 974 212 957 q 273 999 252 990 q 313 1010 294 1009 q 370 998 346 1010 q 415 973 395 986 q 455 947 436 959 q 497 936 474 936 q 554 954 527 936 q 598 1003 581 972 l 639 982 q 610 922 627 947 q 574 881 594 898 q 535 857 555 865 q 497 850 515 850 q 439 861 464 850 q 392 887 414 873 q 352 913 371 901 q 315 925 334 925 "},",":{"x_min":92.015625,"x_max":267,"ha":351,"o":"m 126 -220 q 151 -181 138 -206 q 173 -127 163 -157 q 189 -64 183 -97 q 190 0 194 -32 q 152 -7 170 -9 q 121 2 134 -6 q 99 26 107 11 q 92 59 92 41 q 114 119 92 98 q 168 140 136 140 q 210 130 192 140 q 241 103 229 120 q 260 63 254 86 q 267 14 267 40 q 259 -47 267 -12 q 238 -120 252 -83 q 205 -190 224 -156 q 163 -248 186 -224 l 126 -220 "},"d":{"x_min":58,"x_max":788.28125,"ha":831,"o":"m 695 147 q 694 103 695 125 q 689 53 693 81 l 788 58 l 788 0 l 589 0 q 584 38 586 20 q 580 72 582 55 q 484 3 540 29 q 357 -22 427 -22 q 238 2 293 -22 q 143 72 184 26 q 80 182 103 117 q 58 327 58 247 q 84 484 58 412 q 159 607 111 555 q 271 688 206 659 q 414 717 337 717 q 460 713 437 717 q 505 704 483 710 q 544 692 526 699 q 576 678 563 685 l 577 868 q 577 910 577 889 q 581 958 578 930 l 483 953 l 483 1011 q 558 1014 528 1011 q 607 1022 588 1017 q 636 1034 626 1028 q 655 1049 647 1041 l 695 1049 l 695 147 m 407 47 q 454 53 430 47 q 500 72 478 60 q 541 101 522 84 q 576 137 561 118 q 576 173 576 154 q 576 214 576 192 l 576 613 q 504 650 543 639 q 423 662 464 662 q 329 638 371 662 q 257 573 287 615 q 214 477 228 531 q 201 340 201 422 q 216 226 201 284 q 257 129 231 168 q 321 69 283 91 q 407 47 359 47 "},"\"":{"x_min":85,"x_max":392.96875,"ha":481,"o":"m 97 682 l 85 995 l 193 995 l 182 682 l 97 682 m 296 682 l 284 995 l 392 995 l 381 682 l 296 682 "},"˙":{"x_min":64,"x_max":213.625,"ha":275,"o":"m 213 929 q 207 897 213 912 q 190 870 201 882 q 166 853 180 859 q 138 847 153 847 q 110 853 123 847 q 86 870 96 859 q 69 897 75 882 q 64 929 64 912 q 70 961 64 946 q 86 988 76 977 q 110 1006 97 999 q 139 1013 124 1013 q 168 1006 155 1013 q 192 988 182 999 q 207 961 202 977 q 213 929 213 946 "},"ê":{"x_min":58,"x_max":698.03125,"ha":753,"o":"m 409 662 q 274 614 327 662 q 205 460 222 566 l 559 460 q 550 532 559 496 q 524 597 542 568 q 478 644 506 626 q 409 662 449 662 m 689 410 l 201 402 q 213 256 200 321 q 253 145 226 191 q 325 74 281 99 q 430 49 369 49 q 496 57 462 49 q 562 82 530 66 q 620 118 593 97 q 664 165 646 140 l 698 137 q 631 63 669 93 q 553 14 594 33 q 472 -13 513 -5 q 397 -22 432 -22 q 263 3 325 -22 q 155 77 201 29 q 84 193 110 125 q 58 346 58 261 q 83 486 58 419 q 154 604 108 552 q 264 686 200 655 q 407 717 329 717 q 516 698 465 717 q 606 641 567 679 q 667 545 645 603 q 689 410 689 487 m 407 1080 l 409 1080 l 617 854 l 579 809 l 403 960 l 400 960 l 220 819 l 186 859 l 407 1080 "},"„":{"x_min":92.015625,"x_max":511,"ha":596,"o":"m 126 -220 q 151 -181 138 -206 q 173 -127 163 -157 q 189 -64 183 -97 q 190 0 194 -32 q 152 -7 170 -9 q 121 2 134 -6 q 99 26 107 11 q 92 59 92 41 q 114 119 92 98 q 168 140 136 140 q 210 130 192 140 q 241 103 229 120 q 260 63 254 86 q 267 14 267 40 q 259 -47 267 -12 q 238 -120 252 -83 q 205 -190 224 -156 q 163 -248 186 -224 l 126 -220 m 370 -220 q 395 -181 382 -206 q 417 -127 407 -157 q 433 -64 427 -97 q 434 0 438 -32 q 396 -7 414 -9 q 365 2 378 -6 q 343 26 351 11 q 336 59 336 41 q 358 119 336 98 q 412 140 380 140 q 454 130 436 140 q 485 103 473 120 q 504 63 498 86 q 511 14 511 40 q 503 -47 511 -12 q 482 -120 496 -83 q 449 -190 468 -156 q 407 -248 430 -224 l 370 -220 "},"ч":{"x_min":23.5,"x_max":714.0625,"ha":776,"o":"m 632 147 q 629 98 630 119 q 625 52 628 76 l 712 57 l 712 0 l 429 0 l 429 41 q 477 53 461 41 q 502 88 494 66 q 510 142 509 110 q 512 210 512 173 l 512 289 q 432 275 473 280 q 358 271 391 271 q 244 288 292 271 q 166 338 196 306 q 120 415 135 370 q 106 514 106 459 q 106 545 106 528 q 106 580 106 562 q 108 613 107 597 q 111 642 109 629 l 23 637 l 23 695 l 307 695 l 307 654 q 267 646 282 654 q 242 618 251 638 q 229 566 233 599 q 225 484 225 534 q 237 436 225 461 q 272 389 248 410 q 331 354 295 368 q 415 342 366 340 q 461 346 435 342 q 513 356 486 349 l 513 547 q 513 596 513 575 q 519 642 514 618 l 431 638 l 431 695 l 714 695 l 714 654 q 665 641 682 654 q 641 606 648 628 q 633 552 634 584 q 632 484 632 521 l 632 147 "},"ľ":{"x_min":33.90625,"x_max":486.28125,"ha":474,"o":"m 486 995 q 484 975 486 990 q 448 869 480 923 q 370 769 417 816 l 334 796 q 386 982 386 895 q 373 1077 386 1023 l 469 1058 q 486 995 486 1024 m 248 122 q 242 52 248 89 l 329 56 l 329 0 l 46 0 l 46 41 q 103 61 86 41 q 124 113 121 82 q 128 210 128 145 l 128 868 q 132 958 128 921 l 33 952 l 33 1011 q 151 1021 115 1011 q 207 1048 187 1030 l 247 1048 l 247 147 l 248 122 "},"Â":{"x_min":-8.046875,"x_max":886.953125,"ha":869,"o":"m 177 150 q 168 121 172 134 q 160 97 164 108 q 152 76 156 86 q 143 55 147 66 l 251 60 l 251 0 l -8 0 l -8 45 q 42 58 23 45 q 76 93 62 70 q 100 148 89 116 q 126 219 112 180 l 412 999 l 445 999 l 756 207 q 768 173 762 193 q 780 132 775 153 q 789 90 786 111 q 792 55 792 70 l 886 60 l 886 0 l 568 0 l 568 45 q 625 59 607 46 q 648 92 644 73 q 648 134 653 112 q 636 176 644 157 l 587 307 l 225 298 q 199 220 211 256 q 177 150 187 185 m 346 638 q 290 480 314 549 q 247 359 266 412 l 568 359 l 469 625 l 407 796 l 404 796 l 346 638 m 429 1293 l 432 1293 l 688 1097 l 657 1049 l 426 1172 l 424 1172 l 187 1051 l 160 1095 l 429 1293 "},"Į":{"x_min":76,"x_max":398.0625,"ha":465,"o":"m 398 -272 q 366 -304 384 -288 q 327 -332 348 -319 q 281 -352 305 -345 q 232 -360 257 -360 q 172 -349 199 -360 q 125 -320 144 -338 q 95 -275 106 -301 q 85 -218 85 -249 q 100 -152 85 -183 q 143 -93 116 -120 q 206 -41 170 -65 q 282 0 242 -18 l 76 0 l 76 46 q 135 60 115 47 q 163 95 154 73 q 171 149 171 118 q 172 216 172 179 l 172 816 q 173 870 172 845 q 177 917 174 895 l 76 910 l 76 973 l 388 973 l 388 926 q 329 911 349 925 q 301 876 309 898 q 293 823 293 853 q 293 755 293 792 l 293 165 q 291 100 293 127 q 288 56 290 73 l 388 61 l 388 0 l 380 0 q 310 -31 343 -13 q 252 -73 277 -49 q 212 -126 227 -97 q 198 -190 198 -155 q 205 -229 198 -211 q 223 -259 212 -247 q 250 -278 235 -271 q 284 -285 266 -285 q 331 -274 309 -285 q 374 -247 354 -263 l 398 -272 "},"ė":{"x_min":58,"x_max":698.03125,"ha":753,"o":"m 409 662 q 274 614 327 662 q 205 460 222 566 l 559 460 q 550 532 559 496 q 524 597 542 568 q 478 644 506 626 q 409 662 449 662 m 689 410 l 201 402 q 213 256 200 321 q 253 145 226 191 q 325 74 281 99 q 430 49 369 49 q 496 57 462 49 q 562 82 530 66 q 620 118 593 97 q 664 165 646 140 l 698 137 q 631 63 669 93 q 553 14 594 33 q 472 -13 513 -5 q 397 -22 432 -22 q 263 3 325 -22 q 155 77 201 29 q 84 193 110 125 q 58 346 58 261 q 83 486 58 419 q 154 604 108 552 q 264 686 200 655 q 407 717 329 717 q 516 698 465 717 q 606 641 567 679 q 667 545 645 603 q 689 410 689 487 m 496 928 q 490 896 496 911 q 474 870 484 881 q 450 852 463 859 q 421 846 436 846 q 393 852 406 846 q 369 870 379 859 q 353 896 359 881 q 347 928 347 911 q 353 961 347 946 q 370 988 359 976 q 394 1005 380 999 q 423 1012 408 1012 q 452 1005 438 1012 q 475 988 465 999 q 491 961 485 976 q 496 928 496 946 "},"Ţ":{"x_min":30.28125,"x_max":856.671875,"ha":889,"o":"m 804 679 q 794 786 803 740 q 766 862 786 832 q 711 907 746 892 q 623 922 676 922 l 504 922 l 504 165 q 500 55 504 91 l 615 61 l 615 0 l 487 0 l 453 -102 q 498 -84 472 -90 q 548 -78 524 -78 q 615 -103 590 -78 q 641 -169 641 -127 q 627 -220 641 -197 q 591 -259 613 -242 q 540 -289 569 -277 q 481 -310 511 -302 q 421 -325 451 -319 q 368 -334 392 -331 l 360 -287 q 425 -271 395 -281 q 478 -248 456 -262 q 514 -219 501 -235 q 527 -182 527 -202 q 515 -151 527 -161 q 488 -140 504 -142 q 453 -145 471 -139 q 419 -161 434 -150 l 372 -138 l 410 0 l 288 0 l 288 46 q 347 61 327 47 q 374 97 366 74 q 383 150 382 120 q 385 216 384 181 l 385 920 l 241 920 q 166 905 197 920 q 117 860 136 890 q 90 786 98 831 q 81 679 81 740 l 30 679 l 38 973 l 848 973 l 856 679 l 804 679 "},"Í":{"x_min":76.375,"x_max":413.71875,"ha":464,"o":"m 172 817 q 173 871 172 845 q 176 918 174 896 l 76 911 l 76 973 l 389 973 l 389 927 q 330 912 349 926 q 302 877 310 899 q 293 824 294 854 q 293 756 293 793 l 293 165 q 292 99 293 127 q 288 55 291 72 l 389 60 l 389 0 l 76 0 l 76 45 q 135 59 115 46 q 163 95 155 72 q 171 148 171 117 q 172 216 172 179 l 172 817 m 166 1055 l 136 1095 l 311 1262 q 348 1283 331 1279 q 376 1285 364 1288 q 395 1277 388 1283 q 404 1269 402 1271 q 411 1255 408 1264 q 412 1233 415 1246 q 401 1207 410 1221 q 368 1178 391 1193 l 166 1055 "},"´":{"x_min":62,"x_max":286,"ha":350,"o":"m 100 806 l 62 837 l 178 1025 q 209 1055 193 1047 q 235 1063 224 1063 q 257 1058 246 1063 q 274 1045 267 1054 q 283 1029 281 1036 q 286 1012 286 1021 q 283 998 286 1005 q 279 987 281 991 q 256 953 273 971 l 100 806 "},"Ú":{"x_min":42.734375,"x_max":1002.1875,"ha":1044,"o":"m 903 434 q 883 260 902 343 q 820 115 863 178 q 705 15 776 52 q 529 -22 634 -22 q 343 7 418 -22 q 222 97 267 36 q 156 251 176 157 q 137 474 137 345 l 137 756 q 137 797 137 774 q 138 841 137 819 q 140 884 139 864 q 142 918 141 904 l 42 913 l 42 973 l 354 973 l 354 927 q 300 915 319 927 q 271 886 280 903 q 260 850 262 869 q 259 817 259 831 l 259 467 q 263 364 259 415 q 278 268 267 314 q 309 184 289 223 q 361 117 329 145 q 438 72 393 88 q 546 57 484 57 q 675 84 621 57 q 764 160 729 111 q 816 277 799 209 q 834 427 832 345 l 839 817 q 843 918 839 875 l 743 911 l 743 973 l 1002 973 l 1002 927 q 942 912 962 926 q 914 877 922 899 q 906 824 906 854 q 905 756 905 793 l 903 434 m 506 1055 l 476 1095 l 651 1262 q 688 1283 671 1279 q 716 1285 704 1288 q 735 1277 728 1283 q 744 1269 742 1271 q 751 1255 748 1264 q 752 1233 755 1246 q 741 1207 750 1221 q 708 1178 731 1193 l 506 1055 "},"Ý":{"x_min":-8.1875,"x_max":894.515625,"ha":880,"o":"m 394 374 l 153 757 q 100 850 117 813 q 77 915 83 888 l -8 911 l -8 973 l 349 973 l 349 927 q 276 916 301 927 q 244 884 251 904 q 246 836 237 864 q 276 775 255 809 q 325 697 302 734 q 371 624 348 660 q 419 551 394 588 q 474 472 444 513 l 476 472 q 661 822 632 768 q 701 891 691 876 q 720 916 710 905 l 611 911 l 611 973 l 894 973 l 894 927 q 832 913 859 925 q 781 879 805 902 q 736 824 758 857 q 514 416 714 792 q 513 257 514 349 q 514 165 513 165 q 509 55 514 90 l 625 60 l 625 0 l 299 0 l 299 45 q 357 60 337 46 q 385 96 377 74 q 393 150 393 119 q 393 216 393 180 l 394 374 m 444 1055 l 414 1095 l 589 1262 q 626 1283 609 1279 q 654 1285 642 1288 q 673 1277 666 1283 q 682 1269 680 1271 q 689 1255 686 1264 q 690 1233 693 1246 q 679 1207 688 1221 q 646 1178 669 1193 l 444 1055 "},"И":{"x_min":76.375,"x_max":1020.6875,"ha":1097,"o":"m 1020 927 q 961 912 981 925 q 933 877 941 899 q 925 824 925 854 q 925 756 925 793 l 925 166 q 921 56 925 91 l 1020 62 l 1020 1 l 707 1 l 707 47 q 767 61 747 48 q 795 96 787 74 q 803 149 803 119 q 804 217 804 180 l 804 774 l 293 137 q 291 90 292 110 q 288 56 290 70 l 388 62 l 388 1 l 76 1 l 76 47 q 135 61 115 48 q 163 96 155 74 q 171 149 171 119 q 172 217 172 180 l 172 817 q 173 871 172 846 q 177 918 174 896 l 76 911 l 76 973 l 388 973 l 388 927 q 329 912 349 926 q 301 877 309 899 q 293 824 293 854 q 293 756 293 793 l 293 231 l 805 863 q 806 892 805 878 q 808 918 806 905 l 707 911 l 707 973 l 1020 973 l 1020 927 "},"ą":{"x_min":48,"x_max":684.34375,"ha":717,"o":"m 634 1 q 571 -30 600 -12 q 518 -72 541 -49 q 483 -123 496 -95 q 470 -182 470 -150 q 477 -222 470 -204 q 495 -252 484 -239 q 522 -271 507 -264 q 556 -278 538 -278 q 603 -267 581 -278 q 646 -240 626 -256 l 670 -265 q 638 -297 656 -281 q 599 -325 620 -312 q 553 -345 577 -338 q 504 -353 529 -353 q 444 -342 471 -353 q 397 -313 416 -331 q 367 -268 378 -294 q 357 -211 357 -242 q 371 -148 357 -178 q 410 -91 385 -117 q 468 -41 435 -64 q 539 0 502 -18 l 484 1 q 478 41 480 24 q 475 78 476 59 q 372 4 428 31 q 255 -22 317 -22 q 164 -9 203 -22 q 99 25 125 3 q 60 77 73 47 q 48 142 48 108 q 66 220 48 185 q 116 283 85 255 q 190 330 148 310 q 279 363 232 350 q 376 381 326 376 q 472 387 425 387 l 472 473 q 467 543 472 509 q 450 604 463 577 q 410 647 436 630 q 338 666 383 664 q 296 662 317 666 q 255 649 274 658 q 219 626 235 640 q 193 592 203 612 q 207 567 203 581 q 211 540 211 553 q 207 521 211 532 q 197 502 204 511 q 177 486 190 493 q 148 481 165 480 q 104 501 119 482 q 90 550 90 521 q 110 615 90 584 q 167 668 130 645 q 254 704 204 691 q 365 717 305 717 q 537 655 482 717 q 591 459 593 593 l 591 147 q 590 103 591 125 q 586 53 589 81 l 684 58 l 684 1 l 634 1 m 471 138 q 471 172 471 154 q 471 210 471 190 q 471 224 471 213 q 471 253 471 236 q 471 293 471 271 q 471 340 471 315 q 404 334 439 338 q 337 320 370 329 q 275 297 304 311 q 224 263 246 283 q 190 217 203 243 q 180 159 178 192 q 189 114 180 133 q 213 82 199 95 q 247 63 228 69 q 287 57 266 57 q 340 62 315 57 q 386 78 364 67 q 429 103 408 88 q 471 138 449 118 "},"Љ":{"x_min":17,"x_max":1282,"ha":1326,"o":"m 877 569 q 1069 555 992 574 q 1194 499 1147 536 q 1261 409 1241 462 q 1282 296 1282 357 q 1257 167 1282 223 q 1188 74 1232 111 q 1085 19 1145 38 q 954 0 1025 0 l 583 0 l 583 46 q 641 59 621 46 q 669 94 660 72 q 678 147 677 116 q 679 216 679 178 l 679 917 l 483 917 q 425 892 443 913 q 405 838 407 870 l 405 807 q 400 605 405 706 q 384 412 396 504 q 352 241 372 320 q 302 103 332 161 q 232 11 273 44 q 137 -22 191 -22 q 90 -16 112 -22 q 52 1 68 -10 q 26 30 36 13 q 17 71 17 48 q 21 98 17 85 q 32 121 25 111 q 51 137 40 130 q 78 144 63 143 q 107 139 95 145 q 128 124 120 133 q 140 103 136 115 q 144 82 144 92 q 141 61 144 69 q 131 44 139 53 q 155 34 143 34 q 217 82 184 34 q 276 222 249 131 q 321 443 303 312 q 339 737 339 573 l 339 917 l 309 917 l 209 911 l 209 973 l 894 973 l 894 926 q 836 911 856 925 q 808 876 816 898 q 800 823 800 854 q 800 755 800 793 l 800 566 l 877 569 m 498 917 l 496 917 l 498 917 m 800 164 q 798 100 800 126 q 795 56 797 73 q 828 53 811 54 q 861 53 845 53 q 889 53 877 53 q 908 53 901 53 q 1006 66 962 53 q 1081 109 1050 80 q 1130 183 1113 138 q 1148 290 1148 228 q 1128 400 1148 356 q 1075 469 1108 444 q 999 505 1042 494 q 908 516 956 516 q 874 515 888 516 q 850 515 861 515 q 827 513 839 514 q 800 512 816 512 l 800 164 "},"р":{"x_min":40.46875,"x_max":770.78125,"ha":829,"o":"m 133 527 q 134 571 133 548 q 138 617 134 593 l 40 612 l 40 670 q 114 673 85 670 q 160 681 142 676 q 186 693 177 687 q 203 708 196 700 l 244 708 q 247 676 245 694 q 250 633 248 657 q 296 667 271 651 q 350 693 321 683 q 407 710 378 704 q 465 717 436 717 q 581 693 526 717 q 678 625 636 669 q 745 516 720 580 q 770 371 770 452 q 757 260 770 312 q 720 164 744 208 q 663 86 696 121 q 591 27 631 51 q 508 -9 552 3 q 416 -22 463 -22 q 250 23 320 -22 l 250 -206 q 249 -255 250 -234 q 244 -301 248 -277 l 332 -296 l 332 -354 l 48 -354 l 48 -312 q 97 -299 80 -312 q 120 -265 113 -287 q 128 -211 127 -242 q 130 -143 130 -180 l 133 527 m 416 649 q 368 642 391 649 q 324 625 345 636 q 284 600 303 615 q 252 570 266 586 q 252 558 252 565 q 252 534 252 551 q 252 486 252 517 q 252 403 252 455 q 251 274 252 351 q 251 87 251 197 q 327 47 285 61 q 414 33 368 33 q 502 56 463 33 q 570 122 542 80 q 612 223 597 165 q 627 350 627 281 q 615 460 627 406 q 578 556 603 514 q 513 623 553 598 q 416 649 473 649 "},"Ω":{"x_min":79,"x_max":1001.390625,"ha":1084,"o":"m 616 104 q 706 150 662 116 q 784 235 749 183 q 839 355 818 287 q 861 502 861 422 q 851 612 861 558 q 824 714 842 666 q 779 804 806 763 q 716 875 752 845 q 637 923 681 906 q 540 940 593 940 q 442 923 487 940 q 362 877 398 906 q 298 809 325 849 q 252 723 270 769 q 224 626 234 676 q 215 523 215 575 q 239 351 215 426 q 301 222 263 275 q 385 139 339 169 q 477 104 432 109 l 477 0 l 112 0 l 105 187 l 147 187 q 157 138 147 157 q 188 108 167 119 q 241 93 209 97 q 318 90 274 90 l 416 90 l 416 91 q 285 151 347 110 q 178 249 224 192 q 105 376 132 306 q 79 526 79 447 q 91 637 79 581 q 129 745 104 693 q 192 843 154 797 q 282 922 230 888 q 398 975 334 956 q 541 995 462 995 q 688 975 622 995 q 805 921 754 955 q 893 842 856 887 q 954 744 930 796 q 989 636 978 692 q 1001 526 1001 580 q 971 379 1001 448 q 892 253 941 309 q 785 155 844 196 q 665 91 725 113 l 665 90 l 780 90 q 857 93 824 90 q 910 108 889 97 q 941 138 931 119 q 951 187 951 157 l 993 187 l 984 0 l 616 0 l 616 104 "},"т":{"x_min":30.234375,"x_max":657.09375,"ha":688,"o":"m 604 485 q 597 557 602 528 q 578 604 591 587 q 543 628 565 621 q 489 636 521 636 l 402 636 l 402 147 q 401 98 402 119 q 397 52 400 76 l 484 57 l 484 0 l 200 0 l 200 41 q 249 53 232 41 q 273 88 266 66 q 282 142 281 110 q 285 210 284 173 l 285 547 q 285 593 285 575 q 290 636 286 612 l 189 636 q 141 628 161 636 q 108 604 121 621 q 89 557 95 587 q 83 485 83 528 l 30 485 l 36 695 l 651 695 l 657 485 l 604 485 "},"П":{"x_min":76.375,"x_max":980.703125,"ha":1057,"o":"m 980 927 q 921 912 941 925 q 893 876 901 899 q 885 823 885 854 q 885 755 885 793 l 885 165 q 881 55 885 91 l 980 61 l 980 0 l 667 0 l 667 46 q 727 60 707 47 q 755 95 747 73 q 763 149 763 118 q 764 216 764 180 l 764 918 l 385 913 q 337 903 355 911 q 310 880 320 894 q 297 846 300 866 q 293 801 293 826 l 293 165 q 291 100 293 127 q 288 55 290 73 l 388 61 l 388 0 l 76 0 l 76 46 q 135 60 115 47 q 163 95 155 73 q 171 148 171 118 q 172 216 172 179 l 172 816 q 173 870 172 845 q 177 917 174 896 l 76 911 l 76 973 l 980 973 l 980 927 "},"Ö":{"x_min":64,"x_max":1042.359375,"ha":1103,"o":"m 200 511 q 209 405 200 460 q 238 296 219 349 q 287 196 258 243 q 357 112 317 148 q 448 56 397 77 q 561 35 498 35 q 665 52 618 35 q 751 99 713 69 q 817 171 789 129 q 865 259 846 212 q 894 359 884 306 q 904 460 904 413 q 893 571 904 510 q 861 685 882 632 q 809 785 840 739 q 739 866 779 832 q 649 920 699 900 q 543 940 600 940 q 393 902 457 940 q 285 802 328 864 q 221 665 243 741 q 200 511 200 589 m 64 486 q 76 605 64 544 q 116 722 89 665 q 182 828 142 778 q 276 914 222 877 q 397 973 329 952 q 547 995 465 995 q 702 973 632 995 q 826 914 771 951 q 921 827 881 877 q 989 721 962 778 q 1029 604 1015 664 q 1042 486 1042 544 q 1029 368 1042 428 q 989 252 1015 308 q 923 145 963 195 q 829 58 883 95 q 708 0 775 21 q 558 -22 640 -22 q 399 0 470 -22 q 273 56 328 20 q 179 141 218 92 q 113 247 139 190 q 76 364 88 303 q 64 486 64 426 m 751 1165 q 745 1131 751 1147 q 728 1103 739 1115 q 704 1084 718 1091 q 675 1078 690 1078 q 646 1084 659 1078 q 622 1103 632 1091 q 606 1131 612 1115 q 600 1165 600 1147 q 606 1200 600 1183 q 623 1228 612 1216 q 647 1247 633 1240 q 676 1255 661 1255 q 705 1247 692 1255 q 729 1228 719 1240 q 745 1200 739 1216 q 751 1165 751 1183 m 501 1165 q 495 1131 501 1147 q 478 1103 489 1115 q 454 1084 468 1091 q 425 1078 440 1078 q 396 1084 409 1078 q 372 1103 382 1091 q 356 1131 362 1115 q 350 1165 350 1147 q 356 1200 350 1183 q 373 1228 362 1216 q 397 1247 383 1240 q 426 1255 411 1255 q 455 1247 442 1255 q 479 1228 469 1240 q 495 1200 489 1216 q 501 1165 501 1183 "},"z":{"x_min":55.96875,"x_max":649,"ha":710,"o":"m 55 0 l 55 57 q 486 610 476 598 q 506 632 497 622 q 522 646 515 641 l 261 641 q 197 625 222 641 q 157 583 172 610 q 133 521 142 557 q 119 446 125 486 l 77 446 l 93 695 l 637 695 l 637 650 l 246 135 q 229 114 237 123 q 213 95 222 104 q 196 77 205 86 q 173 57 186 67 l 441 53 q 514 67 485 52 q 562 110 543 83 q 591 174 581 137 q 608 253 602 210 l 649 253 l 632 0 l 55 0 "},"":{"x_min":69,"x_max":644,"ha":735,"o":"m 69 695 l 644 695 l 644 0 l 69 0 l 69 695 m 184 52 l 528 52 l 528 643 l 184 643 l 184 52 "},"™":{"x_min":87.453125,"x_max":1395.5,"ha":1483,"o":"m 651 973 l 830 973 l 953 675 q 982 603 967 641 q 1015 526 997 566 l 1017 526 q 1065 639 1043 584 q 1109 747 1087 694 q 1154 857 1131 801 q 1200 973 1176 912 l 1363 973 l 1363 927 q 1334 920 1346 926 q 1316 905 1322 914 q 1307 881 1309 895 q 1304 850 1304 867 q 1315 686 1304 845 q 1327 515 1326 527 q 1327 492 1327 504 l 1327 469 l 1395 471 l 1395 423 l 1166 423 l 1166 462 l 1174 462 q 1218 487 1206 465 q 1230 544 1230 509 q 1230 553 1230 548 q 1211 847 1230 557 l 1210 847 l 1034 416 l 969 416 q 914 536 943 473 q 860 661 886 599 q 810 778 833 722 q 773 877 787 834 l 771 877 q 771 852 771 865 q 770 828 771 840 l 759 525 q 757 493 758 508 q 752 467 755 479 l 820 471 l 820 425 l 624 425 l 624 463 q 658 471 645 464 q 679 491 671 478 q 689 521 686 503 q 694 560 692 538 q 700 703 698 644 q 705 801 703 761 q 707 863 706 841 q 708 898 708 886 q 709 914 708 910 q 710 921 709 919 l 651 917 l 651 973 m 295 920 l 206 919 q 146 885 163 918 q 129 789 129 852 l 87 789 l 92 973 l 596 973 l 601 789 l 560 789 q 553 848 558 822 q 537 889 548 873 q 505 913 525 905 q 455 921 486 921 l 394 920 l 394 525 l 394 501 q 394 484 394 492 q 393 469 394 476 l 457 471 l 457 422 l 230 422 l 230 460 q 262 467 250 460 q 282 485 275 473 q 292 512 289 496 q 295 546 295 527 l 295 920 "},"Ř":{"x_min":77.046875,"x_max":873.140625,"ha":872,"o":"m 388 433 q 341 432 365 432 q 294 435 317 432 l 294 164 q 293 99 294 126 q 289 55 292 72 l 389 60 l 389 0 l 77 0 l 77 45 q 136 59 116 46 q 163 95 155 72 q 172 148 172 117 q 172 215 172 179 l 172 816 q 173 870 172 845 q 177 917 174 895 l 77 910 l 77 972 q 235 974 155 974 q 395 974 314 975 q 566 954 495 971 q 684 905 638 937 q 751 828 729 873 q 772 724 772 782 q 761 641 772 684 q 721 561 750 599 q 642 493 692 523 q 512 447 591 463 q 561 397 539 427 q 608 325 582 366 l 703 177 q 737 125 721 149 q 773 83 753 101 q 816 55 792 65 q 873 45 840 45 l 873 0 l 698 0 q 661 35 677 17 q 630 71 645 52 q 602 110 616 90 q 574 153 588 130 l 481 302 q 461 334 471 317 q 439 369 451 351 q 415 403 428 386 q 388 433 402 420 m 294 488 q 335 485 315 486 q 380 485 355 484 q 484 500 437 488 q 565 539 531 513 q 618 607 599 566 q 637 709 637 649 q 577 867 637 814 q 389 921 517 921 q 330 909 350 921 q 302 875 311 897 q 294 823 294 853 q 294 755 294 792 l 294 488 m 436 1036 l 433 1036 l 177 1232 l 208 1279 l 438 1156 l 441 1156 l 677 1282 l 705 1237 l 436 1036 "},"ã":{"x_min":48,"x_max":682.609375,"ha":717,"o":"m 471 341 q 404 335 439 339 q 337 321 370 330 q 275 298 304 312 q 224 264 246 283 q 191 218 203 244 q 180 159 178 192 q 190 114 180 133 q 213 82 199 95 q 247 63 228 69 q 288 57 266 57 q 340 62 315 57 q 386 78 364 67 q 429 103 408 89 q 471 138 449 118 l 471 341 m 90 550 q 110 615 90 584 q 167 668 130 645 q 254 704 203 691 q 364 717 304 717 q 536 655 481 717 q 591 459 591 593 l 589 147 q 588 103 589 125 q 584 53 587 81 l 682 58 l 682 0 l 483 0 q 477 41 479 23 q 474 78 475 59 q 372 5 427 32 q 255 -22 317 -22 q 164 -9 203 -22 q 99 25 125 3 q 60 78 73 47 q 48 142 48 108 q 66 221 48 185 q 116 283 85 256 q 190 331 148 311 q 279 364 232 351 q 375 382 326 377 q 471 388 424 388 l 471 474 q 467 544 471 510 q 449 605 463 578 q 406 649 435 633 q 338 666 376 666 q 295 662 315 666 q 255 649 275 658 q 219 626 235 640 q 193 592 203 612 q 207 567 203 581 q 211 540 211 553 q 208 522 211 532 q 197 502 204 511 q 179 487 190 493 q 149 482 168 482 q 105 501 121 482 q 90 550 90 521 m 246 925 q 192 911 220 925 q 144 866 164 897 l 103 890 q 127 936 111 915 q 163 974 143 957 q 204 999 183 990 q 244 1010 225 1009 q 301 998 277 1010 q 346 973 326 986 q 386 947 367 959 q 428 936 405 936 q 485 954 458 936 q 529 1003 512 972 l 570 982 q 541 922 558 947 q 505 881 525 898 q 466 857 486 865 q 428 850 446 850 q 370 861 395 850 q 323 887 345 873 q 283 913 302 901 q 246 925 265 925 "},"Ň":{"x_min":80.125,"x_max":999.71875,"ha":1059,"o":"m 904 -22 l 836 -22 l 234 788 l 232 788 l 236 192 q 236 122 236 156 q 234 55 236 88 l 334 60 l 334 0 l 80 0 l 80 45 q 130 56 112 45 q 157 84 148 67 q 169 119 166 100 q 171 154 171 138 l 173 918 l 80 911 l 80 973 l 245 973 l 836 181 l 838 181 l 839 817 q 843 918 839 875 l 744 911 l 744 973 l 999 973 l 999 927 q 941 912 960 926 q 913 877 921 899 q 906 824 906 854 q 906 756 906 793 l 904 -22 m 537 1036 l 535 1036 l 279 1232 l 309 1279 l 540 1156 l 543 1156 l 779 1282 l 807 1237 l 537 1036 "},"æ":{"x_min":47,"x_max":1022.609375,"ha":1079,"o":"m 479 149 q 475 186 477 163 q 471 236 473 210 q 467 288 469 262 q 464 335 465 314 q 367 323 418 332 q 275 293 317 313 q 206 241 233 273 q 179 162 179 209 q 190 110 179 130 q 217 78 200 90 q 254 61 234 66 q 292 57 274 57 q 395 81 350 57 q 479 149 440 105 m 762 662 q 693 645 722 662 q 645 601 664 629 q 615 537 626 574 q 599 460 604 501 l 889 460 q 884 532 889 496 q 866 597 880 568 q 828 644 853 626 q 762 662 803 662 m 92 545 q 109 607 92 576 q 160 662 127 638 q 241 702 194 687 q 349 717 289 717 q 468 685 419 717 q 541 597 516 653 q 636 683 580 649 q 768 717 693 717 q 865 700 821 717 q 943 646 910 683 q 995 551 976 609 q 1014 410 1013 492 l 590 402 q 588 351 588 375 q 604 221 588 278 q 647 126 619 165 q 713 68 675 88 q 796 49 751 49 q 856 57 828 49 q 906 82 883 66 q 950 118 930 97 q 988 165 970 140 l 1022 137 q 963 63 994 93 q 899 14 932 33 q 832 -13 866 -5 q 762 -22 798 -22 q 616 9 680 -22 q 514 109 553 40 l 513 109 q 456 48 486 73 q 392 7 425 23 q 323 -14 359 -7 q 249 -22 287 -22 q 164 -9 202 -22 q 100 23 127 2 q 60 74 74 45 q 47 139 47 104 q 65 217 47 182 q 114 278 83 251 q 187 325 146 306 q 275 357 228 344 q 371 375 322 369 q 467 382 420 382 l 467 466 q 463 539 467 504 q 445 603 459 575 q 403 648 431 631 q 329 666 376 666 q 284 660 306 666 q 244 643 262 654 q 212 617 226 632 q 191 583 198 602 q 205 560 200 574 q 210 537 210 546 q 206 519 210 529 q 196 500 203 509 q 177 485 188 491 q 149 479 165 479 q 107 496 123 479 q 92 545 92 514 "},"É":{"x_min":76.375,"x_max":801,"ha":864,"o":"m 293 160 q 292 95 293 121 q 288 52 291 69 l 554 56 q 636 67 599 56 q 698 102 672 77 q 739 168 725 127 q 753 271 753 209 l 801 271 l 792 0 l 76 0 l 76 46 q 128 57 109 47 q 157 83 148 66 q 169 124 167 100 q 172 176 172 147 l 172 216 l 172 817 q 173 871 172 846 q 176 918 174 896 l 76 911 l 76 973 l 744 973 l 751 730 l 705 730 q 691 827 705 789 q 653 886 677 865 q 597 916 629 908 q 526 924 564 924 l 398 922 q 338 909 359 919 q 306 879 317 899 q 295 829 296 859 q 293 755 293 798 l 293 532 l 553 532 l 543 652 l 605 652 l 605 360 l 559 360 q 552 424 559 400 q 530 461 545 448 q 491 478 514 474 q 434 482 468 482 q 415 482 425 482 q 293 478 405 482 l 293 160 m 401 1055 l 371 1095 l 546 1262 q 583 1283 566 1279 q 611 1285 599 1288 q 630 1277 623 1283 q 639 1269 637 1271 q 646 1255 643 1264 q 647 1233 650 1246 q 636 1207 645 1221 q 603 1178 626 1193 l 401 1055 "},"ұ":{"x_min":7.515625,"x_max":696.890625,"ha":701,"o":"m 696 654 q 656 642 673 654 q 625 606 639 630 q 595 548 610 583 q 561 465 580 512 l 407 65 l 614 65 l 614 1 l 410 -1 l 410 -206 q 409 -255 410 -234 q 405 -301 408 -277 l 492 -296 l 492 -354 l 208 -354 l 208 -313 q 256 -300 240 -313 q 280 -265 273 -287 q 289 -211 288 -242 q 291 -142 290 -180 l 291 -2 l 110 -4 l 110 65 l 293 65 l 125 449 q 97 519 108 488 q 79 573 86 549 q 70 613 73 596 q 67 642 67 629 l 7 637 l 7 695 l 263 695 l 263 654 q 217 641 231 654 q 202 606 203 628 q 209 557 200 585 q 231 499 217 529 l 337 254 q 358 199 348 228 q 378 141 368 171 l 380 141 l 414 241 l 524 546 q 548 604 536 579 q 565 642 559 629 l 477 637 l 477 695 l 696 695 l 696 654 "},"и":{"x_min":60.90625,"x_max":809.0625,"ha":870,"o":"m 727 147 q 724 98 725 119 q 720 52 723 76 l 807 57 l 807 0 l 523 0 l 523 41 q 572 53 555 41 q 596 88 589 66 q 605 142 604 110 q 608 210 607 173 l 608 525 l 261 89 q 259 71 260 80 q 257 52 258 62 l 344 56 l 344 0 l 60 0 l 60 41 q 109 53 92 41 q 133 88 126 66 q 142 142 141 110 q 145 210 144 173 l 145 547 q 145 596 145 575 q 150 642 146 618 l 62 637 l 62 695 l 346 695 l 346 654 q 297 641 314 654 q 273 606 281 628 q 264 552 265 583 q 262 483 262 521 l 262 187 l 610 616 q 611 629 610 623 q 613 642 611 635 l 525 638 l 525 695 l 809 695 l 809 654 q 760 641 777 654 q 736 606 743 628 q 728 552 729 584 q 727 484 727 521 l 727 147 "},"~":{"x_min":94,"x_max":711,"ha":806,"o":"m 264 426 q 213 420 236 426 q 169 405 190 415 q 131 384 149 396 q 94 358 112 371 l 94 445 q 135 477 115 463 q 176 500 155 491 q 219 515 197 510 q 270 520 242 520 q 335 512 307 520 q 384 492 363 504 q 424 467 406 481 q 461 442 442 453 q 501 422 479 430 q 550 415 522 415 q 637 432 597 415 q 711 481 677 450 l 711 393 q 641 341 682 361 q 545 321 600 321 q 484 328 510 321 q 435 348 457 336 q 395 373 414 359 q 356 398 376 387 q 314 418 336 410 q 264 426 292 426 "},"³":{"x_min":75,"x_max":441,"ha":514,"o":"m 75 548 q 86 584 75 569 q 120 599 98 599 q 139 594 131 599 q 151 584 146 590 q 159 569 157 577 q 161 554 161 561 q 158 538 161 546 q 150 524 155 530 q 160 499 152 509 q 180 483 168 490 q 208 474 193 477 q 238 471 223 471 q 286 481 265 471 q 319 508 306 491 q 339 545 333 524 q 346 587 346 566 q 342 625 346 604 q 326 664 338 646 q 290 695 314 683 q 232 708 265 708 q 194 706 215 708 l 194 751 l 210 751 q 273 762 250 751 q 307 790 296 774 q 322 823 319 806 q 325 852 325 840 q 321 886 325 868 q 306 917 316 903 q 279 940 296 931 q 238 949 262 949 q 181 931 202 949 q 156 893 160 913 q 169 862 169 881 q 167 849 169 856 q 159 836 164 842 q 146 826 154 830 q 127 822 139 822 q 99 835 109 822 q 89 867 89 849 q 99 908 89 886 q 130 949 110 930 q 181 982 150 969 q 253 995 212 995 q 318 985 289 995 q 369 958 348 976 q 401 915 389 940 q 413 860 413 890 q 405 823 413 842 q 383 788 398 805 q 346 757 368 771 q 295 736 324 744 l 295 735 q 358 719 331 731 q 404 686 386 706 q 431 641 422 666 q 441 588 441 615 q 427 524 441 554 q 389 472 414 494 q 328 436 364 449 q 246 424 292 424 q 172 434 204 424 q 119 463 140 445 q 86 503 97 481 q 75 548 75 525 "},"¡":{"x_min":88.234375,"x_max":251,"ha":338,"o":"m 88 628 q 95 662 88 646 q 113 691 101 678 q 139 710 124 703 q 170 717 154 717 q 201 710 186 717 q 226 691 215 703 q 244 662 238 678 q 251 628 251 646 q 244 592 251 609 q 226 563 237 575 q 200 544 215 551 q 168 537 185 537 q 137 544 151 537 q 111 563 122 551 q 94 592 100 575 q 88 628 88 609 m 143 375 l 195 375 l 249 -197 q 246 -234 251 -215 q 232 -267 242 -252 q 206 -290 221 -281 q 168 -299 190 -299 q 130 -290 146 -299 q 105 -267 115 -281 q 91 -234 95 -252 q 89 -197 88 -215 l 143 375 "},"[":{"x_min":110,"x_max":482,"ha":499,"o":"m 111 1049 l 479 1049 l 479 966 l 215 961 l 209 -266 l 482 -271 l 482 -354 l 110 -354 l 111 1049 "},"К":{"x_min":76.375,"x_max":941.375,"ha":949,"o":"m 883 927 q 803 915 838 923 q 734 886 767 906 q 669 831 701 866 q 602 739 637 796 l 466 522 q 501 496 486 510 q 531 467 517 482 q 556 436 544 452 q 581 404 569 420 l 737 197 q 805 114 776 144 q 856 68 833 84 q 899 49 879 53 q 941 46 919 46 l 941 0 l 771 0 q 746 11 761 0 q 711 41 730 22 q 672 85 693 60 q 631 136 651 110 l 465 361 q 412 427 438 395 q 360 474 385 458 l 293 472 l 293 165 q 291 100 293 127 q 288 56 290 73 l 388 61 l 388 0 l 76 0 l 76 46 q 135 60 115 47 q 163 95 155 73 q 171 148 171 117 q 172 216 172 179 l 172 817 q 173 871 172 846 q 177 918 174 896 l 76 911 l 76 973 l 388 973 l 388 927 q 329 912 349 926 q 301 877 309 899 q 293 824 293 854 q 293 756 293 793 l 293 528 l 396 528 l 570 802 q 590 831 579 815 q 614 862 601 847 q 640 892 626 878 q 669 919 655 907 l 584 916 l 584 973 l 883 973 l 883 927 "},"Γ":{"x_min":76.375,"x_max":727.734375,"ha":761,"o":"m 681 729 q 666 829 681 791 q 624 889 651 867 q 563 917 598 910 q 489 924 529 924 l 388 921 q 329 906 349 919 q 301 870 309 893 q 293 816 293 847 q 293 750 293 786 l 293 165 q 291 100 293 127 q 288 55 290 73 l 429 61 l 429 0 l 76 0 l 76 46 q 135 60 115 47 q 163 95 155 73 q 171 148 171 118 q 172 216 172 179 l 172 816 q 173 870 172 845 q 177 917 174 895 l 76 910 l 76 973 l 720 973 l 727 729 l 681 729 "},"%":{"x_min":50,"x_max":1160,"ha":1209,"o":"m 169 747 q 175 674 169 714 q 196 600 180 635 q 237 543 211 566 q 305 520 264 520 q 369 538 343 520 q 409 585 394 557 q 431 648 424 614 q 437 715 437 683 q 431 790 437 750 q 409 865 424 831 q 368 922 394 899 q 303 945 341 945 q 237 923 263 945 q 196 872 212 902 q 175 808 181 842 q 169 747 169 774 m 1017 939 l 229 -24 l 170 24 l 954 995 l 1017 939 m 50 725 q 66 822 50 774 q 114 907 82 869 q 193 969 147 946 q 301 995 240 993 q 414 974 366 996 q 494 915 462 952 q 541 832 525 879 q 557 738 557 786 q 536 635 557 685 q 482 548 516 586 q 401 488 447 510 q 301 466 354 466 q 192 487 239 466 q 113 545 145 509 q 65 628 81 581 q 50 725 50 675 m 1040 224 q 1038 272 1040 247 q 1029 323 1035 298 q 1013 372 1023 349 q 988 413 1003 395 q 952 442 973 431 q 904 453 931 453 q 841 434 866 453 q 800 387 816 416 q 779 324 785 359 q 772 257 772 290 q 779 182 772 222 q 802 107 786 142 q 845 50 818 73 q 910 28 871 28 q 974 48 949 28 q 1014 99 999 69 q 1034 164 1029 130 q 1040 224 1040 198 m 1160 247 q 1143 151 1160 199 q 1095 65 1127 103 q 1016 2 1063 26 q 909 -22 970 -21 q 796 -1 844 -23 q 715 57 747 20 q 667 140 683 93 q 652 235 652 186 q 672 337 652 288 q 727 424 692 386 q 809 484 762 462 q 909 507 856 507 q 1017 485 970 507 q 1096 427 1065 463 q 1144 344 1128 391 q 1160 247 1160 297 "},"P":{"x_min":76.375,"x_max":805.96875,"ha":841,"o":"m 342 366 q 321 366 336 366 q 293 366 306 366 l 293 165 q 292 99 293 127 q 288 55 291 72 l 416 61 l 416 0 l 76 0 l 76 45 q 135 59 115 46 q 163 95 155 72 q 171 148 171 117 q 172 215 172 179 l 172 816 q 173 870 172 845 q 176 917 174 895 l 76 910 l 76 972 q 226 974 149 974 q 386 975 304 975 q 693 907 588 975 q 805 690 805 833 q 799 626 805 661 q 773 553 793 591 q 719 481 753 515 q 633 421 685 447 q 509 381 581 396 q 342 366 437 366 m 293 424 q 338 420 319 421 q 383 420 357 420 q 495 437 442 420 q 586 488 547 455 q 648 570 625 522 q 671 679 671 618 q 649 790 671 744 q 591 865 628 836 q 500 907 553 894 q 383 920 447 920 q 327 908 346 920 q 301 874 309 896 q 293 822 293 853 q 293 755 293 792 l 293 424 "},"∏":{"x_min":76.375,"x_max":1027.6875,"ha":1104,"o":"m 1027 927 q 968 912 988 925 q 940 876 948 899 q 932 823 932 854 q 932 755 932 793 l 932 -188 q 928 -298 932 -262 l 1027 -292 l 1027 -353 l 714 -353 l 714 -307 q 774 -293 754 -306 q 802 -258 794 -280 q 810 -204 810 -235 q 811 -137 811 -173 l 811 918 l 293 911 l 293 -188 q 291 -253 293 -226 q 288 -298 290 -280 l 388 -292 l 388 -353 l 76 -353 l 76 -307 q 135 -293 115 -306 q 163 -258 155 -280 q 171 -205 171 -235 q 172 -137 172 -174 l 172 816 q 173 870 172 845 q 177 917 174 895 l 76 910 l 76 973 l 1027 973 l 1027 927 "},"_":{"x_min":79,"x_max":933,"ha":1013,"o":"m 79 -69 l 933 -75 l 933 -154 l 79 -154 l 79 -69 "},"Ŕ":{"x_min":76.375,"x_max":872.46875,"ha":872,"o":"m 387 433 q 340 432 364 432 q 293 435 317 432 l 293 164 q 292 99 293 126 q 288 55 291 72 l 389 60 l 389 0 l 76 0 l 76 45 q 135 59 115 46 q 163 95 155 72 q 171 148 171 117 q 172 215 172 179 l 172 816 q 173 870 172 845 q 176 917 174 895 l 76 910 l 76 972 q 234 974 155 974 q 394 974 313 975 q 566 954 494 971 q 683 905 637 937 q 750 828 729 873 q 771 724 771 782 q 761 641 771 684 q 721 561 750 599 q 641 493 692 523 q 511 447 591 463 q 560 397 538 427 q 607 325 582 366 l 702 177 q 736 125 720 149 q 772 83 753 101 q 815 55 791 65 q 872 45 839 45 l 872 0 l 697 0 q 660 35 677 17 q 630 71 644 52 q 601 110 615 90 q 573 153 588 130 l 480 302 q 460 334 470 317 q 439 369 450 351 q 414 403 427 386 q 387 433 401 420 m 293 488 q 335 485 315 486 q 379 485 355 484 q 483 500 436 488 q 564 539 530 513 q 618 607 599 566 q 637 709 637 649 q 577 867 637 814 q 388 921 517 921 q 330 909 349 921 q 302 875 310 897 q 293 823 294 853 q 293 755 293 792 l 293 488 m 357 1055 l 326 1095 l 501 1262 q 538 1283 522 1279 q 567 1285 555 1288 q 586 1277 579 1283 q 595 1269 593 1271 q 602 1255 599 1264 q 603 1233 605 1246 q 592 1207 601 1221 q 558 1178 582 1193 l 357 1055 "},"ñ":{"x_min":51.4375,"x_max":801.4375,"ha":842,"o":"m 144 527 q 145 571 144 548 q 149 617 145 593 l 51 612 l 51 670 q 125 673 96 670 q 171 681 153 676 q 197 693 188 687 q 215 708 207 700 l 255 708 q 258 672 256 692 q 261 624 260 652 q 310 660 284 643 q 366 690 337 677 q 426 709 395 702 q 487 717 457 717 q 663 641 608 717 q 719 406 719 565 l 719 147 q 718 98 719 119 q 713 53 718 76 l 801 57 l 801 0 l 517 0 l 517 41 q 566 54 549 41 q 590 88 583 66 q 598 142 597 111 q 600 210 600 173 l 600 404 q 560 585 598 524 q 440 646 522 646 q 389 638 414 646 q 341 619 364 631 q 298 591 318 607 q 263 555 277 574 q 263 529 263 543 q 263 501 263 515 l 262 147 q 261 98 262 119 q 256 53 261 76 l 344 57 l 344 0 l 60 0 l 60 41 q 109 54 92 41 q 133 88 126 66 q 141 142 140 111 q 143 210 142 173 l 144 527 m 332 925 q 278 911 306 925 q 230 866 250 897 l 189 890 q 213 936 197 915 q 249 974 229 957 q 290 999 269 990 q 330 1010 311 1009 q 387 998 363 1010 q 432 973 412 986 q 472 947 453 959 q 514 936 491 936 q 571 954 544 936 q 615 1003 598 972 l 656 982 q 627 922 644 947 q 591 881 611 898 q 552 857 572 865 q 514 850 532 850 q 456 861 481 850 q 409 887 431 873 q 369 913 388 901 q 332 925 351 925 "},"‚":{"x_min":92.015625,"x_max":267,"ha":351,"o":"m 126 -220 q 151 -181 138 -206 q 173 -127 163 -157 q 189 -64 183 -97 q 190 0 194 -32 q 152 -7 170 -9 q 121 2 134 -6 q 99 26 107 11 q 92 59 92 41 q 114 119 92 98 q 168 140 136 140 q 210 130 192 140 q 241 103 229 120 q 260 63 254 86 q 267 14 267 40 q 259 -47 267 -12 q 238 -120 252 -83 q 205 -190 224 -156 q 163 -248 186 -224 l 126 -220 "},"Æ":{"x_min":-28.84375,"x_max":1256,"ha":1318,"o":"m 1014 360 q 1005 430 1014 405 q 976 466 996 455 q 926 480 957 478 q 852 482 895 482 l 747 477 q 746 99 747 125 q 743 56 745 73 l 1016 52 q 1096 63 1060 52 q 1156 100 1131 75 q 1194 168 1181 126 q 1208 271 1208 209 l 1256 271 l 1247 0 l 531 0 l 531 51 l 542 51 q 585 61 569 53 q 611 86 602 70 q 623 125 620 102 q 627 181 627 149 l 627 308 l 288 300 l 125 55 l 230 60 l 230 0 l -28 0 l -28 45 q 21 57 -1 45 q 62 88 43 69 q 97 129 81 107 q 628 918 112 152 l 503 911 l 503 973 l 1199 973 l 1206 730 l 1160 730 q 1146 827 1160 789 q 1108 886 1132 865 q 1052 916 1084 908 q 981 924 1019 924 l 972 924 l 853 921 q 792 909 814 919 q 761 879 771 899 q 749 829 751 859 q 747 755 747 798 l 747 532 l 850 532 q 925 535 894 532 q 976 551 956 538 q 1005 590 996 564 q 1014 663 1014 616 l 1060 663 l 1060 360 l 1014 360 m 627 360 l 627 808 l 327 360 l 627 360 "},"ğ":{"x_min":48.671875,"x_max":791.3125,"ha":768,"o":"m 380 -45 q 306 -41 342 -43 q 237 -34 270 -39 q 178 -95 199 -59 q 157 -171 157 -130 q 174 -233 157 -206 q 221 -280 191 -260 q 296 -310 252 -300 q 393 -321 340 -321 q 500 -308 453 -321 q 580 -276 547 -296 q 629 -229 612 -256 q 646 -172 646 -202 q 626 -110 646 -134 q 571 -72 606 -86 q 487 -52 535 -58 q 380 -45 438 -47 m 369 668 q 302 653 331 668 q 253 611 273 638 q 223 549 233 585 q 212 471 212 513 q 223 380 212 421 q 255 309 234 339 q 306 263 276 279 q 376 247 337 247 q 443 261 414 247 q 491 300 472 275 q 520 361 511 326 q 530 437 530 396 q 520 524 530 482 q 489 598 510 566 q 439 648 469 629 q 369 668 409 668 m 673 721 q 642 710 655 719 q 618 689 628 702 q 601 661 608 676 q 591 630 595 646 q 646 556 626 598 q 666 465 666 513 q 642 356 666 406 q 577 272 618 307 q 483 216 536 236 q 371 197 430 197 q 326 200 346 197 q 279 203 306 203 q 231 197 253 203 q 195 178 210 190 q 176 155 181 166 q 171 136 171 144 q 174 119 171 128 q 196 93 179 103 q 241 77 213 82 q 307 68 269 71 q 393 64 345 66 q 537 48 473 60 q 644 12 600 36 q 712 -49 688 -11 q 735 -144 735 -87 q 705 -243 735 -200 q 626 -316 675 -286 q 517 -360 578 -345 q 395 -376 456 -376 q 235 -359 301 -376 q 128 -316 169 -343 q 67 -256 86 -289 q 48 -188 48 -222 q 60 -129 48 -156 q 91 -82 73 -103 q 133 -46 110 -61 q 176 -21 155 -30 q 106 17 132 -7 q 80 87 80 42 q 90 135 80 111 q 119 178 101 158 q 163 211 137 197 q 219 230 188 224 q 161 266 187 245 q 117 314 135 287 q 89 373 99 341 q 79 442 79 405 q 105 555 79 504 q 171 642 130 606 q 265 697 212 678 q 371 717 317 717 q 464 703 418 717 q 548 664 509 690 q 576 718 558 693 q 615 761 593 743 q 663 789 637 779 q 717 800 689 800 q 771 781 752 800 q 791 730 791 763 q 787 712 791 722 q 777 693 784 702 q 758 678 770 684 q 730 673 747 672 q 692 687 707 673 q 673 721 677 701 m 365 839 q 310 848 337 839 q 256 878 282 858 q 210 928 231 898 q 177 1000 190 959 l 217 1021 q 244 984 228 1002 q 280 953 260 966 q 322 932 300 940 q 369 924 345 924 q 415 932 392 924 q 457 954 438 940 q 493 986 477 968 q 519 1023 508 1004 l 556 1007 q 490 892 529 934 q 365 839 439 839 "},"ѓ":{"x_min":60.578125,"x_max":590.265625,"ha":608,"o":"m 537 485 q 527 558 536 528 q 498 605 519 588 q 440 631 477 623 q 348 639 404 639 q 300 628 317 639 q 275 598 283 618 q 264 549 266 578 q 262 483 262 520 l 262 147 q 261 98 262 119 q 257 52 260 76 l 344 56 l 344 0 l 60 0 l 60 41 q 109 53 92 41 q 133 88 125 66 q 142 142 141 110 q 144 210 143 173 l 144 547 q 144 596 144 575 q 149 642 145 618 l 62 638 l 62 695 l 584 695 l 590 485 l 537 485 m 344 806 l 306 837 l 422 1025 q 453 1055 438 1047 q 479 1063 468 1063 q 501 1058 490 1063 q 518 1045 511 1054 q 527 1029 525 1036 q 530 1012 530 1021 q 528 998 530 1005 q 524 987 526 991 q 500 953 517 971 l 344 806 "},"ы":{"x_min":61.578125,"x_max":969.109375,"ha":1030,"o":"m 346 654 q 297 642 314 654 q 273 612 280 630 q 265 572 266 594 q 264 531 264 551 l 264 403 l 334 405 q 475 392 418 407 q 567 349 532 377 q 616 284 601 321 q 631 206 631 247 q 612 117 631 156 q 563 53 594 79 q 490 13 532 27 q 403 0 449 0 l 61 0 l 61 41 q 102 50 86 42 q 128 74 119 59 q 141 110 138 89 q 145 160 145 132 l 145 547 q 145 596 145 575 q 150 642 146 618 l 62 637 l 62 695 l 346 695 l 346 654 m 969 654 q 920 641 937 654 q 896 606 904 628 q 887 552 888 584 q 885 484 885 521 l 885 147 q 884 98 885 119 q 880 53 883 76 l 967 57 l 967 0 l 683 0 l 683 41 q 732 53 715 41 q 756 88 749 66 q 765 142 764 111 q 768 211 767 173 l 768 547 q 768 596 768 575 q 773 642 769 618 l 685 637 l 685 695 l 969 695 l 969 654 m 264 134 q 263 88 264 107 q 261 57 262 69 q 353 55 307 55 q 413 63 385 55 q 462 88 441 71 q 495 134 483 106 q 508 201 508 162 q 467 313 508 273 q 353 353 426 353 q 327 352 338 353 q 305 352 315 352 q 285 351 295 351 q 264 350 275 350 l 264 134 "},"Ū":{"x_min":42.734375,"x_max":1002.1875,"ha":1044,"o":"m 903 434 q 883 260 902 343 q 820 115 863 178 q 705 15 776 52 q 529 -22 634 -22 q 343 7 418 -22 q 222 97 267 36 q 156 251 176 157 q 137 474 137 345 l 137 756 q 137 797 137 774 q 138 841 137 819 q 140 884 139 864 q 142 918 141 904 l 42 913 l 42 973 l 354 973 l 354 927 q 300 915 319 927 q 271 886 280 903 q 260 850 262 869 q 259 817 259 831 l 259 467 q 263 364 259 415 q 278 268 267 314 q 309 184 289 223 q 361 117 329 145 q 438 72 393 88 q 546 57 484 57 q 675 84 621 57 q 764 160 729 111 q 816 277 799 209 q 834 427 832 345 l 839 817 q 843 918 839 875 l 743 911 l 743 973 l 1002 973 l 1002 927 q 942 912 962 926 q 914 877 922 899 q 906 824 906 854 q 905 756 905 793 l 903 434 m 358 1251 l 726 1251 l 726 1173 l 358 1167 l 358 1251 "},"ª":{"x_min":75,"x_max":510.984375,"ha":568,"o":"m 346 748 q 284 741 315 748 q 228 723 253 735 q 188 691 203 711 q 173 646 173 672 q 183 610 173 624 q 205 592 193 597 q 227 586 217 586 q 237 586 237 586 q 292 600 265 586 q 344 637 320 614 l 346 748 m 97 866 q 110 913 97 890 q 148 954 124 936 q 205 983 172 972 q 277 995 238 995 q 392 954 352 995 q 433 828 433 914 l 431 673 q 441 610 430 630 q 470 590 451 590 q 495 601 479 590 l 510 575 q 495 559 504 567 q 473 545 485 551 q 447 534 460 538 q 422 530 434 530 q 390 535 403 530 q 368 549 377 540 q 355 568 360 557 q 347 589 350 578 q 288 544 321 561 q 211 528 254 528 q 109 557 143 528 q 75 631 75 586 q 100 703 75 673 q 165 753 125 733 q 253 781 205 772 q 346 791 301 791 l 346 838 q 344 879 346 859 q 333 914 342 899 q 307 938 325 929 q 258 948 289 948 q 232 944 245 948 q 207 933 219 940 q 187 916 196 926 q 175 895 179 906 q 186 861 186 881 q 184 847 186 854 q 176 833 181 839 q 162 822 170 826 q 141 818 153 818 q 108 832 120 818 q 97 866 97 847 "},"ї":{"x_min":27.671875,"x_max":361.03125,"ha":390,"o":"m 144 527 q 145 569 144 548 q 150 617 146 589 l 51 612 l 51 670 q 127 673 97 670 q 175 681 156 676 q 205 693 194 687 q 224 708 215 700 l 264 708 l 264 147 q 263 98 264 119 q 258 53 262 76 l 346 57 l 346 0 l 62 0 l 62 41 q 110 54 93 41 q 135 88 127 66 q 143 142 142 111 q 144 210 144 173 l 144 527 m 166 927 q 160 895 166 910 q 145 869 154 880 q 122 852 135 858 q 96 846 110 846 q 70 852 82 846 q 48 869 57 858 q 33 895 38 880 q 27 927 27 910 q 33 959 27 944 q 48 986 39 975 q 71 1004 58 998 q 97 1011 83 1011 q 125 1004 112 1011 q 146 986 137 998 q 160 959 155 975 q 166 927 166 944 m 361 927 q 355 895 361 910 q 340 869 349 880 q 317 852 330 858 q 291 846 305 846 q 265 852 277 846 q 243 869 252 858 q 228 895 233 880 q 222 927 222 910 q 228 959 222 944 q 243 986 234 975 q 266 1004 253 998 q 292 1011 278 1011 q 320 1004 307 1011 q 341 986 332 998 q 355 959 350 975 q 361 927 361 944 "},"Œ":{"x_min":64,"x_max":1358,"ha":1420,"o":"m 954 921 q 893 909 915 919 q 862 879 872 899 q 850 829 852 859 q 848 755 848 798 l 848 532 l 951 532 q 1026 535 995 532 q 1077 551 1057 538 q 1105 590 1096 564 q 1114 663 1114 616 l 1161 663 l 1161 360 l 1114 360 q 1105 430 1114 405 q 1076 467 1096 455 q 1026 481 1057 479 q 951 483 995 483 q 899 481 927 483 q 848 477 871 480 l 848 168 q 847 103 848 130 q 844 60 846 77 l 1111 52 l 1121 52 q 1198 63 1164 52 q 1258 101 1233 75 q 1296 168 1283 127 q 1309 271 1309 210 l 1358 271 l 1348 0 l 727 0 q 623 -16 672 -11 q 534 -22 575 -22 q 337 13 424 -22 q 189 113 250 49 q 96 265 128 178 q 64 457 64 353 q 76 587 64 522 q 115 710 89 651 q 181 821 141 769 q 276 910 222 872 q 399 970 330 948 q 552 995 468 992 q 593 993 571 995 q 638 988 616 991 q 684 981 661 985 q 727 973 707 977 l 1300 973 l 1307 730 l 1260 730 q 1246 827 1260 789 q 1209 886 1233 865 q 1152 916 1185 908 q 1082 924 1119 924 l 1073 924 l 954 921 m 728 904 q 641 929 687 922 q 555 937 596 937 q 418 906 482 937 q 305 817 353 875 q 228 675 256 759 q 200 487 200 592 q 227 304 200 386 q 304 165 254 223 q 422 76 353 107 q 575 45 491 45 q 649 50 614 45 q 728 66 685 55 l 728 904 "},"Ą":{"x_min":-8.78125,"x_max":886.203125,"ha":869,"o":"m 783 0 q 713 -31 746 -13 q 654 -73 680 -49 q 614 -126 629 -97 q 600 -190 600 -155 q 607 -229 600 -211 q 625 -259 614 -247 q 652 -278 637 -271 q 686 -285 668 -285 q 733 -274 711 -285 q 776 -247 756 -263 l 800 -272 q 768 -304 786 -288 q 729 -332 750 -319 q 683 -352 707 -345 q 634 -360 659 -360 q 574 -349 601 -360 q 527 -320 546 -338 q 497 -275 508 -301 q 487 -217 487 -249 q 503 -151 487 -183 q 545 -92 519 -120 q 608 -41 572 -65 q 684 0 644 -17 l 568 0 l 568 46 q 625 60 606 47 q 648 94 643 74 q 648 136 652 113 q 635 178 643 158 l 587 308 l 225 300 q 198 221 210 257 q 177 151 187 186 q 167 122 171 135 q 159 98 163 109 q 151 77 155 88 q 142 56 147 67 l 250 61 l 250 0 l -8 0 l -8 46 q 42 59 22 46 q 75 94 61 71 q 100 149 88 117 q 125 220 111 181 l 411 999 l 444 999 l 755 208 q 767 174 761 194 q 780 133 774 154 q 788 92 785 112 q 791 56 791 71 l 886 61 l 886 0 l 783 0 m 468 625 l 406 796 l 403 796 l 345 638 q 289 481 313 549 q 246 359 265 413 l 568 359 l 468 625 "},"T":{"x_min":30,"x_max":856,"ha":889,"o":"m 803 679 q 794 786 802 740 q 765 862 786 832 q 710 908 745 893 q 622 923 676 923 l 505 922 l 503 165 q 499 55 503 90 l 614 60 l 614 0 l 288 0 l 288 45 q 347 60 327 46 q 374 96 366 74 q 383 150 383 119 q 383 215 383 180 l 385 921 l 241 920 q 166 905 196 920 q 117 861 136 891 q 90 786 98 831 q 81 679 81 740 l 30 679 l 38 973 l 847 973 l 856 679 l 803 679 "},"Њ":{"x_min":76.375,"x_max":1367,"ha":1411,"o":"m 962 569 q 1154 555 1077 574 q 1279 499 1232 536 q 1346 409 1326 462 q 1367 296 1367 357 q 1342 167 1367 223 q 1273 74 1317 111 q 1170 19 1230 38 q 1039 0 1110 0 l 668 0 l 668 46 q 726 59 706 46 q 754 94 746 72 q 763 147 763 116 q 764 216 764 178 l 764 512 l 293 505 l 293 165 q 291 100 293 127 q 288 56 290 73 l 388 61 l 388 0 l 76 0 l 76 46 q 135 60 115 47 q 163 95 155 73 q 171 148 171 117 q 172 216 172 179 l 172 816 q 173 870 172 845 q 177 917 174 895 l 76 910 l 76 973 l 388 973 l 388 926 q 329 911 349 925 q 301 876 309 898 q 293 823 293 853 q 293 755 293 792 l 293 567 l 764 567 l 764 816 q 768 917 764 874 l 667 911 l 667 973 l 980 973 l 980 926 q 921 911 941 925 q 893 876 901 898 q 885 823 885 854 q 885 755 885 793 l 885 566 l 962 569 m 885 164 q 883 100 885 126 q 880 56 882 73 q 913 53 896 54 q 946 53 930 53 q 974 53 962 53 q 993 53 986 53 q 1091 66 1047 53 q 1166 109 1135 80 q 1215 183 1198 138 q 1233 290 1233 228 q 1213 400 1233 356 q 1160 469 1193 444 q 1084 505 1127 494 q 993 516 1041 516 q 959 515 973 516 q 935 515 946 515 q 912 513 924 514 q 885 512 901 512 l 885 164 "},"š":{"x_min":72,"x_max":587.265625,"ha":643,"o":"m 321 33 q 375 39 348 33 q 424 59 402 45 q 460 93 446 72 q 474 142 474 114 q 456 198 474 175 q 411 240 439 222 q 346 272 383 258 q 272 301 310 286 q 198 334 234 316 q 134 376 163 352 q 89 434 106 401 q 72 515 72 468 q 82 579 72 544 q 120 645 93 614 q 193 696 148 675 q 309 717 239 717 q 350 714 328 717 q 394 704 371 711 q 438 685 416 697 q 483 657 461 674 l 479 710 l 538 710 l 538 467 l 494 467 q 480 538 491 502 q 448 601 469 573 q 393 647 426 629 q 316 665 361 665 q 258 656 283 665 q 216 633 233 648 q 190 599 198 618 q 181 559 181 580 q 198 501 181 525 q 244 458 215 477 q 309 423 272 439 q 384 392 346 408 q 458 358 422 376 q 524 316 495 340 q 569 259 552 291 q 587 182 587 226 q 566 91 587 129 q 510 27 545 52 q 433 -9 476 2 q 346 -22 390 -22 q 221 -3 275 -22 q 133 38 168 14 l 138 -10 l 80 -10 l 72 229 l 114 229 q 134 149 117 185 q 180 87 152 113 q 244 47 208 61 q 321 33 281 33 m 316 796 l 314 796 l 107 1022 l 144 1067 l 321 915 l 324 915 l 503 1069 l 538 1029 l 316 796 "},"є":{"x_min":57,"x_max":691.671875,"ha":739,"o":"m 691 141 q 628 67 663 98 q 553 16 592 36 q 474 -13 514 -3 q 400 -23 435 -23 q 267 1 329 -23 q 157 71 204 25 q 84 183 111 116 q 57 334 57 249 q 68 429 57 382 q 103 519 80 476 q 157 597 125 561 q 229 660 189 634 q 317 702 269 687 q 419 717 365 717 q 524 702 476 717 q 605 664 571 688 q 657 609 639 640 q 676 544 676 578 q 659 493 676 515 q 611 471 642 472 q 580 477 593 471 q 561 493 568 483 q 550 514 553 502 q 547 534 547 525 q 551 562 547 547 q 568 590 555 577 q 540 629 558 614 q 500 652 521 643 q 457 662 479 660 q 422 665 436 665 q 336 647 376 665 q 267 594 297 629 q 219 509 237 560 q 199 391 201 457 l 521 391 l 521 312 l 202 308 q 228 203 208 250 q 279 121 248 155 q 349 68 309 87 q 437 50 389 50 q 501 59 469 50 q 562 84 533 68 q 614 122 590 100 q 655 169 638 144 l 691 141 "},"Þ":{"x_min":76.375,"x_max":792.640625,"ha":828,"o":"m 172 817 q 173 871 172 845 q 176 918 174 896 l 76 911 l 76 973 l 389 973 l 389 927 q 336 916 355 926 q 307 889 317 907 q 295 848 298 872 q 293 803 293 828 l 368 805 q 683 737 573 805 q 792 527 792 669 q 783 454 792 490 q 752 383 774 417 q 694 320 730 349 q 606 270 659 291 q 488 236 554 248 q 312 224 421 224 l 293 224 l 293 165 q 292 99 293 126 q 288 55 291 72 l 389 60 l 389 0 l 76 0 l 76 45 q 128 56 109 46 q 157 82 148 65 q 169 123 167 99 q 172 175 172 146 l 172 817 m 330 751 q 293 749 311 750 l 293 281 q 320 278 308 279 q 351 277 335 277 q 486 294 429 277 q 582 343 544 311 q 638 421 619 376 q 657 524 657 467 q 587 693 657 635 q 376 752 517 752 q 330 751 350 752 "},"j":{"x_min":-122,"x_max":258.890625,"ha":357,"o":"m -122 -298 q -105 -252 -122 -272 q -62 -233 -88 -233 q -33 -238 -45 -233 q -15 -253 -22 -244 q -5 -272 -8 -262 q -1 -291 -1 -282 q -1 -297 -1 -294 q -2 -303 -1 -300 q 32 -312 16 -312 q 56 -308 41 -312 q 89 -288 71 -304 q 120 -222 112 -266 q 129 -119 129 -177 l 132 527 q 132 569 132 549 q 136 617 132 589 l 37 612 l 37 670 q 113 673 83 670 q 162 681 143 676 q 192 693 181 686 q 211 708 203 700 l 251 708 l 251 -4 q 231 -171 251 -101 q 175 -287 211 -241 q 92 -354 140 -332 q -12 -376 44 -376 q -61 -369 -40 -376 q -95 -352 -82 -363 q -115 -327 -109 -341 q -122 -298 -122 -313 m 258 927 q 252 895 258 910 q 235 869 246 880 q 212 852 225 858 q 183 846 198 846 q 155 852 168 846 q 131 869 141 858 q 114 895 120 880 q 109 927 109 910 q 115 959 109 944 q 131 986 121 975 q 155 1004 142 998 q 184 1011 169 1011 q 213 1004 200 1011 q 237 986 227 998 q 253 959 247 975 q 258 927 258 944 "},"1":{"x_min":25,"x_max":457.3125,"ha":505,"o":"m 344 150 q 344 99 344 123 q 340 55 344 74 l 457 60 l 457 0 l 103 0 l 103 45 q 162 58 139 46 q 199 90 186 69 q 218 139 213 110 q 224 203 224 167 l 222 859 l 219 859 l 52 752 l 25 792 l 296 995 l 343 995 l 344 150 "},"›":{"x_min":64,"x_max":488,"ha":532,"o":"m 488 385 l 488 380 l 107 -10 l 64 34 l 338 385 l 338 388 l 66 717 l 111 762 l 488 385 "},"ћ":{"x_min":29.625,"x_max":790.484375,"ha":832,"o":"m 790 0 l 506 0 l 506 41 q 555 53 538 41 q 579 88 572 66 q 587 142 586 110 q 589 210 589 173 l 589 404 q 550 585 589 525 q 429 644 512 645 q 378 636 404 643 q 329 618 353 630 q 285 591 306 607 q 249 557 264 576 l 249 147 q 247 98 249 119 q 242 52 246 76 l 329 57 l 329 0 l 46 0 l 46 41 q 95 53 78 41 q 120 88 112 66 q 128 142 127 110 q 130 210 130 173 l 130 799 l 29 797 l 29 868 l 130 868 l 130 868 q 130 910 130 890 q 134 958 130 930 l 35 953 l 35 1011 q 111 1014 81 1011 q 160 1022 141 1017 q 190 1034 179 1028 q 209 1049 200 1041 l 249 1049 l 249 868 l 533 868 l 533 803 l 249 800 l 249 625 q 299 661 272 644 q 356 690 326 678 q 416 709 385 702 q 477 717 447 717 q 581 698 537 717 q 652 641 624 679 q 693 544 680 603 q 708 406 706 485 l 708 147 q 707 98 708 119 q 703 52 706 76 l 790 56 l 790 0 "},"ℓ":{"x_min":-13.3125,"x_max":601.46875,"ha":615,"o":"m 601 214 q 566 120 588 163 q 513 45 544 77 q 444 -4 482 13 q 358 -23 405 -23 q 293 -13 324 -23 q 237 14 263 -3 q 191 57 211 31 q 160 114 171 82 q 142 274 142 160 l 142 346 l 15 220 l -13 247 l 142 404 l 142 753 q 158 887 142 830 q 205 981 175 944 q 275 1037 234 1019 q 361 1055 315 1055 q 424 1044 396 1055 q 472 1014 453 1033 q 501 967 491 994 q 512 906 512 939 q 500 825 512 867 q 463 737 488 783 q 261 473 414 645 l 261 226 q 270 133 261 171 q 297 73 280 96 q 338 40 314 50 q 391 31 362 31 q 439 41 415 31 q 484 73 462 51 q 526 132 506 96 q 562 222 545 169 l 601 214 m 261 535 q 458 878 458 754 q 450 937 458 913 q 431 976 443 961 q 402 998 419 991 q 366 1005 386 1005 q 326 995 345 1005 q 292 963 307 986 q 269 902 277 941 q 261 806 261 864 l 261 535 "},"<":{"x_min":47,"x_max":666,"ha":753,"o":"m 47 481 l 666 756 l 666 669 l 141 439 l 666 206 l 666 118 l 47 387 l 47 481 "},"Ц":{"x_min":76.296875,"x_max":987,"ha":1031,"o":"m 987 -246 l 929 -246 q 924 -150 929 -195 q 907 -71 920 -105 q 874 -18 895 -37 q 818 0 853 0 l 76 0 l 76 47 q 135 61 115 48 q 163 96 155 74 q 171 149 171 118 q 172 217 172 180 l 172 807 q 176 917 172 881 l 76 911 l 76 973 l 389 973 l 389 926 q 329 912 349 925 q 301 876 309 899 q 293 823 293 854 q 293 756 293 792 l 293 55 l 660 59 q 706 69 688 61 q 733 92 724 78 q 746 126 743 106 q 750 170 749 146 l 750 807 q 751 872 750 845 q 755 917 752 899 l 654 912 l 654 973 l 966 973 l 966 926 q 907 912 927 925 q 879 877 887 899 q 871 823 871 854 q 871 756 871 792 l 871 156 q 869 102 871 127 q 866 56 868 77 l 966 62 l 987 62 l 987 -246 "},"t":{"x_min":29.21875,"x_max":532,"ha":538,"o":"m 29 695 q 95 715 65 695 q 148 763 125 734 q 186 826 170 792 q 211 890 202 860 l 258 890 q 258 786 258 834 q 257 695 257 737 l 491 695 l 491 640 l 257 638 q 257 484 257 547 q 256 377 257 420 q 256 310 256 334 q 256 272 256 285 q 255 255 255 259 q 255 251 255 252 q 260 167 255 204 q 278 106 265 131 q 310 69 290 82 q 360 57 330 57 q 432 78 396 57 q 494 140 467 100 l 532 109 q 471 37 501 63 q 413 -2 441 11 q 363 -18 386 -15 q 322 -22 339 -22 q 279 -18 301 -22 q 235 -5 257 -15 q 195 22 214 4 q 162 68 177 40 q 140 138 148 97 q 133 234 132 178 l 135 635 l 29 635 l 29 695 "},"¬":{"x_min":102,"x_max":721,"ha":822,"o":"m 102 478 l 721 474 l 721 218 l 649 218 l 645 394 l 102 392 l 102 478 "},"ù":{"x_min":35.796875,"x_max":788.28125,"ha":829,"o":"m 576 512 q 577 570 576 546 q 582 618 578 594 l 483 614 l 483 671 l 525 671 q 576 674 555 671 q 612 682 597 677 q 637 694 627 687 q 655 708 647 700 l 695 708 l 694 183 q 693 155 694 172 q 692 121 693 139 q 690 85 691 103 q 688 53 689 67 l 788 58 l 788 0 l 589 0 q 583 43 586 23 q 580 83 581 63 q 531 42 558 62 q 476 9 505 23 q 415 -13 446 -5 q 353 -22 384 -22 q 254 -6 296 -22 q 182 43 211 8 q 140 137 154 79 q 126 281 126 194 l 126 527 q 126 571 126 549 q 131 618 127 594 l 35 614 l 35 671 l 79 671 q 129 674 108 671 q 165 682 150 677 q 190 694 180 687 q 208 708 199 700 l 248 708 l 248 284 q 256 180 248 224 q 282 106 264 135 q 328 62 300 76 q 398 49 357 49 q 450 57 424 49 q 498 81 475 66 q 541 115 521 96 q 576 156 561 134 l 576 213 l 576 512 m 282 953 q 259 987 265 971 q 255 998 257 991 q 253 1012 253 1005 q 255 1029 253 1021 q 264 1045 257 1036 q 281 1058 271 1054 q 303 1063 292 1063 q 329 1055 314 1063 q 360 1025 345 1047 l 477 837 l 438 806 l 282 953 "},"":{"x_min":62,"x_max":590,"ha":653,"o":"m 331 1293 l 334 1293 l 590 1097 l 559 1049 l 328 1172 l 326 1172 l 89 1051 l 62 1095 l 331 1293 "},"Ф":{"x_min":64,"x_max":1078,"ha":1139,"o":"m 721 1009 q 672 999 691 1007 q 643 977 653 991 q 630 942 633 962 q 626 898 626 922 q 819 859 735 891 q 961 775 903 827 q 1048 649 1019 722 q 1078 486 1078 576 q 1051 335 1078 404 q 968 215 1024 266 q 827 135 913 165 q 626 101 742 105 q 625 67 626 83 q 624 35 625 50 q 622 8 623 20 q 621 -12 621 -3 l 721 -6 l 721 -68 l 409 -68 l 409 -22 q 457 -10 439 -20 q 486 15 476 0 q 500 54 496 32 q 505 103 504 77 q 315 137 397 109 q 177 211 233 164 q 92 321 121 257 q 64 466 64 385 q 90 633 64 556 q 170 766 116 709 q 307 857 224 822 q 505 899 391 892 q 506 953 505 928 q 510 1000 507 978 l 409 993 l 409 1055 l 721 1055 l 721 1009 m 505 841 q 277 738 355 827 q 200 490 200 650 q 219 352 200 411 q 278 252 239 292 q 373 189 316 212 q 505 160 430 166 l 505 168 l 505 841 m 626 157 q 860 241 779 166 q 942 461 942 316 q 860 732 942 639 q 626 840 779 825 l 626 837 l 626 157 "},"ï":{"x_min":27,"x_max":360.359375,"ha":390,"o":"m 144 527 q 145 569 144 548 q 149 617 146 589 l 51 612 l 51 670 q 126 673 96 670 q 175 681 156 676 q 204 693 194 687 q 223 708 215 700 l 263 708 l 263 147 q 262 98 263 119 q 257 53 262 76 l 345 57 l 345 0 l 61 0 l 61 41 q 110 54 93 41 q 134 88 127 66 q 142 142 141 111 q 144 210 144 173 l 144 527 m 165 927 q 159 895 165 910 q 144 869 153 880 q 122 852 134 858 q 96 846 109 846 q 69 852 81 846 q 47 869 56 858 q 32 895 37 880 q 27 927 27 910 q 32 959 27 944 q 48 986 38 975 q 70 1004 57 998 q 96 1011 83 1011 q 124 1004 111 1011 q 146 986 136 998 q 160 959 155 975 q 165 927 165 944 m 360 927 q 354 895 360 910 q 339 869 348 880 q 317 852 329 858 q 291 846 304 846 q 264 852 276 846 q 242 869 251 858 q 227 895 232 880 q 222 927 222 910 q 227 959 222 944 q 243 986 233 975 q 265 1004 252 998 q 291 1011 278 1011 q 319 1004 306 1011 q 341 986 331 998 q 355 959 350 975 q 360 927 360 944 "},"ī":{"x_min":5.703125,"x_max":373.703125,"ha":390,"o":"m 143 527 q 144 569 143 548 q 148 617 145 589 l 50 612 l 50 670 q 125 673 95 670 q 174 681 155 676 q 203 693 193 687 q 222 708 214 700 l 262 708 l 262 147 q 261 98 262 119 q 256 53 261 76 l 344 57 l 344 0 l 60 0 l 60 41 q 109 54 92 41 q 133 88 126 66 q 141 142 140 111 q 143 210 143 173 l 143 527 m 5 973 l 373 973 l 373 895 l 5 889 l 5 973 "},"Ò":{"x_min":64,"x_max":1042.359375,"ha":1103,"o":"m 200 511 q 209 405 200 460 q 238 296 219 349 q 287 196 258 243 q 357 112 317 148 q 448 56 397 77 q 561 35 498 35 q 665 52 618 35 q 751 99 713 69 q 817 171 789 129 q 865 259 846 212 q 894 359 884 306 q 904 460 904 413 q 893 571 904 510 q 861 685 882 632 q 809 785 840 739 q 739 866 779 832 q 649 920 699 900 q 543 940 600 940 q 393 902 457 940 q 285 802 328 864 q 221 665 243 741 q 200 511 200 589 m 64 486 q 76 605 64 544 q 116 722 89 665 q 182 828 142 778 q 276 914 222 877 q 397 973 329 952 q 547 995 465 995 q 702 973 632 995 q 826 914 771 951 q 921 827 881 877 q 989 721 962 778 q 1029 604 1015 664 q 1042 486 1042 544 q 1029 368 1042 428 q 989 252 1015 308 q 923 145 963 195 q 829 58 883 95 q 708 0 775 21 q 558 -22 640 -22 q 399 0 470 -22 q 273 56 328 20 q 179 141 218 92 q 113 247 139 190 q 76 364 88 303 q 64 486 64 426 m 410 1178 q 377 1207 387 1193 q 366 1233 368 1221 q 367 1255 364 1246 q 374 1269 370 1264 q 383 1277 376 1271 q 402 1285 390 1283 q 430 1283 414 1288 q 467 1262 447 1279 l 643 1095 l 612 1055 l 410 1178 "},"О":{"x_min":64.671875,"x_max":1043.03125,"ha":1103,"o":"m 201 511 q 210 405 201 460 q 239 296 220 349 q 288 196 258 243 q 358 112 317 148 q 449 56 398 77 q 562 35 499 35 q 666 52 619 35 q 752 99 714 69 q 818 171 790 129 q 866 259 847 212 q 894 359 885 306 q 904 460 904 413 q 893 571 904 510 q 861 685 882 632 q 810 785 840 739 q 739 866 779 832 q 650 920 699 900 q 543 940 601 940 q 393 902 458 940 q 286 802 329 864 q 222 665 243 741 q 201 511 201 589 m 64 486 q 77 605 64 544 q 116 722 90 665 q 183 828 143 778 q 277 914 223 877 q 398 973 330 952 q 548 995 466 995 q 702 973 633 995 q 827 914 772 951 q 922 827 882 877 q 989 721 962 778 q 1029 604 1016 664 q 1043 486 1043 544 q 1029 368 1043 428 q 990 252 1016 308 q 924 145 964 195 q 830 58 884 95 q 708 0 776 21 q 559 -22 641 -22 q 400 0 471 -22 q 274 56 329 20 q 179 141 219 92 q 114 247 139 190 q 76 364 89 303 q 64 486 64 426 "},"Ď":{"x_min":77.046875,"x_max":972,"ha":1035,"o":"m 294 164 q 293 99 294 126 q 289 55 292 73 q 342 53 317 54 q 387 53 367 53 q 420 53 407 53 q 438 53 434 53 q 601 86 528 53 q 726 178 674 119 q 807 316 778 236 q 835 490 835 396 q 808 668 835 588 q 727 804 782 747 q 588 891 672 861 q 389 922 504 922 q 330 909 350 922 q 302 875 311 897 q 294 823 294 853 q 294 755 294 792 l 294 164 m 404 974 q 635 944 530 974 q 814 855 739 915 q 930 702 889 794 q 972 484 972 610 q 957 360 972 421 q 912 245 942 299 q 837 146 882 191 q 734 69 793 101 q 602 18 676 36 q 442 0 529 0 l 77 0 l 77 46 q 136 60 116 47 q 163 95 155 73 q 172 148 172 118 q 172 216 172 179 l 172 816 q 173 870 172 845 q 177 917 174 895 l 77 910 l 77 972 l 404 974 m 503 1036 l 501 1036 l 245 1232 l 276 1279 l 506 1156 l 509 1156 l 745 1282 l 773 1237 l 503 1036 "},"&":{"x_min":50,"x_max":977,"ha":965,"o":"m 760 371 q 755 303 761 343 q 732 218 749 263 q 765 188 747 204 q 801 155 782 172 q 910 72 865 99 q 977 46 955 46 l 977 0 l 848 0 q 790 26 834 0 q 675 114 747 52 q 623 61 652 86 q 558 17 595 36 q 475 -11 521 0 q 375 -22 430 -22 q 256 -7 315 -22 q 152 40 197 7 q 78 124 106 72 q 50 250 50 176 q 65 334 50 295 q 109 409 80 374 q 178 472 137 443 q 268 523 218 501 q 220 589 241 557 q 187 651 200 620 q 168 713 174 682 q 163 776 163 744 q 183 866 163 826 q 236 935 202 906 q 317 979 270 963 q 420 995 364 995 q 515 980 472 995 q 588 938 558 965 q 635 876 618 912 q 652 800 652 841 q 639 725 652 761 q 600 655 627 689 q 529 588 573 621 q 423 523 486 555 q 478 466 449 495 q 535 407 506 436 q 564 376 549 391 q 595 345 578 362 q 633 309 612 329 q 681 264 654 289 q 690 311 687 288 q 693 352 693 333 q 688 400 693 376 q 672 444 684 424 q 639 477 660 464 q 589 492 619 490 l 589 538 l 831 538 l 831 481 l 716 486 q 748 438 738 466 q 760 371 758 409 m 591 191 q 425 353 496 283 q 304 481 354 424 q 248 434 270 462 q 213 378 226 407 q 194 320 199 348 q 189 271 189 292 q 206 173 189 214 q 252 104 224 131 q 318 63 281 77 q 393 48 354 49 q 472 53 436 45 q 538 76 508 61 q 589 110 567 90 q 630 154 612 131 q 591 191 610 171 m 279 787 q 288 728 279 757 q 311 670 296 698 q 347 612 327 641 q 392 557 368 584 q 508 671 470 608 q 545 795 545 734 q 536 857 545 829 q 511 906 527 886 q 469 938 494 926 q 413 950 445 950 q 360 939 384 950 q 317 908 335 928 q 289 857 300 887 q 279 787 279 827 "},"˝":{"x_min":41,"x_max":505,"ha":541,"o":"m 76 811 l 41 844 l 166 1019 q 199 1049 183 1041 q 227 1057 215 1057 q 247 1052 238 1057 q 263 1037 257 1048 q 270 1016 270 1027 q 262 986 270 1003 q 232 948 254 970 l 76 811 m 277 823 l 251 858 l 395 1019 q 430 1047 414 1040 q 459 1055 446 1055 q 480 1051 470 1055 q 495 1039 490 1046 q 502 1025 500 1031 q 505 1011 505 1018 q 494 980 505 996 q 458 946 483 963 l 277 823 "},"I":{"x_min":76.375,"x_max":389.03125,"ha":465,"o":"m 172 817 q 173 871 172 845 q 176 918 174 896 l 76 911 l 76 973 l 389 973 l 389 927 q 330 912 349 926 q 302 877 310 899 q 293 824 294 854 q 293 756 293 793 l 293 165 q 292 99 293 127 q 288 55 291 72 l 389 60 l 389 0 l 76 0 l 76 45 q 135 59 115 46 q 163 95 155 72 q 171 148 171 117 q 172 216 172 179 l 172 817 "},"G":{"x_min":65,"x_max":1027.34375,"ha":1057,"o":"m 927 51 l 889 51 q 828 42 866 51 q 739 14 790 34 q 692 0 718 6 q 639 -11 666 -6 q 586 -19 612 -16 q 537 -22 560 -22 q 345 11 432 -22 q 196 107 258 45 q 99 261 134 170 q 65 465 65 351 q 78 595 65 530 q 118 718 91 660 q 185 827 145 777 q 279 915 225 878 q 400 973 333 952 q 548 995 468 995 q 624 989 586 995 q 700 974 663 984 q 772 950 738 964 q 836 918 807 936 l 830 985 l 907 985 l 907 667 l 856 667 q 827 783 852 732 q 763 868 803 834 q 671 921 723 903 q 558 940 618 940 q 419 907 484 940 q 305 815 354 874 q 229 675 257 756 q 201 497 201 594 q 228 316 201 399 q 304 172 255 232 q 422 78 353 112 q 572 45 490 45 q 631 49 600 45 q 692 61 661 53 q 753 83 723 69 q 811 115 783 96 l 811 418 l 713 413 l 713 474 l 1027 474 l 1027 428 q 983 418 1001 428 q 955 393 966 408 q 938 359 944 378 q 930 322 933 341 q 927 288 928 304 q 927 263 927 272 l 927 51 "},"`":{"x_min":63,"x_max":287,"ha":350,"o":"m 92 953 q 69 987 75 971 q 65 998 67 991 q 63 1012 63 1005 q 65 1029 63 1021 q 74 1045 67 1036 q 91 1058 81 1054 q 113 1063 102 1063 q 139 1055 124 1063 q 170 1025 155 1047 l 287 837 l 248 806 l 92 953 "},"·":{"x_min":93,"x_max":255.09375,"ha":347,"o":"m 255 455 q 248 421 255 437 q 230 392 241 405 q 204 373 219 380 q 173 367 189 367 q 142 373 157 367 q 117 392 128 380 q 99 421 105 405 q 93 455 93 437 q 99 491 93 475 q 117 520 106 508 q 143 539 128 532 q 175 547 158 547 q 206 539 192 547 q 232 520 221 532 q 248 491 242 508 q 255 455 255 475 "},"¿":{"x_min":46.546875,"x_max":606.984375,"ha":648,"o":"m 499 -146 q 488 -121 492 -134 q 484 -92 484 -107 q 487 -72 484 -83 q 499 -52 491 -62 q 518 -38 506 -43 q 547 -32 531 -32 q 592 -55 577 -34 q 606 -105 606 -75 q 587 -170 606 -136 q 532 -233 568 -204 q 443 -280 495 -261 q 326 -299 392 -299 q 191 -278 246 -299 q 103 -221 136 -256 q 57 -143 70 -187 q 47 -57 44 -100 q 73 29 49 -10 q 132 104 97 69 q 206 169 166 138 q 279 225 245 199 q 334 276 312 252 q 356 323 356 300 q 353 340 356 332 q 343 355 350 349 q 325 365 337 361 q 298 370 314 370 q 274 367 289 370 q 247 359 260 365 l 231 408 q 283 427 252 421 q 339 434 314 434 q 380 428 360 434 q 415 412 400 423 q 441 384 431 402 q 451 341 451 366 q 431 282 451 309 q 381 228 411 254 q 317 172 352 201 q 251 109 282 143 q 200 33 221 75 q 177 -60 179 -7 q 185 -131 177 -98 q 212 -190 192 -165 q 265 -230 232 -215 q 347 -244 298 -244 q 403 -235 377 -244 q 451 -212 430 -226 q 484 -180 471 -197 q 499 -146 497 -163 m 256 635 q 262 666 256 651 q 277 692 267 681 q 300 710 287 704 q 330 717 314 717 q 358 711 344 717 q 382 695 372 706 q 399 669 393 684 q 406 635 406 654 q 399 603 406 618 q 382 577 393 588 q 358 559 372 565 q 330 553 344 553 q 301 559 315 553 q 278 577 288 565 q 262 603 268 588 q 256 635 256 618 "},"ý":{"x_min":5.859375,"x_max":728.078125,"ha":733,"o":"m 179 -303 q 194 -307 186 -307 q 226 -296 207 -307 q 265 -252 245 -286 q 307 -161 283 -221 q 363 -16 332 -100 q 115 518 127 488 q 93 572 102 549 q 80 612 85 595 q 73 641 75 629 l 5 637 l 5 695 l 293 695 l 293 653 l 287 652 q 242 639 258 650 q 224 608 227 628 q 228 556 220 588 q 418 139 235 524 q 572 583 563 561 q 590 621 581 605 q 606 643 598 637 l 510 637 l 510 695 l 728 695 l 728 653 q 683 627 702 643 q 650 588 665 611 q 624 536 636 565 q 425 -11 612 507 q 367 -167 393 -99 q 311 -281 340 -235 q 248 -351 283 -327 q 168 -376 214 -376 q 127 -370 146 -376 q 94 -355 108 -365 q 72 -328 80 -344 q 64 -291 64 -312 q 68 -266 64 -278 q 79 -245 72 -254 q 98 -229 87 -235 q 123 -224 110 -224 q 151 -230 139 -224 q 169 -245 162 -236 q 178 -265 175 -255 q 181 -284 181 -276 q 180 -293 181 -288 q 179 -303 180 -298 m 396 806 l 358 837 l 474 1025 q 505 1055 489 1047 q 531 1063 520 1063 q 553 1058 542 1063 q 570 1045 563 1054 q 579 1029 577 1036 q 582 1012 582 1021 q 579 998 582 1005 q 575 987 577 991 q 552 953 569 971 l 396 806 "},"Ђ":{"x_min":30.28125,"x_max":993,"ha":1057,"o":"m 505 554 q 599 582 547 571 q 705 593 651 593 q 836 573 781 593 q 925 516 891 554 q 976 425 960 479 q 993 301 993 370 q 975 176 993 234 q 928 75 958 118 q 856 8 898 32 q 765 -16 815 -16 q 724 -10 743 -16 q 691 6 705 -4 q 669 33 677 17 q 662 68 662 48 q 681 122 662 103 q 730 142 700 141 q 763 136 750 142 q 783 121 776 130 q 794 101 791 111 q 798 82 798 90 q 796 65 798 73 q 790 48 794 57 q 813 42 798 42 q 841 61 829 42 q 861 115 852 81 q 873 194 869 149 q 878 290 878 239 q 862 397 878 353 q 817 469 846 442 q 748 509 788 497 q 658 522 707 522 q 575 512 614 522 q 504 488 536 503 l 504 165 q 500 55 504 90 l 581 60 l 581 0 l 288 0 l 288 46 q 347 60 327 47 q 374 97 366 74 q 383 150 382 119 q 385 216 384 181 l 385 920 l 241 920 q 166 905 197 920 q 117 860 136 890 q 90 786 98 831 q 81 679 81 740 l 30 679 l 38 973 l 848 973 l 856 679 l 804 679 q 794 786 802 740 q 766 862 786 832 q 711 907 745 892 q 622 922 676 922 l 505 922 l 505 554 "},"º":{"x_min":66,"x_max":516,"ha":582,"o":"m 287 948 q 238 933 262 948 q 198 896 213 919 q 175 842 183 873 q 167 775 167 811 q 174 700 167 736 q 198 637 182 664 q 238 593 214 609 q 296 577 262 577 q 349 590 326 577 q 387 626 372 603 q 411 680 403 649 q 419 746 419 711 q 411 822 419 785 q 388 886 404 859 q 349 931 372 914 q 287 948 325 948 m 294 995 q 382 978 342 995 q 452 931 423 961 q 499 860 482 902 q 516 768 516 818 q 499 671 516 715 q 452 595 482 627 q 381 545 423 563 q 290 528 340 528 q 201 544 242 528 q 130 590 160 561 q 83 661 100 620 q 66 750 66 701 q 83 847 66 802 q 131 924 100 891 q 203 976 161 957 q 294 995 245 995 "},"∞":{"x_min":104,"x_max":1113,"ha":1215,"o":"m 344 773 q 421 760 385 773 q 489 723 457 747 q 551 663 521 699 q 610 580 581 627 q 661 659 631 623 q 725 722 690 695 q 800 764 760 749 q 882 780 840 780 q 988 756 944 780 q 1060 692 1032 733 q 1100 597 1087 651 q 1113 480 1113 542 q 1096 367 1113 420 q 1049 274 1079 314 q 975 211 1018 234 q 879 188 932 188 q 809 197 842 188 q 741 228 775 206 q 673 288 707 251 q 602 383 639 326 q 556 310 582 344 q 498 249 530 275 q 429 208 466 223 q 351 194 392 194 q 236 220 283 194 q 159 290 189 247 q 117 385 130 332 q 104 490 104 438 q 120 601 104 549 q 169 691 137 653 q 244 751 200 729 q 344 773 289 773 m 872 294 q 950 309 916 294 q 1006 352 984 325 q 1041 415 1029 379 q 1053 492 1053 451 q 1041 568 1053 533 q 1008 629 1029 603 q 956 669 986 654 q 890 684 927 684 q 828 676 859 684 q 765 649 796 668 q 703 600 734 631 q 643 525 673 570 q 688 442 665 483 q 739 368 711 401 q 799 314 766 335 q 872 294 832 294 m 347 294 q 469 329 412 294 q 570 436 525 365 l 565 445 q 524 517 545 479 q 475 588 502 556 q 413 642 448 621 q 333 663 378 663 q 269 651 300 663 q 214 616 238 639 q 176 560 190 593 q 162 481 162 526 q 176 405 162 440 q 214 346 190 371 q 273 307 239 321 q 347 294 307 294 "},"ź":{"x_min":55.96875,"x_max":649,"ha":710,"o":"m 55 0 l 55 57 q 486 610 476 598 q 506 632 497 622 q 522 646 515 641 l 261 641 q 197 625 222 641 q 157 583 172 610 q 133 521 142 557 q 119 446 125 486 l 77 446 l 93 695 l 637 695 l 637 650 l 246 135 q 229 114 237 123 q 213 95 222 104 q 196 77 205 86 q 173 57 186 67 l 441 53 q 514 67 485 52 q 562 110 543 83 q 591 174 581 137 q 608 253 602 210 l 649 253 l 632 0 l 55 0 m 297 806 l 258 837 l 375 1025 q 405 1055 390 1047 q 432 1063 421 1063 q 453 1058 443 1063 q 471 1045 464 1054 q 480 1029 477 1036 q 482 1012 482 1021 q 480 998 482 1005 q 476 987 478 991 q 452 953 470 971 l 297 806 "},"ű":{"x_min":36.46875,"x_max":788.953125,"ha":829,"o":"m 576 512 q 578 570 576 546 q 583 618 579 594 l 483 614 l 483 671 l 526 671 q 577 674 556 671 q 613 682 598 677 q 638 694 628 687 q 656 708 647 700 l 696 708 l 694 183 q 694 155 694 172 q 693 121 694 139 q 691 85 692 103 q 689 53 690 67 l 788 58 l 788 0 l 590 0 q 584 43 586 23 q 580 83 582 63 q 532 42 559 62 q 476 9 506 23 q 416 -13 447 -5 q 354 -22 384 -22 q 254 -6 297 -22 q 183 43 212 8 q 140 137 155 79 q 126 281 126 194 l 126 527 q 127 571 126 549 q 132 618 128 594 l 36 614 l 36 671 l 79 671 q 130 674 109 671 q 166 682 151 677 q 190 694 180 687 q 208 708 200 700 l 248 708 l 248 284 q 256 180 248 224 q 282 106 265 135 q 329 62 300 76 q 399 49 357 49 q 450 57 425 49 q 499 81 476 66 q 542 115 522 96 q 576 156 562 134 l 576 213 l 576 512 m 222 811 l 187 844 l 312 1019 q 346 1049 330 1041 q 373 1057 361 1057 q 394 1052 384 1057 q 410 1037 404 1048 q 416 1016 416 1027 q 408 986 416 1003 q 379 948 400 970 l 222 811 m 423 823 l 397 858 l 542 1019 q 576 1047 560 1040 q 606 1055 593 1055 q 626 1051 616 1055 q 641 1039 636 1046 q 649 1025 647 1031 q 651 1011 651 1018 q 640 980 651 996 q 604 946 630 963 l 423 823 "},"я":{"x_min":24.28125,"x_max":694.421875,"ha":755,"o":"m 611 147 q 610 98 611 119 q 606 52 609 76 l 693 57 l 693 0 l 409 0 l 409 41 q 453 50 437 41 q 478 77 469 60 q 489 117 486 94 q 492 165 492 140 l 492 278 l 426 276 l 396 276 q 367 243 382 263 q 337 203 352 224 q 309 163 322 182 q 286 130 296 143 q 250 83 269 106 q 211 41 231 59 q 172 11 191 22 q 133 0 152 0 l 24 0 l 24 41 q 66 50 48 41 q 102 80 84 60 q 142 127 121 99 q 192 191 163 155 l 242 253 q 272 282 257 272 q 304 296 287 291 q 215 324 251 306 q 157 368 179 342 q 125 424 135 393 q 116 488 116 454 q 134 577 116 538 q 183 641 152 615 q 256 681 215 667 q 343 695 297 695 l 694 695 l 694 654 q 652 644 668 653 q 627 621 636 636 q 614 584 617 605 q 611 535 611 562 l 611 147 m 492 561 q 492 607 492 588 q 495 639 493 626 q 467 640 483 640 q 437 641 452 641 q 410 641 422 641 q 393 641 398 641 q 333 632 361 641 q 284 607 305 624 q 251 561 263 589 q 239 493 239 532 q 249 429 239 459 q 280 376 260 398 q 328 340 300 353 q 393 328 357 328 q 445 328 423 328 q 492 331 468 329 l 492 561 "},"Ё":{"x_min":76.375,"x_max":801,"ha":864,"o":"m 293 160 q 292 95 293 121 q 288 52 291 69 l 554 56 q 636 67 599 56 q 698 102 672 77 q 739 168 725 127 q 753 271 753 209 l 801 271 l 792 0 l 76 0 l 76 46 q 128 57 109 47 q 157 83 148 66 q 169 124 167 100 q 172 176 172 147 l 172 216 l 172 817 q 173 871 172 846 q 176 918 174 896 l 76 911 l 76 973 l 744 973 l 751 730 l 705 730 q 691 827 705 789 q 653 886 677 865 q 597 916 629 908 q 526 924 564 924 l 398 922 q 338 909 359 919 q 306 879 317 899 q 295 829 296 859 q 293 755 293 798 l 293 532 l 553 532 l 543 652 l 605 652 l 605 360 l 559 360 q 552 424 559 400 q 530 461 545 448 q 491 478 514 474 q 434 482 468 482 q 415 482 425 482 q 293 478 405 482 l 293 160 m 655 1165 q 649 1131 655 1147 q 632 1103 642 1115 q 608 1084 621 1091 q 579 1078 594 1078 q 550 1084 563 1078 q 526 1103 536 1091 q 510 1131 516 1115 q 503 1165 503 1147 q 510 1200 503 1183 q 526 1228 516 1216 q 551 1247 537 1240 q 580 1255 564 1255 q 609 1247 596 1255 q 633 1228 623 1240 q 649 1200 643 1216 q 655 1165 655 1183 m 405 1165 q 399 1131 405 1147 q 382 1103 392 1115 q 358 1084 371 1091 q 329 1078 344 1078 q 300 1084 313 1078 q 276 1103 286 1091 q 260 1131 266 1115 q 253 1165 253 1147 q 260 1200 253 1183 q 276 1228 266 1216 q 301 1247 287 1240 q 330 1255 314 1255 q 359 1247 346 1255 q 383 1228 373 1240 q 399 1200 393 1216 q 405 1165 405 1183 "},"ń":{"x_min":51.4375,"x_max":801.4375,"ha":843,"o":"m 144 527 q 145 571 144 548 q 149 617 145 593 l 51 612 l 51 670 q 125 673 96 670 q 171 681 153 676 q 197 693 188 687 q 215 708 207 700 l 255 708 q 258 672 256 692 q 261 624 260 652 q 310 660 284 643 q 366 690 337 677 q 426 709 395 702 q 487 717 457 717 q 663 641 608 717 q 719 406 719 565 l 719 147 q 718 98 719 119 q 713 53 718 76 l 801 57 l 801 0 l 517 0 l 517 41 q 566 54 549 41 q 590 88 583 66 q 598 142 597 111 q 600 210 600 173 l 600 404 q 560 585 598 524 q 440 646 522 646 q 389 638 414 646 q 341 619 364 631 q 298 591 318 607 q 263 555 277 574 q 263 529 263 543 q 263 501 263 515 l 262 147 q 261 98 262 119 q 256 53 261 76 l 344 57 l 344 0 l 60 0 l 60 41 q 109 54 92 41 q 133 88 126 66 q 141 142 140 111 q 143 210 142 173 l 144 527 m 369 806 l 331 837 l 447 1025 q 478 1055 463 1047 q 504 1063 493 1063 q 526 1058 516 1063 q 543 1045 536 1054 q 552 1029 550 1036 q 555 1012 555 1021 q 553 998 555 1005 q 549 987 551 991 q 525 953 543 971 l 369 806 "},"Ș":{"x_min":80.671875,"x_max":727.046875,"ha":787,"o":"m 160 -11 l 88 -11 l 80 285 l 134 285 q 160 176 138 223 q 219 99 183 130 q 304 51 255 67 q 407 36 352 36 q 484 47 448 36 q 548 80 520 58 q 591 135 575 102 q 607 209 607 167 q 585 297 607 260 q 525 362 562 333 q 441 412 488 390 q 345 458 394 435 q 249 506 296 481 q 165 565 202 531 q 106 643 128 599 q 83 750 83 688 q 89 801 83 773 q 107 855 94 828 q 140 907 119 882 q 192 952 161 933 q 266 983 223 971 q 365 995 308 995 q 422 991 392 995 q 485 980 453 988 q 547 958 516 971 q 607 923 579 944 l 602 983 l 672 983 l 672 678 l 622 678 q 603 775 619 728 q 556 859 587 822 q 481 917 526 895 q 375 940 436 940 q 298 926 332 940 q 243 891 265 913 q 209 839 220 868 q 197 777 197 809 q 220 694 197 729 q 280 632 243 659 q 365 582 317 605 q 462 537 412 560 q 559 488 511 514 q 644 428 606 462 q 704 348 681 394 q 727 241 727 303 q 705 135 727 184 q 642 52 683 87 q 539 -2 600 17 q 401 -22 479 -22 q 337 -17 370 -22 q 272 -4 304 -13 q 209 17 240 4 q 153 48 179 31 l 160 -11 m 491 -77 q 507 -149 507 -112 q 478 -256 507 -202 q 398 -360 448 -310 l 362 -332 q 395 -260 384 -291 q 407 -204 405 -229 q 405 -153 409 -178 q 396 -99 402 -128 l 491 -77 "},";":{"x_min":96.90625,"x_max":272,"ha":366,"o":"m 131 -220 q 156 -181 143 -206 q 178 -127 168 -157 q 194 -64 188 -97 q 195 0 199 -32 q 157 -7 175 -9 q 126 2 139 -6 q 104 26 112 11 q 97 59 97 41 q 119 119 97 98 q 173 140 141 140 q 215 130 197 140 q 246 103 234 120 q 265 63 259 86 q 272 14 272 40 q 264 -47 272 -12 q 243 -120 257 -83 q 210 -190 229 -156 q 168 -248 191 -224 l 131 -220 m 259 625 q 252 591 259 607 q 234 562 245 575 q 208 543 223 550 q 177 537 193 537 q 146 543 161 537 q 120 562 132 550 q 103 591 109 575 q 96 625 96 607 q 103 661 96 645 q 121 690 110 678 q 147 709 132 702 q 178 717 162 717 q 210 709 195 717 q 235 690 225 702 q 252 661 246 678 q 259 625 259 645 "},"Г":{"x_min":76.375,"x_max":727.734375,"ha":761,"o":"m 681 729 q 666 829 681 791 q 624 889 651 867 q 563 917 598 910 q 489 924 529 924 l 388 921 q 329 906 349 919 q 301 870 309 893 q 293 816 293 847 q 293 750 293 786 l 293 165 q 291 100 293 127 q 288 55 290 73 l 429 61 l 429 0 l 76 0 l 76 46 q 135 60 115 47 q 163 95 155 73 q 171 148 171 118 q 172 216 172 179 l 172 816 q 173 870 172 845 q 177 917 174 895 l 76 910 l 76 973 l 720 973 l 727 729 l 681 729 "},"6":{"x_min":78,"x_max":735.390625,"ha":803,"o":"m 412 545 q 348 532 379 545 q 288 498 316 519 q 240 449 261 477 q 209 391 219 421 q 224 261 212 326 q 260 146 236 197 q 320 64 283 95 q 412 33 357 33 q 496 52 461 33 q 552 103 531 71 q 584 177 574 135 q 595 265 595 219 q 592 322 595 291 q 582 384 589 353 q 562 444 575 415 q 529 495 549 473 q 479 531 508 517 q 412 545 451 545 m 595 862 q 580 888 591 874 q 551 915 569 902 q 510 935 534 927 q 458 943 486 943 q 366 918 405 943 q 300 854 327 894 q 255 765 272 815 q 227 666 238 716 q 213 569 217 615 q 208 489 208 522 q 248 534 225 512 q 301 571 272 555 q 365 597 331 588 q 441 607 400 607 q 581 578 525 607 q 671 503 637 549 q 720 403 706 458 q 735 295 735 348 q 710 172 735 230 q 642 71 685 114 q 539 3 599 28 q 409 -22 479 -22 q 253 11 316 -22 q 151 107 190 45 q 94 258 111 169 q 78 457 78 346 q 84 554 78 498 q 105 670 90 610 q 148 788 121 729 q 216 892 174 846 q 317 966 259 938 q 455 995 376 995 q 563 977 517 995 q 639 932 609 959 q 685 875 670 906 q 701 818 701 844 q 686 768 701 788 q 641 746 671 747 q 612 750 624 745 q 592 765 599 756 q 581 784 585 773 q 578 803 578 794 q 582 832 578 817 q 595 862 587 848 "},"Ь":{"x_min":76.375,"x_max":810,"ha":854,"o":"m 388 927 q 329 912 349 925 q 301 876 309 899 q 293 823 293 854 q 293 756 293 793 l 293 566 l 405 569 q 597 553 519 572 q 722 497 674 534 q 789 409 769 460 q 810 296 810 357 q 785 167 810 223 q 716 74 760 111 q 612 19 672 38 q 482 0 552 0 l 76 0 l 76 46 q 134 59 114 46 q 162 94 154 72 q 171 147 171 116 q 172 216 172 178 l 172 817 q 173 871 172 846 q 177 918 174 896 l 76 911 l 76 973 l 388 973 l 388 927 m 293 164 q 291 100 293 126 q 288 56 290 73 q 326 53 304 54 q 371 53 349 53 q 411 53 393 53 q 435 53 428 53 q 533 66 489 53 q 609 109 577 80 q 658 183 641 138 q 676 290 676 228 q 656 400 676 356 q 603 469 636 444 q 527 505 570 494 q 435 516 483 516 q 360 515 394 516 q 293 512 326 514 l 293 164 "},"n":{"x_min":51.4375,"x_max":801.4375,"ha":843,"o":"m 144 527 q 145 571 144 548 q 149 617 145 593 l 51 612 l 51 670 q 125 673 96 670 q 171 681 153 676 q 197 693 188 687 q 215 708 207 700 l 255 708 q 258 672 256 692 q 261 624 260 652 q 310 660 284 643 q 366 690 337 677 q 426 709 395 702 q 487 717 457 717 q 663 641 608 717 q 719 406 719 565 l 719 147 q 718 98 719 119 q 713 53 718 76 l 801 57 l 801 0 l 517 0 l 517 41 q 566 54 549 41 q 590 88 583 66 q 598 142 597 111 q 600 210 600 173 l 600 404 q 560 585 598 524 q 440 646 522 646 q 389 638 414 646 q 341 619 364 631 q 298 591 318 607 q 263 555 277 574 q 263 529 263 543 q 263 501 263 515 l 262 147 q 261 98 262 119 q 256 53 261 76 l 344 57 l 344 0 l 60 0 l 60 41 q 109 54 92 41 q 133 88 126 66 q 141 142 140 111 q 143 210 142 173 l 144 527 "},"ģ":{"x_min":49,"x_max":791.015625,"ha":769,"o":"m 314 809 q 298 881 298 844 q 327 988 298 934 q 407 1091 357 1042 l 443 1064 q 410 992 421 1023 q 398 935 400 961 q 400 885 396 910 q 409 831 403 860 l 314 809 m 717 800 q 771 781 752 800 q 791 730 791 763 q 787 712 791 722 q 777 693 784 702 q 758 678 769 684 q 730 673 746 672 q 691 687 706 673 q 673 722 677 701 q 641 710 655 719 q 617 689 628 702 q 601 661 607 676 q 591 630 594 646 q 645 555 625 598 q 666 464 666 513 q 641 356 666 405 q 577 271 617 307 q 483 216 536 236 q 371 197 429 197 q 325 200 345 197 q 278 204 305 204 q 231 197 252 204 q 195 178 210 190 q 174 151 181 167 q 174 119 168 136 q 196 92 179 103 q 241 76 213 82 q 307 68 269 71 q 394 63 345 65 q 537 48 474 60 q 645 12 600 36 q 712 -49 689 -11 q 736 -144 736 -88 q 705 -243 736 -200 q 627 -316 675 -286 q 518 -360 578 -345 q 396 -376 457 -376 q 236 -359 302 -376 q 128 -316 169 -343 q 68 -256 87 -290 q 49 -188 49 -223 q 61 -130 49 -156 q 91 -82 73 -103 q 133 -46 110 -61 q 176 -22 155 -31 q 105 16 131 -8 q 80 87 80 42 q 90 134 80 111 q 118 177 100 158 q 162 211 137 197 q 219 230 188 224 q 161 266 187 245 q 117 314 135 287 q 88 373 98 341 q 79 441 79 405 q 104 555 79 504 q 170 642 129 606 q 264 697 212 678 q 371 717 317 717 q 463 703 418 717 q 548 664 509 690 q 575 718 558 693 q 615 761 593 743 q 663 789 637 779 q 717 800 689 800 m 368 667 q 302 652 331 667 q 253 611 273 637 q 222 548 233 584 q 212 471 212 512 q 222 380 212 421 q 254 309 233 339 q 306 263 275 279 q 375 247 336 247 q 442 261 414 247 q 491 300 471 275 q 520 361 510 326 q 530 436 530 396 q 519 524 530 482 q 489 598 509 566 q 438 648 468 629 q 368 667 408 667 m 238 -34 q 178 -95 199 -59 q 158 -172 158 -131 q 174 -234 158 -206 q 222 -281 191 -261 q 296 -311 252 -300 q 394 -322 340 -322 q 500 -309 453 -322 q 580 -277 547 -297 q 630 -230 613 -256 q 647 -173 647 -203 q 626 -110 647 -134 q 571 -72 606 -86 q 487 -53 535 -58 q 381 -45 438 -47 q 306 -41 342 -43 q 238 -34 270 -39 "},"ѝ":{"x_min":61.578125,"x_max":809.734375,"ha":870,"o":"m 727 147 q 725 98 726 119 q 720 52 724 76 l 808 57 l 808 0 l 524 0 l 524 41 q 573 53 556 41 q 597 88 589 66 q 606 142 605 110 q 608 210 608 173 l 608 525 l 261 89 q 260 71 261 80 q 257 52 259 62 l 345 56 l 345 0 l 61 0 l 61 41 q 110 53 93 41 q 134 88 126 66 q 143 142 142 110 q 145 210 145 173 l 145 547 q 146 596 145 575 q 150 642 146 618 l 63 637 l 63 695 l 346 695 l 346 654 q 298 641 314 654 q 273 606 281 628 q 264 552 266 583 q 262 483 263 521 l 262 187 l 610 616 q 611 629 611 623 q 613 642 612 635 l 526 638 l 526 695 l 809 695 l 809 654 q 761 641 777 654 q 737 606 744 628 q 728 552 729 584 q 727 484 727 521 l 727 147 m 290 953 q 266 987 272 971 q 262 998 264 991 q 260 1012 260 1005 q 262 1029 260 1021 q 271 1045 265 1036 q 289 1058 278 1054 q 310 1063 299 1063 q 337 1055 321 1063 q 367 1025 352 1047 l 484 837 l 445 806 l 290 953 "},"¤":{"x_min":85.125,"x_max":659.875,"ha":743,"o":"m 141 662 l 215 568 q 286 608 247 593 q 372 623 325 623 q 457 608 419 623 q 528 568 495 594 l 603 662 l 659 617 l 574 519 q 614 440 600 483 q 628 353 628 397 q 615 268 628 311 q 577 193 602 226 l 659 100 l 603 56 l 531 145 q 460 107 501 121 q 371 94 420 94 q 283 107 323 94 q 212 144 243 121 l 141 56 l 85 100 l 166 193 q 129 269 141 227 q 117 353 117 311 q 130 440 117 397 q 170 520 144 484 l 85 617 l 141 662 m 372 573 q 326 563 346 573 q 290 537 306 553 q 265 500 275 521 q 248 458 254 480 q 239 415 241 436 q 236 376 236 393 q 242 303 236 343 q 263 229 247 263 q 304 171 278 194 q 372 149 331 149 q 440 171 413 149 q 481 229 466 194 q 502 303 497 263 q 508 376 508 343 q 501 436 508 402 q 479 500 495 470 q 437 552 463 531 q 372 573 411 573 "},"∂":{"x_min":51,"x_max":630.578125,"ha":707,"o":"m 175 1053 q 221 1055 198 1055 q 357 1034 297 1055 q 462 976 417 1013 q 539 886 507 939 q 591 770 571 834 q 621 634 612 707 q 630 483 630 561 q 602 246 630 343 q 526 90 574 150 q 417 4 479 30 q 287 -22 355 -22 q 197 -2 240 -22 q 122 55 154 16 q 70 151 89 93 q 51 283 51 208 q 76 454 51 377 q 146 585 102 530 q 247 669 190 639 q 367 699 304 699 q 446 684 408 699 q 513 639 483 670 q 501 730 509 685 q 478 815 493 775 q 440 891 463 856 q 381 951 416 926 q 300 991 347 976 q 191 1006 252 1006 l 175 1006 l 175 1053 m 518 489 q 517 523 518 506 q 517 558 517 540 q 457 623 492 603 q 376 644 422 644 q 302 621 339 644 q 236 554 266 598 q 188 446 207 510 q 170 299 170 381 q 181 184 170 234 q 211 100 192 134 q 255 48 230 66 q 312 31 281 31 q 383 53 352 31 q 436 111 414 75 q 475 196 459 148 q 500 295 490 244 q 513 396 509 345 q 518 489 518 447 "},"p":{"x_min":39.796875,"x_max":770.109375,"ha":829,"o":"m 132 527 q 133 571 132 548 q 138 617 134 593 l 39 612 l 39 670 q 113 673 85 670 q 159 681 142 676 q 186 693 176 687 q 203 708 195 700 l 243 708 q 246 676 245 694 q 249 633 248 657 q 295 667 270 651 q 349 693 321 683 q 406 710 377 704 q 464 717 435 717 q 580 693 525 717 q 677 625 635 669 q 745 516 719 580 q 770 371 770 452 q 756 260 770 312 q 719 164 743 208 q 663 86 696 121 q 591 27 630 51 q 507 -9 551 3 q 416 -22 462 -22 q 250 23 319 -22 l 249 -206 q 248 -255 249 -234 q 243 -301 248 -277 l 331 -296 l 331 -354 l 47 -354 l 47 -312 q 96 -299 79 -312 q 120 -265 113 -287 q 128 -211 127 -242 q 130 -143 129 -180 l 132 527 m 415 649 q 368 642 391 649 q 323 625 344 636 q 284 600 302 615 q 251 570 265 586 q 251 558 251 565 q 252 534 252 551 q 252 486 252 517 q 251 403 252 455 q 251 274 251 351 q 250 87 250 197 q 326 47 285 61 q 413 33 368 33 q 502 56 462 33 q 569 122 541 80 q 612 223 597 165 q 627 350 627 281 q 615 460 627 406 q 577 556 603 514 q 512 623 552 598 q 415 649 472 649 "},"":{"x_min":46,"x_max":323.71875,"ha":403,"o":"m 76 1055 l 46 1095 l 221 1262 q 258 1283 241 1279 q 286 1285 274 1288 q 305 1277 298 1283 q 314 1269 312 1271 q 321 1255 318 1264 q 322 1233 325 1246 q 311 1207 320 1221 q 278 1178 301 1193 l 76 1055 "},"":{"x_min":62,"x_max":598,"ha":661,"o":"m 211 1177 q 158 1155 181 1177 q 109 1094 135 1133 l 62 1121 q 92 1177 74 1151 q 130 1221 110 1203 q 174 1252 151 1240 q 219 1264 196 1263 q 268 1256 246 1264 q 308 1238 290 1249 q 342 1215 326 1228 q 374 1191 358 1202 q 405 1173 389 1180 q 440 1166 421 1166 q 475 1173 459 1166 q 505 1193 491 1181 q 531 1222 519 1205 q 553 1256 543 1238 l 598 1234 q 564 1162 583 1192 q 523 1114 545 1132 q 478 1087 501 1095 q 432 1079 455 1079 q 383 1086 405 1079 q 342 1104 361 1093 q 306 1128 323 1115 q 274 1152 290 1141 q 243 1170 258 1162 q 211 1177 228 1177 "},"‡":{"x_min":49,"x_max":688,"ha":737,"o":"m 442 340 q 427 291 434 321 q 412 225 420 261 q 397 149 405 189 q 381 69 389 109 q 484 90 433 80 q 586 106 535 100 q 616 109 600 109 q 643 106 630 109 q 665 98 656 104 q 681 82 675 92 q 688 58 688 73 q 682 33 688 43 q 666 18 676 23 q 643 10 656 12 q 617 8 631 8 q 586 10 601 8 q 484 26 535 16 q 381 47 432 36 q 394 -23 387 16 q 408 -106 401 -63 q 421 -192 415 -148 q 431 -274 427 -235 q 431 -279 431 -276 q 432 -285 432 -282 q 428 -317 432 -301 q 417 -346 425 -333 q 397 -367 409 -359 q 366 -376 384 -376 q 337 -367 349 -376 q 318 -347 325 -359 q 308 -318 311 -334 q 305 -287 305 -302 q 305 -280 305 -283 q 305 -274 305 -277 q 315 -192 309 -235 q 328 -106 321 -148 q 342 -23 335 -63 q 355 47 349 16 q 252 26 304 36 q 150 10 201 16 q 119 8 135 8 q 93 10 105 8 q 70 18 80 12 q 54 33 60 23 q 49 58 49 43 q 55 82 49 73 q 71 98 61 92 q 93 106 80 104 q 120 109 106 109 q 150 106 135 109 q 252 90 201 100 q 354 69 303 79 q 338 149 346 109 q 324 225 331 189 q 309 291 317 261 q 294 340 302 321 q 309 389 302 359 q 324 454 316 418 q 338 530 331 490 q 354 609 346 570 q 252 588 303 598 q 150 572 201 578 q 120 570 135 570 q 93 572 106 570 q 71 580 80 574 q 55 595 61 585 q 49 620 49 605 q 54 645 49 635 q 70 660 60 655 q 93 668 80 666 q 119 671 105 671 q 150 668 135 671 q 252 652 201 662 q 355 631 304 642 q 342 702 349 662 q 328 785 335 742 q 315 872 321 828 q 305 954 309 915 q 305 959 305 956 q 305 965 305 962 q 308 997 305 981 q 319 1025 311 1013 q 339 1046 327 1038 q 370 1055 351 1055 q 399 1047 387 1055 q 418 1026 410 1039 q 428 998 425 1013 q 432 966 432 982 q 431 960 432 963 q 431 954 431 957 q 421 872 427 915 q 408 785 415 828 q 394 702 401 742 q 381 631 387 662 q 484 652 432 642 q 586 668 535 662 q 617 671 601 671 q 643 668 631 671 q 666 660 656 666 q 682 645 676 655 q 688 620 688 635 q 681 595 688 605 q 665 580 675 585 q 643 572 656 574 q 616 570 630 570 q 586 572 600 570 q 484 588 535 578 q 381 608 433 598 q 397 529 389 569 q 412 454 404 490 q 427 389 419 418 q 442 340 434 359 "},"ň":{"x_min":52.109375,"x_max":802.109375,"ha":843,"o":"m 145 527 q 145 571 145 548 q 150 617 146 593 l 52 612 l 52 670 q 126 673 97 670 q 171 681 154 676 q 198 693 189 687 q 216 708 208 700 l 256 708 q 259 672 257 692 q 262 624 261 652 q 311 660 284 643 q 367 690 338 677 q 427 709 396 702 q 488 717 458 717 q 664 641 608 717 q 720 406 720 565 l 720 147 q 719 98 720 119 q 714 53 718 76 l 802 57 l 802 0 l 518 0 l 518 41 q 567 54 550 41 q 591 88 583 66 q 599 142 598 111 q 600 210 600 173 l 600 404 q 561 585 599 524 q 440 646 523 646 q 390 638 415 646 q 342 619 365 631 q 298 591 319 607 q 263 555 278 574 q 264 529 264 543 q 264 501 264 515 l 263 147 q 262 98 263 119 q 257 53 261 76 l 345 57 l 345 0 l 61 0 l 61 41 q 110 54 93 41 q 133 88 126 66 q 141 142 140 111 q 143 210 142 173 l 145 527 m 437 796 l 434 796 l 227 1022 l 264 1067 l 441 915 l 444 915 l 623 1069 l 658 1029 l 437 796 "},"√":{"x_min":3,"x_max":1203,"ha":1171,"o":"m 3 695 l 275 695 l 479 171 l 779 1197 l 1203 1197 l 1203 1139 l 835 1145 l 496 -4 l 426 -4 l 209 529 q 182 598 192 572 q 169 642 173 625 l 3 646 l 3 695 "},"⁴":{"x_min":57,"x_max":449.34375,"ha":560,"o":"m 428 424 l 224 424 l 224 464 q 258 472 245 464 q 279 491 272 479 q 289 519 287 502 q 292 556 292 536 l 292 570 l 57 570 l 57 611 l 334 995 l 370 995 l 370 620 l 449 620 l 449 570 l 371 570 l 371 469 l 428 471 l 428 424 m 122 624 l 292 622 l 292 860 l 290 860 l 122 624 "},"Ю":{"x_min":76.375,"x_max":1432,"ha":1493,"o":"m 496 525 q 514 637 500 580 q 555 746 529 693 q 618 843 581 798 q 703 922 655 889 q 809 975 751 956 q 937 995 868 995 q 1091 973 1022 995 q 1216 914 1161 951 q 1311 827 1271 877 q 1378 721 1351 778 q 1418 604 1405 664 q 1432 486 1432 544 q 1418 368 1432 428 q 1379 252 1405 308 q 1313 145 1353 195 q 1219 58 1273 95 q 1098 0 1165 21 q 948 -22 1030 -22 q 807 -2 870 -22 q 694 52 744 17 q 607 134 644 87 q 546 235 570 181 q 509 349 522 290 q 495 468 496 409 l 293 464 l 293 165 q 291 100 293 127 q 288 55 290 73 l 388 61 l 388 0 l 76 0 l 76 46 q 135 60 115 47 q 163 95 155 73 q 171 148 171 118 q 172 216 172 179 l 172 816 q 173 870 172 845 q 177 917 174 895 l 76 910 l 76 973 l 388 973 l 388 926 q 329 911 349 925 q 301 876 309 898 q 293 823 293 853 q 293 755 293 792 l 293 525 l 496 525 m 951 34 q 1055 51 1008 34 q 1141 98 1103 68 q 1207 170 1179 128 q 1255 258 1236 211 q 1283 356 1274 305 q 1293 459 1293 408 q 1282 574 1293 516 q 1250 684 1271 631 q 1199 784 1229 738 q 1128 865 1168 831 q 1039 919 1088 899 q 932 939 990 939 q 842 921 884 939 q 767 873 801 904 q 708 801 734 843 q 665 713 683 760 q 639 614 648 665 q 631 510 631 562 q 639 404 631 459 q 666 295 648 348 q 711 195 684 242 q 773 111 737 147 q 853 55 808 76 q 951 34 897 34 "},"ę":{"x_min":58,"x_max":699.140625,"ha":752,"o":"m 540 7 q 519 0 529 2 q 456 -32 486 -14 q 405 -73 427 -50 q 370 -124 383 -96 q 358 -183 358 -151 q 365 -222 358 -204 q 383 -252 372 -240 q 410 -271 395 -264 q 444 -278 426 -278 q 491 -267 469 -278 q 534 -240 514 -256 l 558 -265 q 526 -297 544 -281 q 487 -325 508 -312 q 441 -345 465 -338 q 392 -353 417 -353 q 332 -342 359 -353 q 285 -313 304 -331 q 255 -268 266 -294 q 245 -210 245 -242 q 255 -156 245 -182 q 285 -106 266 -130 q 329 -61 303 -82 q 385 -22 355 -40 q 255 6 315 -19 q 151 81 195 33 q 83 196 108 129 q 58 346 58 263 q 83 486 58 419 q 154 604 108 552 q 264 686 200 655 q 407 717 329 717 q 516 698 465 717 q 606 641 567 679 q 667 545 645 603 q 690 409 690 487 l 201 401 q 213 256 200 321 q 254 145 226 191 q 326 74 282 99 q 431 49 370 49 q 497 57 463 49 q 563 81 531 66 q 621 118 594 97 q 665 164 647 139 l 699 136 q 626 58 667 89 q 540 7 585 26 m 559 460 q 550 533 559 496 q 524 598 542 569 q 478 645 506 627 q 409 663 449 663 q 274 615 327 663 q 205 460 221 567 l 559 460 "},"S":{"x_min":80,"x_max":726.375,"ha":787,"o":"m 160 -11 l 88 -11 l 80 285 l 133 285 q 160 176 137 223 q 218 99 182 130 q 303 51 255 67 q 406 36 351 36 q 483 47 447 36 q 547 80 520 58 q 591 135 575 102 q 607 209 607 167 q 584 297 607 260 q 525 362 562 333 q 441 412 488 390 q 345 458 393 435 q 248 506 296 481 q 164 565 201 531 q 105 643 127 599 q 83 750 83 688 q 88 801 83 773 q 106 855 93 828 q 139 907 118 882 q 191 952 160 933 q 265 983 222 971 q 364 995 308 995 q 422 991 391 995 q 484 980 452 988 q 547 958 515 971 q 606 923 578 944 l 601 983 l 672 983 l 672 678 l 621 678 q 602 775 618 728 q 555 859 586 822 q 480 917 525 895 q 374 940 435 940 q 298 926 331 940 q 242 891 264 913 q 208 839 220 868 q 196 777 196 809 q 219 694 196 729 q 279 632 242 659 q 364 582 317 605 q 461 537 412 560 q 558 488 511 514 q 643 428 606 462 q 703 348 680 394 q 726 241 726 303 q 704 135 726 184 q 641 52 682 87 q 539 -2 600 17 q 401 -22 478 -22 q 336 -17 369 -22 q 271 -4 304 -13 q 209 17 239 4 q 153 48 179 31 l 160 -11 "},"/":{"x_min":29.15625,"x_max":930.515625,"ha":958,"o":"m 930 998 l 109 -377 l 29 -326 l 841 1055 l 930 998 "},"į":{"x_min":49,"x_max":362.078125,"ha":390,"o":"m 200 846 q 171 852 185 846 q 147 869 157 858 q 131 895 137 880 q 126 927 126 910 q 132 959 126 944 q 148 986 138 975 q 172 1004 159 998 q 201 1011 186 1011 q 230 1004 217 1011 q 253 986 243 998 q 269 959 263 975 q 275 927 275 944 q 268 895 275 910 q 252 869 262 880 q 228 852 242 858 q 200 846 215 846 m 362 -272 q 330 -304 348 -288 q 291 -332 312 -319 q 245 -352 269 -345 q 196 -360 221 -360 q 136 -349 163 -360 q 89 -320 108 -338 q 59 -275 70 -301 q 49 -218 49 -249 q 65 -152 49 -183 q 107 -93 81 -120 q 170 -42 134 -65 q 247 0 206 -18 l 61 0 l 61 41 q 110 53 93 41 q 134 88 127 66 q 142 142 141 110 q 144 210 144 173 l 144 527 q 144 569 144 549 q 149 617 145 589 l 50 612 l 50 670 q 125 673 95 670 q 174 682 155 676 q 204 694 193 687 q 222 708 214 700 l 263 708 l 263 147 q 262 98 263 119 q 258 53 261 76 l 345 57 l 345 0 q 275 -31 308 -13 q 217 -73 242 -49 q 176 -126 191 -97 q 162 -190 162 -155 q 169 -229 162 -211 q 187 -259 176 -247 q 214 -278 199 -271 q 248 -285 230 -285 q 295 -274 273 -285 q 338 -247 318 -263 l 362 -272 "},"ђ":{"x_min":29.625,"x_max":708,"ha":823,"o":"m 249 625 q 299 661 272 644 q 355 690 326 678 q 416 709 385 702 q 477 717 447 717 q 584 698 540 717 q 656 636 628 679 q 695 524 683 593 q 708 356 708 455 l 708 19 q 690 -164 708 -92 q 643 -278 672 -236 q 577 -337 615 -320 q 499 -354 539 -354 q 450 -347 471 -354 q 416 -330 429 -341 q 396 -305 402 -319 q 390 -276 390 -291 q 405 -230 390 -250 q 450 -210 421 -211 q 478 -215 467 -209 q 497 -230 490 -222 q 507 -250 504 -239 q 511 -268 511 -260 q 509 -285 511 -278 q 502 -300 507 -291 q 537 -290 521 -302 q 565 -244 553 -278 q 582 -149 576 -210 q 589 6 589 -89 l 589 355 q 552 572 589 499 q 429 644 515 645 q 378 636 404 643 q 329 618 353 630 q 285 591 306 607 q 249 557 264 576 l 249 147 q 247 98 249 119 q 242 52 246 76 l 329 57 l 329 0 l 46 0 l 46 41 q 95 53 78 41 q 120 88 112 66 q 128 142 127 110 q 130 210 130 173 l 130 799 l 29 797 l 29 868 l 130 868 l 130 868 q 130 910 130 890 q 134 958 130 930 l 35 953 l 35 1011 q 111 1014 81 1011 q 160 1022 141 1017 q 190 1034 179 1028 q 209 1049 200 1041 l 249 1049 l 249 868 l 533 868 l 533 803 l 249 800 l 249 625 "},"y":{"x_min":5.859375,"x_max":728.078125,"ha":733,"o":"m 179 -303 q 194 -307 186 -307 q 226 -296 207 -307 q 265 -252 245 -286 q 307 -161 283 -221 q 363 -16 332 -100 q 115 518 127 488 q 93 572 102 549 q 80 612 85 595 q 73 641 75 629 l 5 637 l 5 695 l 293 695 l 293 653 l 287 652 q 242 639 258 650 q 224 608 227 628 q 228 556 220 588 q 418 139 235 524 q 572 583 563 561 q 590 621 581 605 q 606 643 598 637 l 510 637 l 510 695 l 728 695 l 728 653 q 683 627 702 643 q 650 588 665 611 q 624 536 636 565 q 425 -11 612 507 q 367 -167 393 -99 q 311 -281 340 -235 q 248 -351 283 -327 q 168 -376 214 -376 q 127 -370 146 -376 q 94 -355 108 -365 q 72 -328 80 -344 q 64 -291 64 -312 q 68 -266 64 -278 q 79 -245 72 -254 q 98 -229 87 -235 q 123 -224 110 -224 q 151 -230 139 -224 q 169 -245 162 -236 q 178 -265 175 -255 q 181 -284 181 -276 q 180 -293 181 -288 q 179 -303 180 -298 "},"≈":{"x_min":103,"x_max":720,"ha":822,"o":"m 273 529 q 222 524 245 529 q 178 510 199 519 q 140 489 158 501 q 103 466 121 478 l 103 548 q 144 577 124 564 q 185 599 164 590 q 228 613 206 609 q 279 618 251 618 q 344 610 316 618 q 393 592 372 602 q 433 568 415 581 q 470 544 451 555 q 510 526 488 533 q 559 519 531 519 q 646 535 606 519 q 720 581 686 552 l 720 498 q 650 449 691 468 q 554 431 609 431 q 493 438 519 431 q 444 456 466 445 q 404 480 423 467 q 365 503 385 492 q 323 521 345 514 q 273 529 301 529 m 273 308 q 222 302 245 308 q 178 288 199 297 q 140 268 158 279 q 103 244 121 257 l 103 326 q 144 355 124 342 q 185 377 164 368 q 228 391 206 387 q 279 396 251 396 q 344 388 316 396 q 393 370 372 380 q 433 346 415 359 q 470 322 451 333 q 510 304 488 311 q 559 297 531 297 q 646 313 606 297 q 720 359 686 330 l 720 276 q 650 228 691 247 q 554 209 609 209 q 493 216 519 209 q 444 234 466 224 q 404 258 423 245 q 365 282 385 271 q 323 300 345 292 q 273 308 301 308 "},"Π":{"x_min":76.375,"x_max":980.703125,"ha":1057,"o":"m 980 927 q 921 912 941 925 q 893 876 901 899 q 885 823 885 854 q 885 755 885 793 l 885 165 q 881 55 885 91 l 980 61 l 980 0 l 667 0 l 667 46 q 727 60 707 47 q 755 95 747 73 q 763 149 763 118 q 764 216 764 180 l 764 918 l 385 913 q 337 903 355 911 q 310 880 320 894 q 297 846 300 866 q 293 801 293 826 l 293 165 q 291 100 293 127 q 288 55 290 73 l 388 61 l 388 0 l 76 0 l 76 46 q 135 60 115 47 q 163 95 155 73 q 171 148 171 118 q 172 216 172 179 l 172 816 q 173 870 172 845 q 177 917 174 896 l 76 911 l 76 973 l 980 973 l 980 927 "},"":{"x_min":62.390625,"x_max":590.046875,"ha":653,"o":"m 320 1036 l 318 1036 l 62 1232 l 92 1279 l 323 1156 l 326 1156 l 562 1282 l 590 1237 l 320 1036 "},"g":{"x_min":48,"x_max":790.640625,"ha":768,"o":"m 380 -45 q 305 -41 341 -43 q 237 -34 269 -39 q 177 -95 198 -59 q 157 -171 157 -130 q 173 -233 157 -206 q 221 -280 190 -260 q 295 -310 252 -300 q 393 -321 339 -321 q 499 -308 452 -321 q 579 -276 547 -296 q 629 -229 612 -256 q 646 -172 646 -202 q 626 -110 646 -134 q 570 -72 606 -86 q 486 -52 534 -58 q 380 -45 437 -47 m 368 668 q 302 653 331 668 q 252 611 272 638 q 222 549 232 585 q 211 471 211 513 q 222 380 211 421 q 254 309 233 339 q 306 263 275 279 q 375 247 336 247 q 442 261 414 247 q 491 300 471 275 q 520 361 510 326 q 530 437 530 396 q 519 524 530 482 q 489 598 509 566 q 438 648 468 629 q 368 668 408 668 m 672 721 q 641 710 654 719 q 617 689 627 702 q 600 661 607 676 q 591 630 594 646 q 645 556 625 598 q 665 465 665 513 q 641 356 665 406 q 576 272 617 307 q 482 216 536 236 q 371 197 429 197 q 325 200 345 197 q 278 203 305 203 q 231 197 252 203 q 195 178 209 190 q 175 155 180 166 q 170 136 170 144 q 173 119 170 128 q 195 93 178 103 q 240 77 212 82 q 306 68 268 71 q 393 64 345 66 q 536 48 473 60 q 644 12 599 36 q 711 -49 688 -11 q 734 -144 734 -87 q 704 -243 734 -200 q 626 -316 674 -286 q 516 -360 577 -345 q 394 -376 456 -376 q 234 -359 300 -376 q 127 -316 168 -343 q 66 -256 85 -289 q 48 -188 48 -222 q 60 -129 48 -156 q 91 -82 72 -103 q 132 -46 109 -61 q 176 -21 155 -30 q 105 17 131 -7 q 80 87 80 42 q 90 135 80 111 q 118 178 100 158 q 162 211 137 197 q 218 230 188 224 q 161 266 186 245 q 116 314 135 287 q 88 373 98 341 q 79 442 79 405 q 104 555 79 504 q 170 642 129 606 q 264 697 211 678 q 371 717 317 717 q 463 703 418 717 q 547 664 508 690 q 575 718 557 693 q 615 761 593 743 q 663 789 637 779 q 716 800 688 800 q 771 781 751 800 q 790 730 790 763 q 787 712 790 722 q 776 693 783 702 q 758 678 769 684 q 730 673 746 672 q 691 687 706 673 q 672 721 676 701 "},"²":{"x_min":85,"x_max":440,"ha":534,"o":"m 161 889 q 174 857 174 877 q 172 844 174 851 q 165 831 170 837 q 152 821 160 825 q 133 817 144 817 q 104 829 115 817 q 94 861 94 842 q 105 905 94 881 q 138 948 116 928 q 191 981 159 968 q 266 995 224 995 q 328 986 298 995 q 381 959 358 977 q 419 912 405 940 q 433 846 433 885 q 427 803 433 826 q 404 756 422 781 q 355 699 387 730 q 270 629 323 668 q 160 503 177 562 l 278 500 q 305 499 292 499 q 330 499 319 499 q 364 501 349 499 q 389 509 379 503 q 405 526 399 515 q 410 556 410 537 l 440 556 l 440 425 l 85 425 q 98 504 85 468 q 133 570 111 539 q 185 629 156 602 q 247 683 214 657 q 293 730 276 707 q 320 773 310 752 q 332 812 329 794 q 336 845 336 830 q 313 917 336 889 q 248 945 291 945 q 217 940 231 945 q 190 928 202 935 q 172 910 179 920 q 161 889 164 900 "},"–":{"x_min":92,"x_max":724,"ha":819,"o":"m 92 493 l 724 493 l 724 401 l 92 395 l 92 493 "},"ë":{"x_min":58,"x_max":698.03125,"ha":753,"o":"m 409 662 q 274 614 327 662 q 205 460 222 566 l 559 460 q 550 532 559 496 q 524 597 542 568 q 478 644 506 626 q 409 662 449 662 m 689 410 l 201 402 q 213 256 200 321 q 253 145 226 191 q 325 74 281 99 q 430 49 369 49 q 496 57 462 49 q 562 82 530 66 q 620 118 593 97 q 664 165 646 140 l 698 137 q 631 63 669 93 q 553 14 594 33 q 472 -13 513 -5 q 397 -22 432 -22 q 263 3 325 -22 q 155 77 201 29 q 84 193 110 125 q 58 346 58 261 q 83 486 58 419 q 154 604 108 552 q 264 686 200 655 q 407 717 329 717 q 516 698 465 717 q 606 641 567 679 q 667 545 645 603 q 689 410 689 487 m 346 927 q 340 896 346 911 q 325 870 334 881 q 303 852 315 858 q 277 846 290 846 q 250 852 262 846 q 228 870 237 858 q 213 896 218 881 q 208 927 208 911 q 213 960 208 944 q 229 987 219 976 q 251 1005 238 998 q 277 1012 264 1012 q 305 1005 292 1012 q 327 987 317 998 q 341 960 336 976 q 346 927 346 944 m 578 927 q 572 896 578 911 q 557 870 566 881 q 535 852 547 858 q 509 846 522 846 q 482 852 494 846 q 460 870 469 858 q 445 896 450 881 q 440 927 440 911 q 445 960 440 944 q 461 987 451 976 q 483 1005 470 998 q 509 1012 496 1012 q 537 1005 524 1012 q 559 987 549 998 q 573 960 568 976 q 578 927 578 944 "},"б":{"x_min":59,"x_max":705,"ha":756,"o":"m 663 1040 q 649 980 655 1006 q 631 934 643 954 q 599 898 619 914 q 542 871 578 883 q 485 855 514 860 q 428 846 456 850 q 373 837 400 841 q 322 825 346 833 q 231 777 269 809 q 168 700 193 744 q 132 602 144 656 q 122 489 121 548 l 131 489 q 171 563 147 529 q 229 619 195 596 q 304 656 262 643 q 397 669 346 669 q 518 647 462 669 q 616 586 574 626 q 681 485 657 545 q 705 346 705 425 q 679 195 705 263 q 610 79 654 126 q 506 5 566 31 q 379 -21 447 -21 q 253 5 312 -21 q 152 86 195 32 q 84 222 109 141 q 59 415 59 304 q 72 590 59 505 q 117 744 86 674 q 196 865 147 813 q 313 943 244 917 q 366 959 339 953 q 420 969 393 965 q 475 977 447 973 q 530 989 502 982 q 562 999 548 994 q 585 1012 575 1005 q 602 1029 595 1019 q 615 1056 608 1040 l 663 1040 m 370 618 q 289 595 324 618 q 232 536 254 573 q 198 452 209 499 q 187 352 187 404 q 200 218 187 278 q 237 117 212 158 q 299 54 262 76 q 383 32 335 32 q 470 55 434 32 q 527 117 505 78 q 559 205 549 156 q 569 308 569 255 q 557 420 569 365 q 522 519 546 476 q 461 590 499 563 q 370 618 423 618 "},"ƒ":{"x_min":-168,"x_max":551,"ha":476,"o":"m 467 641 l 268 639 q 260 488 263 567 q 250 327 256 409 q 237 158 243 243 q 221 -4 231 73 q 192 -150 210 -82 q 141 -268 173 -218 q 59 -347 108 -318 q -60 -376 10 -376 q -102 -370 -83 -376 q -137 -356 -122 -365 q -159 -333 -151 -346 q -168 -303 -168 -320 q -153 -257 -168 -275 q -108 -240 -138 -240 q -67 -257 -82 -240 q -52 -300 -52 -274 q -53 -310 -52 -307 q -33 -319 -44 -317 q -14 -321 -21 -321 q 40 -295 18 -321 q 76 -224 62 -270 q 99 -117 90 -179 q 114 18 108 -54 q 124 173 119 92 q 136 340 129 255 q 146 490 141 415 q 160 637 151 565 l 39 636 l 46 696 l 167 696 q 197 837 178 771 q 249 951 216 902 q 330 1027 281 999 q 448 1055 378 1055 q 482 1050 464 1055 q 516 1037 500 1046 q 541 1015 531 1029 q 551 981 551 1001 q 537 940 551 958 q 495 923 523 923 q 454 939 469 923 q 438 981 438 955 q 438 988 438 984 q 439 995 439 991 q 409 1002 428 1002 q 350 979 374 1002 q 310 916 326 957 q 286 819 294 876 q 272 696 277 763 l 471 696 l 467 641 "},"у":{"x_min":5.859375,"x_max":728.078125,"ha":733,"o":"m 179 -303 q 194 -307 186 -307 q 226 -296 207 -307 q 265 -252 245 -286 q 307 -161 283 -221 q 363 -16 332 -100 q 115 518 127 488 q 93 572 102 549 q 80 612 85 595 q 73 641 75 629 l 5 637 l 5 695 l 293 695 l 293 653 l 287 652 q 242 639 258 650 q 224 608 227 628 q 228 556 220 588 q 418 139 235 524 q 572 583 563 561 q 590 621 581 605 q 606 643 598 637 l 510 637 l 510 695 l 728 695 l 728 653 q 683 627 702 643 q 650 588 665 611 q 624 536 636 565 q 425 -11 612 507 q 367 -167 393 -99 q 311 -281 340 -235 q 248 -351 283 -327 q 168 -376 214 -376 q 127 -370 146 -376 q 94 -355 108 -365 q 72 -328 80 -344 q 64 -291 64 -312 q 68 -266 64 -278 q 79 -245 72 -254 q 98 -229 87 -235 q 123 -224 110 -224 q 151 -230 139 -224 q 169 -245 162 -236 q 178 -265 175 -255 q 181 -284 181 -276 q 180 -293 181 -288 q 179 -303 180 -298 "},"J":{"x_min":-3,"x_max":476.890625,"ha":518,"o":"m 111 56 q 122 46 115 50 q 138 39 129 41 q 153 35 146 36 q 166 35 161 35 q 202 44 187 35 q 228 72 218 53 q 243 121 238 91 q 249 193 249 151 l 249 918 l 107 911 l 107 973 l 476 973 l 476 927 q 421 916 442 927 q 388 887 400 906 q 373 844 377 869 q 369 789 369 818 l 369 339 q 356 173 369 242 q 316 60 343 104 q 246 -2 289 17 q 143 -22 203 -22 q 87 -15 114 -22 q 41 4 61 -8 q 8 35 20 17 q -3 77 -3 54 q 0 103 -3 90 q 11 126 4 116 q 28 141 19 136 q 44 148 37 146 q 62 150 51 150 q 85 144 74 150 q 104 129 97 139 q 115 109 111 120 q 118 88 118 98 q 116 72 118 81 q 111 56 115 64 "},"Ã":{"x_min":-8.046875,"x_max":886.953125,"ha":869,"o":"m 177 150 q 168 121 172 134 q 160 97 164 108 q 152 76 156 86 q 143 55 147 66 l 251 60 l 251 0 l -8 0 l -8 45 q 42 58 23 45 q 76 93 62 70 q 100 148 89 116 q 126 219 112 180 l 412 999 l 445 999 l 756 207 q 768 173 762 193 q 780 132 775 153 q 789 90 786 111 q 792 55 792 70 l 886 60 l 886 0 l 568 0 l 568 45 q 625 59 607 46 q 648 92 644 73 q 648 134 653 112 q 636 176 644 157 l 587 307 l 225 298 q 199 220 211 256 q 177 150 187 185 m 346 638 q 290 480 314 549 q 247 359 266 412 l 568 359 l 469 625 l 407 796 l 404 796 l 346 638 m 303 1177 q 250 1155 273 1177 q 201 1094 227 1133 l 154 1121 q 184 1177 166 1151 q 222 1221 202 1203 q 266 1252 243 1240 q 311 1264 288 1263 q 360 1256 338 1264 q 400 1238 382 1249 q 434 1215 418 1228 q 466 1191 450 1202 q 497 1173 481 1180 q 532 1166 513 1166 q 567 1173 551 1166 q 597 1193 583 1181 q 623 1222 611 1205 q 645 1256 635 1238 l 690 1234 q 656 1162 675 1192 q 615 1114 637 1132 q 570 1087 593 1095 q 524 1079 547 1079 q 475 1086 497 1079 q 434 1104 453 1093 q 398 1128 415 1115 q 366 1152 382 1141 q 335 1170 350 1162 q 303 1177 320 1177 "},"ŕ":{"x_min":50.078125,"x_max":592,"ha":602,"o":"m 459 641 q 406 631 433 641 q 352 600 379 620 q 303 551 326 579 q 262 488 280 523 l 263 147 q 263 98 263 119 q 258 53 262 76 l 345 57 l 345 0 l 60 0 l 60 41 q 109 54 92 41 q 133 88 126 66 q 141 142 140 111 q 143 211 143 173 l 143 528 q 143 572 143 550 q 148 618 144 594 l 50 614 l 50 671 l 92 671 q 142 674 122 671 q 175 682 161 677 q 197 694 188 687 q 214 708 206 700 l 254 708 q 257 654 256 686 q 261 571 259 621 q 301 623 276 596 q 355 669 325 649 q 421 703 386 690 q 494 717 457 717 q 531 711 513 717 q 562 695 549 706 q 583 668 575 685 q 592 629 592 652 q 588 608 592 619 q 576 586 584 596 q 554 569 567 576 q 522 563 541 563 q 494 569 507 563 q 473 587 482 576 q 461 611 465 597 q 459 641 457 625 m 283 806 l 244 837 l 360 1025 q 391 1055 376 1047 q 418 1063 406 1063 q 439 1058 429 1063 q 456 1045 450 1054 q 466 1029 463 1036 q 468 1012 468 1021 q 466 998 468 1005 q 462 987 464 991 q 438 953 456 971 l 283 806 "},"Ј":{"x_min":-3,"x_max":476.890625,"ha":518,"o":"m 111 56 q 122 46 115 50 q 138 39 129 41 q 153 35 146 36 q 166 35 161 35 q 202 44 187 35 q 228 72 218 53 q 243 121 238 91 q 249 193 249 151 l 249 918 l 107 911 l 107 973 l 476 973 l 476 927 q 421 916 442 927 q 388 887 400 906 q 373 844 377 869 q 369 789 369 818 l 369 339 q 356 173 369 242 q 316 60 343 104 q 246 -2 289 17 q 143 -22 203 -22 q 87 -15 114 -22 q 41 4 61 -8 q 8 35 20 17 q -3 77 -3 54 q 0 103 -3 90 q 11 126 4 116 q 28 141 19 136 q 44 148 37 146 q 62 150 51 150 q 85 144 74 150 q 104 129 97 139 q 115 109 111 120 q 118 88 118 98 q 116 72 118 81 q 111 56 115 64 "},"Ұ":{"x_min":-8.1875,"x_max":895.8125,"ha":880,"o":"m 895 927 q 834 913 861 924 q 783 879 806 901 q 737 824 759 857 q 691 747 715 791 q 599 574 642 656 q 516 415 556 493 l 516 382 l 718 382 l 718 311 l 515 309 q 514 257 515 282 q 514 211 514 231 q 514 178 514 190 q 515 165 515 165 q 511 55 515 90 l 626 61 l 626 0 l 299 0 l 299 46 q 357 61 337 47 q 385 97 377 74 q 393 150 393 120 q 394 216 394 181 l 394 308 l 186 305 l 186 382 l 389 382 l 153 757 q 100 850 117 813 q 77 915 83 888 l -8 911 l -8 973 l 349 973 l 349 927 q 276 915 301 927 q 244 884 251 904 q 246 836 237 864 q 276 775 255 808 q 325 697 302 734 q 371 624 348 660 q 419 551 394 588 q 474 472 444 513 l 477 472 q 524 562 502 519 q 568 646 547 606 q 611 727 590 687 q 655 810 633 768 q 667 833 660 820 q 684 862 675 847 q 702 890 693 876 q 722 916 712 905 l 612 911 l 612 973 l 895 973 l 895 927 "},"©":{"x_min":61,"x_max":1160,"ha":1218,"o":"m 61 483 q 79 631 61 560 q 132 764 98 702 q 216 877 166 826 q 326 965 265 928 q 459 1021 387 1001 q 611 1042 531 1042 q 763 1021 691 1042 q 896 965 835 1001 q 1006 877 957 928 q 1089 764 1055 826 q 1141 631 1123 702 q 1160 483 1160 560 q 1140 337 1160 407 q 1085 205 1120 266 q 999 93 1049 143 q 887 6 949 42 q 755 -48 826 -28 q 608 -69 685 -69 q 383 -27 485 -69 q 211 87 282 13 q 100 262 139 161 q 61 483 61 363 m 154 483 q 168 359 154 419 q 210 244 183 298 q 277 145 237 190 q 367 68 316 101 q 479 17 418 35 q 612 0 541 0 q 742 17 681 0 q 853 68 803 35 q 944 145 904 101 q 1011 244 984 190 q 1053 359 1039 298 q 1068 483 1068 419 q 1053 609 1068 548 q 1010 725 1038 670 q 941 825 982 779 q 850 904 901 870 q 738 955 799 937 q 608 974 676 974 q 480 955 540 974 q 369 904 420 937 q 279 825 319 870 q 211 725 239 779 q 169 609 183 670 q 154 483 154 548 m 626 757 q 548 740 586 757 q 479 691 509 723 q 429 609 448 658 q 411 497 411 560 q 429 390 411 439 q 479 305 447 340 q 557 249 512 269 q 657 229 602 229 q 707 236 680 229 q 760 256 734 243 q 812 289 787 269 q 857 332 837 308 l 898 283 q 831 214 868 241 q 756 170 794 186 q 682 148 719 154 q 617 142 646 142 q 483 168 544 142 q 376 239 422 194 q 306 347 331 285 q 281 480 281 409 q 290 563 281 521 q 319 644 300 605 q 367 717 338 683 q 433 777 395 752 q 518 817 471 802 q 621 832 565 832 q 719 816 672 832 q 802 774 765 800 l 797 825 l 867 825 l 867 591 l 811 591 q 790 668 805 636 q 749 719 774 699 q 694 748 725 739 q 626 757 662 757 "},"˘":{"x_min":62,"x_max":441,"ha":504,"o":"m 249 839 q 194 848 222 839 q 141 878 167 858 q 95 928 116 898 q 62 1000 74 959 l 102 1021 q 128 984 112 1002 q 164 953 144 966 q 207 932 184 940 q 253 924 230 924 q 300 932 277 924 q 342 954 323 940 q 377 986 362 968 q 403 1023 393 1004 l 441 1007 q 375 892 414 934 q 249 839 323 839 "},"≥":{"x_min":105.328125,"x_max":725,"ha":804,"o":"m 725 0 l 106 0 l 106 72 l 725 78 l 725 0 m 724 420 l 105 146 l 105 232 l 630 462 l 105 695 l 105 784 l 724 514 l 724 420 "},"Ă":{"x_min":-8.046875,"x_max":886.953125,"ha":869,"o":"m 177 150 q 168 121 172 134 q 160 97 164 108 q 152 76 156 86 q 143 55 147 66 l 251 60 l 251 0 l -8 0 l -8 45 q 42 58 23 45 q 76 93 62 70 q 100 148 89 116 q 126 219 112 180 l 412 999 l 445 999 l 756 207 q 768 173 762 193 q 780 132 775 153 q 789 90 786 111 q 792 55 792 70 l 886 60 l 886 0 l 568 0 l 568 45 q 625 59 607 46 q 648 92 644 73 q 648 134 653 112 q 636 176 644 157 l 587 307 l 225 298 q 199 220 211 256 q 177 150 187 185 m 346 638 q 290 480 314 549 q 247 359 266 412 l 568 359 l 469 625 l 407 796 l 404 796 l 346 638 m 638 1267 q 552 1160 606 1197 q 435 1124 499 1124 q 318 1160 371 1124 q 231 1267 264 1197 l 269 1283 q 297 1255 280 1269 q 336 1232 314 1242 q 383 1215 358 1221 q 435 1209 408 1209 q 486 1215 461 1209 q 534 1232 512 1221 q 573 1255 556 1242 q 601 1283 590 1269 l 638 1267 "},"ґ":{"x_min":60.578125,"x_max":590.265625,"ha":608,"o":"m 584 639 l 348 639 q 300 628 317 639 q 275 598 283 618 q 264 549 266 578 q 262 483 262 520 l 262 147 q 261 98 262 119 q 257 52 260 76 l 344 56 l 344 0 l 60 0 l 60 41 q 109 53 92 41 q 133 88 125 66 q 142 142 141 110 q 144 210 143 173 l 144 547 q 144 596 144 575 q 149 642 145 618 l 62 638 l 62 695 l 348 695 q 440 702 404 695 q 498 728 477 710 q 527 775 519 745 q 537 848 536 804 l 590 848 l 584 639 "},"D":{"x_min":76.375,"x_max":971.328125,"ha":1035,"o":"m 293 164 q 292 99 293 126 q 288 55 291 73 q 341 53 316 54 q 386 53 366 53 q 420 53 406 53 q 437 53 433 53 q 600 86 527 53 q 726 178 674 119 q 806 316 777 236 q 835 490 835 396 q 808 668 835 588 q 726 804 781 747 q 587 891 671 861 q 389 922 503 922 q 330 909 349 922 q 302 875 310 897 q 293 823 294 853 q 293 755 293 792 l 293 164 m 404 974 q 634 944 530 974 q 813 855 738 915 q 929 702 888 794 q 971 484 971 610 q 956 360 971 421 q 911 245 941 299 q 837 146 881 191 q 734 69 792 101 q 602 18 675 36 q 442 0 528 0 l 76 0 l 76 46 q 135 60 115 47 q 163 95 155 73 q 171 148 171 118 q 172 216 172 179 l 172 816 q 173 870 172 845 q 176 917 174 895 l 76 910 l 76 972 l 404 974 "},"ÿ":{"x_min":5.859375,"x_max":728.078125,"ha":733,"o":"m 179 -303 q 194 -307 186 -307 q 226 -296 207 -307 q 265 -252 245 -286 q 307 -161 283 -221 q 363 -16 332 -100 q 115 518 127 488 q 93 572 102 549 q 80 612 85 595 q 73 641 75 629 l 5 637 l 5 695 l 293 695 l 293 653 l 287 652 q 242 639 258 650 q 224 608 227 628 q 228 556 220 588 q 418 139 235 524 q 572 583 563 561 q 590 621 581 605 q 606 643 598 637 l 510 637 l 510 695 l 728 695 l 728 653 q 683 627 702 643 q 650 588 665 611 q 624 536 636 565 q 425 -11 612 507 q 367 -167 393 -99 q 311 -281 340 -235 q 248 -351 283 -327 q 168 -376 214 -376 q 127 -370 146 -376 q 94 -355 108 -365 q 72 -328 80 -344 q 64 -291 64 -312 q 68 -266 64 -278 q 79 -245 72 -254 q 98 -229 87 -235 q 123 -224 110 -224 q 151 -230 139 -224 q 169 -245 162 -236 q 178 -265 175 -255 q 181 -284 181 -276 q 180 -293 181 -288 q 179 -303 180 -298 m 355 927 q 349 896 355 911 q 334 870 343 881 q 312 852 324 858 q 286 846 299 846 q 259 852 271 846 q 237 870 246 858 q 222 896 227 881 q 217 927 217 911 q 222 960 217 944 q 238 987 228 976 q 260 1005 247 998 q 286 1012 273 1012 q 314 1005 301 1012 q 336 987 326 998 q 350 960 345 976 q 355 927 355 944 m 587 927 q 581 896 587 911 q 566 870 575 881 q 544 852 556 858 q 518 846 531 846 q 491 852 503 846 q 469 870 478 858 q 454 896 459 881 q 449 927 449 911 q 454 960 449 944 q 470 987 460 976 q 492 1005 479 998 q 518 1012 505 1012 q 546 1005 533 1012 q 568 987 558 998 q 582 960 577 976 q 587 927 587 944 "},"ĺ":{"x_min":34.734375,"x_max":330.421875,"ha":378,"o":"m 129 868 q 129 910 129 889 q 133 958 129 930 l 34 953 l 34 1011 q 110 1014 80 1011 q 159 1022 140 1017 q 189 1034 178 1028 q 208 1048 200 1041 l 248 1048 l 249 147 q 248 98 249 119 q 242 53 247 76 l 330 57 l 330 0 l 46 0 l 46 41 q 95 54 78 41 q 119 88 112 66 q 127 142 126 111 q 129 211 129 173 l 129 868 m 115 1086 l 76 1117 l 193 1305 q 224 1335 208 1327 q 250 1343 239 1343 q 272 1338 261 1343 q 289 1325 282 1334 q 298 1309 296 1316 q 300 1292 300 1301 q 298 1278 300 1285 q 294 1267 296 1271 q 271 1233 288 1251 l 115 1086 "},"ł":{"x_min":36.640625,"x_max":383.890625,"ha":407,"o":"m 36 396 l 156 481 l 156 868 q 156 910 156 889 q 160 958 156 930 l 61 953 l 61 1011 q 137 1014 107 1011 q 186 1022 167 1017 q 216 1034 205 1028 q 235 1049 227 1041 l 275 1049 l 276 568 l 383 645 l 383 567 l 276 488 l 276 147 q 275 98 276 119 q 269 53 274 76 l 357 57 l 357 0 l 73 0 l 73 41 q 122 54 105 41 q 146 88 139 66 q 154 142 153 111 q 156 211 156 173 l 156 400 l 36 314 l 36 396 "},"ц":{"x_min":60.90625,"x_max":815,"ha":852,"o":"m 815 -246 l 762 -246 q 756 -150 762 -195 q 738 -71 751 -105 q 703 -18 725 -37 q 646 0 681 0 l 60 0 l 60 41 q 109 53 92 41 q 133 88 126 66 q 142 142 141 111 q 145 211 143 173 l 145 547 q 145 596 145 575 q 150 642 146 618 l 62 637 l 62 695 l 346 695 l 346 654 q 297 641 314 654 q 272 606 280 628 q 264 552 265 584 q 262 484 262 521 l 262 147 q 261 98 262 119 q 257 53 260 77 l 493 56 q 542 66 525 56 q 566 96 559 76 q 575 145 574 116 q 578 211 576 174 l 578 547 q 578 596 578 575 q 583 642 579 618 l 495 638 l 495 695 l 779 695 l 779 654 q 730 641 747 654 q 705 606 713 628 q 697 552 698 584 q 695 484 695 521 l 695 147 q 694 98 695 119 q 690 53 693 76 l 777 57 l 815 59 l 815 -246 "}}}
